<svg width="16" height="16" viewBox="0 0 16 16" fill="none" xmlns="http://www.w3.org/2000/svg">
<g clip-path="url(#clip0_328_1522)">
<path d="M6.66602 14.6667V10.2867M7.99935 7.33333H8.00602M7.99935 4.66667H8.00602M9.33268 10.2867V14.6667M9.99935 10.6667C9.42236 10.2339 8.72058 10 7.99935 10C7.27812 10 6.57634 10.2339 5.99935 10.6667M10.666 7.33333H10.6727M10.666 4.66667H10.6727M5.33268 7.33333H5.33935M5.33268 4.66667H5.33935M3.99935 1.33333H11.9993C12.7357 1.33333 13.3327 1.93029 13.3327 2.66667V13.3333C13.3327 14.0697 12.7357 14.6667 11.9993 14.6667H3.99935C3.26297 14.6667 2.66602 14.0697 2.66602 13.3333V2.66667C2.66602 1.93029 3.26297 1.33333 3.99935 1.33333Z" stroke="white" stroke-width="2" stroke-linecap="round" stroke-linejoin="round"/>
</g>
<defs>
<clipPath id="clip0_328_1522">
<rect width="16" height="16" fill="white"/>
</clipPath>
</defs>
</svg>
