<svg width="20" height="20" viewBox="0 0 20 20" fill="none" xmlns="http://www.w3.org/2000/svg">
<path d="M11.6663 1.66663V4.99996C11.6663 5.44199 11.8419 5.86591 12.1545 6.17847C12.4671 6.49103 12.891 6.66663 13.333 6.66663H16.6663M8.33301 7.49996H6.66634M13.333 10.8333H6.66634M13.333 14.1666H6.66634M12.4997 1.66663H4.99967C4.55765 1.66663 4.13372 1.84222 3.82116 2.15478C3.5086 2.46734 3.33301 2.89127 3.33301 3.33329V16.6666C3.33301 17.1087 3.5086 17.5326 3.82116 17.8451C4.13372 18.1577 4.55765 18.3333 4.99967 18.3333H14.9997C15.4417 18.3333 15.8656 18.1577 16.1782 17.8451C16.4907 17.5326 16.6663 17.1087 16.6663 16.6666V5.83329L12.4997 1.66663Z" stroke="#428ECC" stroke-width="2" stroke-linecap="round" stroke-linejoin="round"/>
</svg>
