<svg width="14" height="14" viewBox="0 0 14 14" fill="none" xmlns="http://www.w3.org/2000/svg">
<g clip-path="url(#clip0_328_1528)">
<path d="M12.8338 9.87V11.62C12.8345 11.7825 12.8012 11.9433 12.7361 12.0921C12.671 12.241 12.5756 12.3746 12.4559 12.4844C12.3362 12.5942 12.1948 12.6779 12.0409 12.7299C11.887 12.782 11.724 12.8013 11.5622 12.7867C9.76714 12.5916 8.04291 11.9783 6.52799 10.9958C5.11856 10.1002 3.9236 8.90527 3.02799 7.49583C2.04214 5.97404 1.42863 4.24141 1.23716 2.43833C1.22258 2.27702 1.24175 2.11444 1.29345 1.96095C1.34515 1.80745 1.42824 1.6664 1.53744 1.54678C1.64663 1.42716 1.77954 1.33158 1.9277 1.26614C2.07586 1.2007 2.23602 1.16682 2.39799 1.16667H4.14799C4.43109 1.16388 4.70554 1.26413 4.92018 1.44873C5.13483 1.63333 5.27503 1.88968 5.31466 2.17C5.38852 2.73004 5.5255 3.27992 5.72299 3.80917C5.80147 4.01796 5.81846 4.24487 5.77194 4.46301C5.72541 4.68116 5.61733 4.8814 5.46049 5.04L4.71966 5.78083C5.55006 7.24124 6.75925 8.45043 8.21966 9.28083L8.96049 8.54C9.11909 8.38316 9.31933 8.27508 9.53748 8.22856C9.75562 8.18203 9.98253 8.19902 10.1913 8.2775C10.7206 8.47499 11.2705 8.61197 11.8305 8.68583C12.1139 8.72581 12.3726 8.86854 12.5576 9.08687C12.7426 9.30521 12.8409 9.58392 12.8338 9.87Z" stroke="white" stroke-width="2" stroke-linecap="round" stroke-linejoin="round"/>
</g>
<defs>
<clipPath id="clip0_328_1528">
<rect width="14" height="14" fill="white"/>
</clipPath>
</defs>
</svg>
