<svg width="110" height="110" viewBox="0 0 110 110" fill="none" xmlns="http://www.w3.org/2000/svg">
<g opacity="0.68">
<path d="M55.21 6.54712V16.7931" stroke="#FAD782" stroke-width="6" stroke-miterlimit="2" stroke-linecap="round" stroke-linejoin="round"/>
<path d="M23.249 18.8423L29.4349 26.0145" stroke="#FAD782" stroke-width="6" stroke-miterlimit="2" stroke-linecap="round" stroke-linejoin="round"/>
<path d="M5.72168 47.5317L16.0315 49.5809" stroke="#FAD782" stroke-width="6" stroke-miterlimit="2" stroke-linecap="round" stroke-linejoin="round"/>
<path d="M11.9082 81.3437L20.1561 76.2207" stroke="#FAD782" stroke-width="6" stroke-miterlimit="2" stroke-linecap="round" stroke-linejoin="round"/>
<path d="M37.6826 103.885L41.8065 94.6638" stroke="#FAD782" stroke-width="6" stroke-miterlimit="2" stroke-linecap="round" stroke-linejoin="round"/>
<path d="M72.7372 103.885L68.6133 94.6638" stroke="#FAD782" stroke-width="6" stroke-miterlimit="2" stroke-linecap="round" stroke-linejoin="round"/>
<path d="M98.5115 81.3437L90.2637 76.2207" stroke="#FAD782" stroke-width="6" stroke-miterlimit="2" stroke-linecap="round" stroke-linejoin="round"/>
<path d="M104.697 47.5317L95.418 49.5809" stroke="#FAD782" stroke-width="6" stroke-miterlimit="2" stroke-linecap="round" stroke-linejoin="round"/>
<path d="M87.1703 18.8425L80.9844 26.0147" stroke="#FAD782" stroke-width="6" stroke-miterlimit="2" stroke-linecap="round" stroke-linejoin="round"/>
<path d="M55.1035 32.3171V37.2938" stroke="#F8C4BB" stroke-width="4" stroke-miterlimit="2" stroke-linecap="round" stroke-linejoin="round"/>
<path d="M39.3623 38.2893L42.4091 41.773" stroke="#F8C4BB" stroke-width="4" stroke-miterlimit="2" stroke-linecap="round" stroke-linejoin="round"/>
<path d="M30.7295 52.2239L35.8075 53.2192" stroke="#F8C4BB" stroke-width="4" stroke-miterlimit="2" stroke-linecap="round" stroke-linejoin="round"/>
<path d="M33.7764 68.6465L37.8387 66.1582" stroke="#F8C4BB" stroke-width="4" stroke-miterlimit="2" stroke-linecap="round" stroke-linejoin="round"/>
<path d="M46.4707 79.5954L48.5019 75.1165" stroke="#F8C4BB" stroke-width="4" stroke-miterlimit="2" stroke-linecap="round" stroke-linejoin="round"/>
<path d="M63.7363 79.5954L61.7051 75.1165" stroke="#F8C4BB" stroke-width="4" stroke-miterlimit="2" stroke-linecap="round" stroke-linejoin="round"/>
<path d="M76.4315 68.6465L72.3691 66.1582" stroke="#F8C4BB" stroke-width="4" stroke-miterlimit="2" stroke-linecap="round" stroke-linejoin="round"/>
<path d="M79.4774 52.2239L74.9072 53.2192" stroke="#F8C4BB" stroke-width="4" stroke-miterlimit="2" stroke-linecap="round" stroke-linejoin="round"/>
<path d="M70.8456 38.2893L67.7988 41.773" stroke="#F8C4BB" stroke-width="4" stroke-miterlimit="2" stroke-linecap="round" stroke-linejoin="round"/>
</g>
</svg>
