<svg width="3593" height="44" viewBox="0 0 3593 44" fill="none" xmlns="http://www.w3.org/2000/svg">
<g clip-path="url(#clip0_299_3966)">
<g filter="url(#filter0_i_299_3966)">
<path d="M3570.87 0C3642.01 0.000154669 3739 33.8026 3739 75.5C3739 117.197 3642.01 151 3570.87 151C3499.73 151 3484 126.178 3446.24 126.178C3408.48 126.178 3371.67 151 3321.61 151C3271.55 151 3233.03 124.988 3194.63 124.987C3156.23 124.987 3120.36 151 3067.65 151C3014.94 151 2973.91 121.087 2933.61 121.087C2893.31 121.087 2850.72 151 2799.58 151C2748.43 151 2715.28 127.873 2678.47 127.873C2641.66 127.873 2607.49 151 2557.37 151C2507.25 151 2466.21 123.103 2426.86 123.103C2387.51 123.103 2347.4 151 2296.35 151C2245.31 151 2209.49 126.178 2171.72 126.178C2133.96 126.178 2097.16 151 2047.09 151C1997.03 151 1958.51 124.987 1920.11 124.987C1908.6 124.987 1899.02 127.328 1889.32 130.604C1885.52 132.088 1881.62 133.503 1877.63 134.847C1858.01 142.208 1834.86 151 1793.13 151C1791.43 151 1789.71 150.98 1787.98 150.942C1786.26 150.98 1784.56 151 1782.87 151C1711.73 151 1696 126.178 1658.24 126.178C1620.48 126.178 1583.67 151 1533.61 151C1483.55 151 1445.03 124.988 1406.63 124.987C1368.23 124.987 1332.36 151 1279.65 151C1226.94 151 1185.91 121.087 1145.61 121.087C1105.31 121.087 1062.72 151 1011.58 151C960.433 151 927.282 127.873 890.473 127.873C853.664 127.873 819.487 151 769.37 151C719.253 151 678.211 123.103 638.862 123.103C599.513 123.103 559.4 151 508.354 151C457.308 151 421.487 126.178 383.725 126.178C345.962 126.178 309.156 151 259.095 151C209.034 151 170.511 124.987 132.113 124.987C93.7157 124.987 76.9099 151 5.13281 151C-66.6447 151 -163 117.197 -163 75.5C-163 33.8025 -66.6447 0 5.13281 0C76.9098 0.000106914 93.7158 26.0126 132.113 26.0127C170.511 26.0127 209.034 0 259.095 0C309.156 6.05278e-05 345.962 24.8223 383.725 24.8223C421.487 24.8221 457.308 7.91621e-05 508.354 0C559.4 0 599.513 27.8965 638.862 27.8965C678.211 27.8964 719.253 0.000113262 769.37 0C819.487 0 853.664 23.1269 890.473 23.127C927.281 23.127 960.433 0 1011.58 0C1062.72 4.75994e-05 1105.31 29.9129 1145.61 29.9131C1185.91 29.9131 1226.94 0 1279.65 0C1332.35 8.03261e-05 1368.23 26.0127 1406.63 26.0127C1445.03 26.0125 1483.55 4.22937e-05 1533.61 0C1583.67 0 1620.48 24.8223 1658.24 24.8223C1696 24.8222 1711.73 0 1782.87 0C1784.56 3.67303e-06 1786.26 0.0188581 1787.98 0.0566406C1789.71 0.0188581 1791.43 0 1793.13 0C1834.86 6.2159e-05 1858.01 8.79097 1877.63 16.1523C1881.62 17.4958 1885.52 18.9107 1889.32 20.3936C1899.02 23.6705 1908.6 26.0127 1920.11 26.0127C1958.51 26.0127 1997.03 0 2047.09 0C2097.16 6.05278e-05 2133.96 24.8223 2171.72 24.8223C2209.49 24.8221 2245.31 7.91621e-05 2296.35 0C2347.4 0 2387.51 27.8965 2426.86 27.8965C2466.21 27.8964 2507.25 0.000113262 2557.37 0C2607.49 0 2641.66 23.1269 2678.47 23.127C2715.28 23.127 2748.43 0 2799.58 0C2850.72 4.75994e-05 2893.31 29.9129 2933.61 29.9131C2973.91 29.9131 3014.94 0 3067.65 0C3120.35 8.03261e-05 3156.23 26.0127 3194.63 26.0127C3233.03 26.0125 3271.55 4.22936e-05 3321.61 0C3371.67 0 3408.48 24.8223 3446.24 24.8223C3484 24.8222 3499.73 0 3570.87 0Z" fill="#FDFCFA"/>
</g>
</g>
<defs>
<filter id="filter0_i_299_3966" x="-163" y="0" width="3902" height="155" filterUnits="userSpaceOnUse" color-interpolation-filters="sRGB">
<feFlood flood-opacity="0" result="BackgroundImageFix"/>
<feBlend mode="normal" in="SourceGraphic" in2="BackgroundImageFix" result="shape"/>
<feColorMatrix in="SourceAlpha" type="matrix" values="0 0 0 0 0 0 0 0 0 0 0 0 0 0 0 0 0 0 127 0" result="hardAlpha"/>
<feOffset dy="4"/>
<feGaussianBlur stdDeviation="2"/>
<feComposite in2="hardAlpha" operator="arithmetic" k2="-1" k3="1"/>
<feColorMatrix type="matrix" values="0 0 0 0 0.504639 0 0 0 0 0.0447605 0 0 0 0 0.0447605 0 0 0 0.09 0"/>
<feBlend mode="normal" in2="shape" result="effect1_innerShadow_299_3966"/>
</filter>
<clipPath id="clip0_299_3966">
<rect width="3593" height="44" fill="white"/>
</clipPath>
</defs>
</svg>
