<svg width="3593" height="44" viewBox="0 0 3593 44" fill="none" xmlns="http://www.w3.org/2000/svg">
<g clip-path="url(#clip0_323_1588)">
<g filter="url(#filter0_i_323_1588)">
<path d="M3568.87 0C3640.01 0.000154669 3737 33.8026 3737 75.5C3737 117.197 3640.01 151 3568.87 151C3497.73 151 3482 126.178 3444.24 126.178C3406.48 126.178 3369.67 151 3319.61 151C3269.55 151 3231.03 124.988 3192.63 124.987C3154.23 124.987 3118.36 151 3065.65 151C3012.94 151 2971.91 121.087 2931.61 121.087C2891.31 121.087 2848.72 151 2797.58 151C2746.43 151 2713.28 127.873 2676.47 127.873C2639.66 127.873 2605.49 151 2555.37 151C2505.25 151 2464.21 123.103 2424.86 123.103C2385.51 123.103 2345.4 151 2294.35 151C2243.31 151 2207.49 126.178 2169.72 126.178C2131.96 126.178 2095.16 151 2045.09 151C1995.03 151 1956.51 124.987 1918.11 124.987C1909.82 124.987 1902.53 126.202 1895.48 128.106C1885.85 132.174 1875.43 135.798 1864.61 138.896C1847.08 145.084 1825.35 151 1791.13 151C1789.76 151 1788.37 150.986 1786.98 150.961C1785.6 150.986 1784.23 151 1782.87 151C1747.29 151 1725.57 144.792 1708.03 138.585C1698.82 135.91 1689.92 132.855 1681.57 129.469C1674.33 127.473 1666.86 126.178 1658.24 126.178C1620.48 126.178 1583.67 151 1533.61 151C1483.55 151 1445.03 124.988 1406.63 124.987C1368.23 124.987 1332.36 151 1279.65 151C1226.94 151 1185.91 121.087 1145.61 121.087C1105.31 121.087 1062.72 151 1011.58 151C960.433 151 927.282 127.873 890.473 127.873C853.664 127.873 819.487 151 769.37 151C719.253 151 678.211 123.103 638.862 123.103C599.513 123.103 559.4 151 508.354 151C457.308 151 421.487 126.178 383.725 126.178C345.962 126.178 309.156 151 259.095 151C209.034 151 170.511 124.987 132.113 124.987C93.7157 124.987 76.9099 151 5.13281 151C-66.6447 151 -163 117.197 -163 75.5C-163 33.8025 -66.6447 0 5.13281 0C76.9098 0.000106914 93.7158 26.0126 132.113 26.0127C170.511 26.0127 209.034 0 259.095 0C309.156 6.05278e-05 345.962 24.8223 383.725 24.8223C421.487 24.8221 457.308 7.91621e-05 508.354 0C559.4 0 599.513 27.8965 638.862 27.8965C678.211 27.8964 719.253 0.000113262 769.37 0C819.487 0 853.664 23.1269 890.473 23.127C927.282 23.127 960.433 0 1011.58 0C1062.72 4.75994e-05 1105.31 29.9129 1145.61 29.9131C1185.91 29.9131 1226.94 0 1279.65 0C1332.35 8.03261e-05 1368.23 26.0127 1406.63 26.0127C1445.03 26.0125 1483.55 4.22936e-05 1533.61 0C1583.67 0 1620.48 24.8223 1658.24 24.8223C1666.86 24.8222 1674.33 23.5258 1681.58 21.5293C1689.92 18.1438 1698.82 15.0885 1708.03 12.4141C1725.57 6.20736 1747.29 0 1782.87 0C1784.23 2.96169e-06 1785.6 0.0134765 1786.98 0.0380859C1788.37 0.0134738 1789.76 0 1791.13 0C1825.36 5.09815e-05 1847.09 5.91581 1864.62 12.1045C1875.43 15.2023 1885.85 18.8257 1895.48 22.8926C1902.53 24.7967 1909.82 26.0127 1918.11 26.0127C1956.51 26.0127 1995.03 0 2045.09 0C2095.16 6.05278e-05 2131.96 24.8223 2169.72 24.8223C2207.49 24.8221 2243.31 7.91621e-05 2294.35 0C2345.4 0 2385.51 27.8965 2424.86 27.8965C2464.21 27.8964 2505.25 0.000113262 2555.37 0C2605.49 0 2639.66 23.1269 2676.47 23.127C2713.28 23.127 2746.43 0 2797.58 0C2848.72 4.75994e-05 2891.31 29.9129 2931.61 29.9131C2971.91 29.9131 3012.94 0 3065.65 0C3118.35 8.03261e-05 3154.23 26.0127 3192.63 26.0127C3231.03 26.0125 3269.55 4.22936e-05 3319.61 0C3369.67 0 3406.48 24.8223 3444.24 24.8223C3482 24.8222 3497.73 0 3568.87 0Z" fill="white"/>
</g>
</g>
<defs>
<filter id="filter0_i_323_1588" x="-163" y="0" width="3900" height="155" filterUnits="userSpaceOnUse" color-interpolation-filters="sRGB">
<feFlood flood-opacity="0" result="BackgroundImageFix"/>
<feBlend mode="normal" in="SourceGraphic" in2="BackgroundImageFix" result="shape"/>
<feColorMatrix in="SourceAlpha" type="matrix" values="0 0 0 0 0 0 0 0 0 0 0 0 0 0 0 0 0 0 127 0" result="hardAlpha"/>
<feOffset dy="4"/>
<feGaussianBlur stdDeviation="2"/>
<feComposite in2="hardAlpha" operator="arithmetic" k2="-1" k3="1"/>
<feColorMatrix type="matrix" values="0 0 0 0 0.504639 0 0 0 0 0.0447605 0 0 0 0 0.0447605 0 0 0 0.09 0"/>
<feBlend mode="normal" in2="shape" result="effect1_innerShadow_323_1588"/>
</filter>
<clipPath id="clip0_323_1588">
<rect width="3593" height="44" fill="white"/>
</clipPath>
</defs>
</svg>
