<svg width="55" height="55" viewBox="0 0 55 55" fill="none" xmlns="http://www.w3.org/2000/svg">
<g opacity="0.68">
<path d="M26.4219 5.04749V9.95094" stroke="#BEE2BA" stroke-width="4" stroke-miterlimit="2" stroke-linecap="round" stroke-linejoin="round"/>
<path d="M11.126 10.9318L14.0864 14.3642" stroke="#BEE2BA" stroke-width="4" stroke-miterlimit="2" stroke-linecap="round" stroke-linejoin="round"/>
<path d="M2.73828 24.6614L7.67227 25.6421" stroke="#BEE2BA" stroke-width="4" stroke-miterlimit="2" stroke-linecap="round" stroke-linejoin="round"/>
<path d="M5.69922 40.8427L9.64641 38.391" stroke="#BEE2BA" stroke-width="4" stroke-miterlimit="2" stroke-linecap="round" stroke-linejoin="round"/>
<path d="M18.0332 51.6304L20.0068 47.2173" stroke="#BEE2BA" stroke-width="4" stroke-miterlimit="2" stroke-linecap="round" stroke-linejoin="round"/>
<path d="M34.8095 51.6304L32.8359 47.2173" stroke="#BEE2BA" stroke-width="4" stroke-miterlimit="2" stroke-linecap="round" stroke-linejoin="round"/>
<path d="M47.1445 40.8427L43.1973 38.391" stroke="#BEE2BA" stroke-width="4" stroke-miterlimit="2" stroke-linecap="round" stroke-linejoin="round"/>
<path d="M50.1047 24.6614L45.6641 25.6421" stroke="#BEE2BA" stroke-width="4" stroke-miterlimit="2" stroke-linecap="round" stroke-linejoin="round"/>
<path d="M41.7163 10.9318L38.7559 14.3642" stroke="#BEE2BA" stroke-width="4" stroke-miterlimit="2" stroke-linecap="round" stroke-linejoin="round"/>
<path d="M26.3711 17.3805V19.7622" stroke="#F8C4BB" stroke-width="2" stroke-miterlimit="2" stroke-linecap="round" stroke-linejoin="round"/>
<path d="M18.8379 20.2385L20.296 21.9057" stroke="#F8C4BB" stroke-width="2" stroke-miterlimit="2" stroke-linecap="round" stroke-linejoin="round"/>
<path d="M14.7061 26.9072L17.1362 27.3836" stroke="#F8C4BB" stroke-width="2" stroke-miterlimit="2" stroke-linecap="round" stroke-linejoin="round"/>
<path d="M16.1641 34.7668L18.1082 33.5759" stroke="#F8C4BB" stroke-width="2" stroke-miterlimit="2" stroke-linecap="round" stroke-linejoin="round"/>
<path d="M22.2393 40.0064L23.2113 37.8629" stroke="#F8C4BB" stroke-width="2" stroke-miterlimit="2" stroke-linecap="round" stroke-linejoin="round"/>
<path d="M30.5023 40.0064L29.5303 37.8629" stroke="#F8C4BB" stroke-width="2" stroke-miterlimit="2" stroke-linecap="round" stroke-linejoin="round"/>
<path d="M36.5779 34.7668L34.6338 33.5759" stroke="#F8C4BB" stroke-width="2" stroke-miterlimit="2" stroke-linecap="round" stroke-linejoin="round"/>
<path d="M38.0358 26.9072L35.8486 27.3836" stroke="#F8C4BB" stroke-width="2" stroke-miterlimit="2" stroke-linecap="round" stroke-linejoin="round"/>
<path d="M33.9044 20.2385L32.4463 21.9057" stroke="#F8C4BB" stroke-width="2" stroke-miterlimit="2" stroke-linecap="round" stroke-linejoin="round"/>
</g>
</svg>
