<svg width="92" height="104" viewBox="0 0 92 104" fill="none" xmlns="http://www.w3.org/2000/svg">
<g clip-path="url(#clip0_360_1589)">
<path d="M83.9948 10.9371L81.6324 15.9741L79.5269 14.9141L81.8709 9.8535L76.5287 11.1198L76 8.77465L81.3456 7.53191L77.0585 4.02535L78.5605 2.20368L82.7969 5.60413L82.813 0L85.195 0.00235814L85.21 5.5888L89.4717 2.16595L90.9507 4.02535L86.621 7.5213L92 8.77937L91.4356 11.1328L86.1038 9.87708L87.7797 13.4049L88.472 14.9436L86.3814 16L83.9948 10.9371Z" fill="#BEE2BA"/>
</g>
<path d="M18.0684 70.3955V73.6942" stroke="#F8C4BB" stroke-width="2" stroke-miterlimit="2" stroke-linecap="round" stroke-linejoin="round"/>
<path d="M7.6084 74.354L9.63287 76.6631" stroke="#F8C4BB" stroke-width="2" stroke-miterlimit="2" stroke-linecap="round" stroke-linejoin="round"/>
<path d="M1.87305 83.5903L5.24717 84.2501" stroke="#F8C4BB" stroke-width="2" stroke-miterlimit="2" stroke-linecap="round" stroke-linejoin="round"/>
<path d="M3.89746 94.476L6.59676 92.8267" stroke="#F8C4BB" stroke-width="2" stroke-miterlimit="2" stroke-linecap="round" stroke-linejoin="round"/>
<path d="M12.332 101.733L13.6817 98.7644" stroke="#F8C4BB" stroke-width="2" stroke-miterlimit="2" stroke-linecap="round" stroke-linejoin="round"/>
<path d="M23.8047 101.733L22.4551 98.7644" stroke="#F8C4BB" stroke-width="2" stroke-miterlimit="2" stroke-linecap="round" stroke-linejoin="round"/>
<path d="M32.2403 94.476L29.541 92.8267" stroke="#F8C4BB" stroke-width="2" stroke-miterlimit="2" stroke-linecap="round" stroke-linejoin="round"/>
<path d="M34.2643 83.5903L31.2275 84.2501" stroke="#F8C4BB" stroke-width="2" stroke-miterlimit="2" stroke-linecap="round" stroke-linejoin="round"/>
<path d="M28.5284 74.354L26.5039 76.6631" stroke="#F8C4BB" stroke-width="2" stroke-miterlimit="2" stroke-linecap="round" stroke-linejoin="round"/>
<defs>
<clipPath id="clip0_360_1589">
<rect width="16" height="16" fill="white" transform="translate(76)"/>
</clipPath>
</defs>
</svg>
