<svg width="1070" height="300" viewBox="0 0 1070 300" fill="none" xmlns="http://www.w3.org/2000/svg">
<g clip-path="url(#clip0_269_2237)">
<rect x="541" y="139" width="46" height="10" transform="rotate(90 541 139)" fill="#F8C4BB"/>
</g>
<g filter="url(#filter0_d_269_2237)">
<rect x="324" y="163" width="110" height="103" rx="16" fill="white"/>
<rect x="324.5" y="163.5" width="109" height="102" rx="15.5" stroke="#D8D8D8"/>
<path d="M378.024 213.084L376.92 213.852C376.072 212.476 374.136 210.364 372.52 208.876L373.528 208.236C375.144 209.676 377.128 211.708 378.024 213.084ZM368.2 208.268L369.416 208.716C368.248 210.668 366.488 212.652 364.92 213.948C364.744 213.692 364.28 213.18 363.992 212.924C365.544 211.788 367.192 210.028 368.2 208.268ZM373.8 212.54L375.048 212.908C374.296 215.052 373.272 216.828 371.944 218.268C373.64 219.772 375.784 220.86 378.376 221.468C378.088 221.74 377.72 222.284 377.528 222.636C374.872 221.964 372.744 220.796 371.016 219.196C369.272 220.796 367.064 221.932 364.392 222.764C364.232 222.46 363.864 221.9 363.608 221.612C366.296 220.892 368.456 219.82 370.168 218.3C368.856 216.844 367.88 215.068 367.112 213.052L368.28 212.7C368.92 214.492 369.848 216.06 371.064 217.388C372.248 216.076 373.16 214.476 373.8 212.54ZM385.32 211.324L386.024 210.604C387.112 211.132 388.488 211.964 389.16 212.604L388.44 213.42C387.784 212.764 386.44 211.9 385.32 211.324ZM388.84 217.9L388.056 218.684C387.384 217.932 385.944 216.924 384.696 216.3L385.432 215.596C386.68 216.188 388.136 217.148 388.84 217.9ZM382.376 219.02H390.68C390.824 218.028 390.952 216.716 391.064 214.988H383.048C382.824 216.46 382.6 217.852 382.376 219.02ZM391.304 209.98H383.752C383.592 211.212 383.4 212.556 383.208 213.868H391.112C391.192 212.716 391.24 211.436 391.304 209.98ZM394.04 214.988H392.248C392.152 216.684 392.024 218.012 391.912 219.02H393.576V220.108H391.736C391.56 221.084 391.368 221.628 391.096 221.948C390.728 222.46 390.36 222.636 389.768 222.684C389.208 222.748 388.264 222.716 387.368 222.652C387.336 222.332 387.208 221.884 387.032 221.58C388.024 221.66 388.904 221.676 389.304 221.676C389.608 221.676 389.8 221.628 389.992 221.372C390.168 221.18 390.344 220.78 390.488 220.108H380.936C381.224 218.732 381.528 216.908 381.832 214.988H379.96V213.868H382.008C382.264 212.14 382.488 210.38 382.664 208.892H392.52C392.52 208.892 392.52 209.404 392.52 209.564C392.456 211.196 392.392 212.636 392.312 213.868H394.04V214.988Z" fill="#444444"/>
<path d="M378.024 213.084L376.92 213.852C376.072 212.476 374.136 210.364 372.52 208.876L373.528 208.236C375.144 209.676 377.128 211.708 378.024 213.084ZM368.2 208.268L369.416 208.716C368.248 210.668 366.488 212.652 364.92 213.948C364.744 213.692 364.28 213.18 363.992 212.924C365.544 211.788 367.192 210.028 368.2 208.268ZM373.8 212.54L375.048 212.908C374.296 215.052 373.272 216.828 371.944 218.268C373.64 219.772 375.784 220.86 378.376 221.468C378.088 221.74 377.72 222.284 377.528 222.636C374.872 221.964 372.744 220.796 371.016 219.196C369.272 220.796 367.064 221.932 364.392 222.764C364.232 222.46 363.864 221.9 363.608 221.612C366.296 220.892 368.456 219.82 370.168 218.3C368.856 216.844 367.88 215.068 367.112 213.052L368.28 212.7C368.92 214.492 369.848 216.06 371.064 217.388C372.248 216.076 373.16 214.476 373.8 212.54ZM385.32 211.324L386.024 210.604C387.112 211.132 388.488 211.964 389.16 212.604L388.44 213.42C387.784 212.764 386.44 211.9 385.32 211.324ZM388.84 217.9L388.056 218.684C387.384 217.932 385.944 216.924 384.696 216.3L385.432 215.596C386.68 216.188 388.136 217.148 388.84 217.9ZM382.376 219.02H390.68C390.824 218.028 390.952 216.716 391.064 214.988H383.048C382.824 216.46 382.6 217.852 382.376 219.02ZM391.304 209.98H383.752C383.592 211.212 383.4 212.556 383.208 213.868H391.112C391.192 212.716 391.24 211.436 391.304 209.98ZM394.04 214.988H392.248C392.152 216.684 392.024 218.012 391.912 219.02H393.576V220.108H391.736C391.56 221.084 391.368 221.628 391.096 221.948C390.728 222.46 390.36 222.636 389.768 222.684C389.208 222.748 388.264 222.716 387.368 222.652C387.336 222.332 387.208 221.884 387.032 221.58C388.024 221.66 388.904 221.676 389.304 221.676C389.608 221.676 389.8 221.628 389.992 221.372C390.168 221.18 390.344 220.78 390.488 220.108H380.936C381.224 218.732 381.528 216.908 381.832 214.988H379.96V213.868H382.008C382.264 212.14 382.488 210.38 382.664 208.892H392.52C392.52 208.892 392.52 209.404 392.52 209.564C392.456 211.196 392.392 212.636 392.312 213.868H394.04V214.988Z" fill="black" fill-opacity="0.2"/>
</g>
<g clip-path="url(#clip1_269_2237)">
<path d="M449.768 219.62H464.296V220.916H449.768V219.62Z" fill="black"/>
<rect x="434" y="198.5" width="46" height="10" fill="#F8C4BB"/>
</g>
<g filter="url(#filter1_d_269_2237)">
<rect x="480" y="163" width="110" height="103" rx="16" fill="white"/>
<rect x="480.5" y="163.5" width="109" height="102" rx="15.5" stroke="#D8D8D8"/>
<path d="M521.72 218.972V218.028H525.368V218.972H521.72ZM524.104 211.868V209.82H523V211.868H524.104ZM526.024 215.58V212.892H524.92V215.356C524.92 215.58 524.952 215.596 525.16 215.596H525.784C525.928 215.596 525.992 215.596 526.024 215.58ZM521.064 220.572H526.024V216.396H525.912H525.08C524.36 216.396 524.152 216.204 524.152 215.372V212.892H523.016V214.092C523.016 215.084 522.76 216.3 521.64 217.164C521.496 217.02 521.256 216.78 521.064 216.684V220.572ZM522.264 212.892H521.064V216.652C522.088 215.868 522.264 214.892 522.264 214.076V212.892ZM519.8 209.82V208.796H527.336V209.82H525.08V211.868H527.016V222.46H526.024V221.548H521.064V222.684H520.104V211.868H522.04V209.82H519.8ZM530.024 221.452H532.424C533.128 221.452 533.256 221.052 533.336 218.748C533.608 218.956 534.088 219.164 534.424 219.244C534.28 221.836 533.928 222.572 532.52 222.572H529.896C528.456 222.572 528.008 222.188 528.008 220.748V214.028H532.68V209.98H527.944V208.844H533.832V215.164H529.176V220.764C529.176 221.34 529.32 221.452 530.024 221.452ZM539.304 208.172L540.408 208.508C539.96 209.724 539.416 210.956 538.776 212.092V222.716H537.64V213.9C537.192 214.556 536.712 215.164 536.232 215.692C536.12 215.404 535.768 214.796 535.56 214.524C537.048 212.972 538.456 210.588 539.304 208.172ZM542.056 213.836H544.536V212.268H542.056V213.836ZM542.056 209.82V211.372H544.536V209.82H542.056ZM548.152 211.372V209.82H545.608V211.372H548.152ZM548.152 213.836V212.268H545.608V213.836H548.152ZM549.96 216.028V221.484C549.96 222.108 549.832 222.396 549.368 222.572C548.888 222.748 548.104 222.764 546.888 222.748C546.84 222.444 546.696 222.028 546.552 221.74C547.48 221.788 548.312 221.772 548.536 221.756C548.776 221.74 548.856 221.692 548.856 221.468V217.036H545.608V219.052L547.064 218.94C546.872 218.54 546.68 218.172 546.504 217.836L547.192 217.596C547.768 218.572 548.36 219.852 548.6 220.636L547.88 220.94C547.784 220.62 547.624 220.236 547.448 219.82C545.528 220.028 543.56 220.252 542.056 220.428L541.832 219.388C542.584 219.324 543.512 219.244 544.536 219.164V217.036H541.336V222.732H540.2V217.036H539.672V216.028H540.2V215.372H541.336V216.028H544.536V214.78H540.936V208.876H549.304V214.78H545.608V216.028H549.96Z" fill="#444444"/>
<path d="M521.72 218.972V218.028H525.368V218.972H521.72ZM524.104 211.868V209.82H523V211.868H524.104ZM526.024 215.58V212.892H524.92V215.356C524.92 215.58 524.952 215.596 525.16 215.596H525.784C525.928 215.596 525.992 215.596 526.024 215.58ZM521.064 220.572H526.024V216.396H525.912H525.08C524.36 216.396 524.152 216.204 524.152 215.372V212.892H523.016V214.092C523.016 215.084 522.76 216.3 521.64 217.164C521.496 217.02 521.256 216.78 521.064 216.684V220.572ZM522.264 212.892H521.064V216.652C522.088 215.868 522.264 214.892 522.264 214.076V212.892ZM519.8 209.82V208.796H527.336V209.82H525.08V211.868H527.016V222.46H526.024V221.548H521.064V222.684H520.104V211.868H522.04V209.82H519.8ZM530.024 221.452H532.424C533.128 221.452 533.256 221.052 533.336 218.748C533.608 218.956 534.088 219.164 534.424 219.244C534.28 221.836 533.928 222.572 532.52 222.572H529.896C528.456 222.572 528.008 222.188 528.008 220.748V214.028H532.68V209.98H527.944V208.844H533.832V215.164H529.176V220.764C529.176 221.34 529.32 221.452 530.024 221.452ZM539.304 208.172L540.408 208.508C539.96 209.724 539.416 210.956 538.776 212.092V222.716H537.64V213.9C537.192 214.556 536.712 215.164 536.232 215.692C536.12 215.404 535.768 214.796 535.56 214.524C537.048 212.972 538.456 210.588 539.304 208.172ZM542.056 213.836H544.536V212.268H542.056V213.836ZM542.056 209.82V211.372H544.536V209.82H542.056ZM548.152 211.372V209.82H545.608V211.372H548.152ZM548.152 213.836V212.268H545.608V213.836H548.152ZM549.96 216.028V221.484C549.96 222.108 549.832 222.396 549.368 222.572C548.888 222.748 548.104 222.764 546.888 222.748C546.84 222.444 546.696 222.028 546.552 221.74C547.48 221.788 548.312 221.772 548.536 221.756C548.776 221.74 548.856 221.692 548.856 221.468V217.036H545.608V219.052L547.064 218.94C546.872 218.54 546.68 218.172 546.504 217.836L547.192 217.596C547.768 218.572 548.36 219.852 548.6 220.636L547.88 220.94C547.784 220.62 547.624 220.236 547.448 219.82C545.528 220.028 543.56 220.252 542.056 220.428L541.832 219.388C542.584 219.324 543.512 219.244 544.536 219.164V217.036H541.336V222.732H540.2V217.036H539.672V216.028H540.2V215.372H541.336V216.028H544.536V214.78H540.936V208.876H549.304V214.78H545.608V216.028H549.96Z" fill="black" fill-opacity="0.2"/>
</g>
<g filter="url(#filter2_d_269_2237)">
<rect x="12" y="35" width="110" height="103" rx="16" fill="white"/>
<rect x="12.5" y="35.5" width="109" height="102" rx="15.5" stroke="#D8D8D8"/>
<path d="M46.12 63.42C46.12 60.3 47.384 57.756 49.304 55.804L50.264 56.3C48.424 58.204 47.288 60.572 47.288 63.42C47.288 66.268 48.424 68.636 50.264 70.54L49.304 71.036C47.384 69.084 46.12 66.54 46.12 63.42ZM65.288 59.66V69.164C65.288 69.916 65.128 70.3 64.6 70.508C64.056 70.7 63.144 70.7 61.784 70.7C61.736 70.364 61.56 69.82 61.384 69.5C62.424 69.532 63.416 69.532 63.736 69.516C64.024 69.5 64.088 69.42 64.088 69.164V60.828H60.008C60.616 63.276 61.816 65.036 63.912 65.932C63.656 66.188 63.272 66.652 63.08 66.972C60.984 65.932 59.752 64.14 59.064 61.74C58.392 64.188 57.08 65.964 54.952 67.052C54.776 66.78 54.408 66.332 54.152 66.108C56.296 65.068 57.608 63.34 58.152 60.828H53.992V70.716H52.808V59.66H58.632C58.552 59.1 58.488 58.508 58.456 57.884H55.576V56.828H59.464C59.512 57.836 59.608 58.78 59.752 59.66H65.288ZM74.008 59.676H70.952C70.728 60.3 70.472 60.908 70.184 61.484C71.08 62.236 72.12 63.196 72.824 63.98C73.336 62.732 73.736 61.308 74.008 59.676ZM74.344 58.556L74.584 58.492L75.4 58.764C74.568 65.036 72.104 68.796 68.712 70.668C68.52 70.364 68.04 69.9 67.736 69.692C69.592 68.732 71.144 67.244 72.28 65.132C71.672 64.348 70.632 63.308 69.688 62.444C69.368 63.004 69.032 63.484 68.68 63.932C68.488 63.724 67.96 63.34 67.704 63.18C69.16 61.532 70.168 58.892 70.744 56.108L71.912 56.332C71.736 57.1 71.56 57.836 71.336 58.556H74.344ZM77.992 61.276L78.424 60.924C79.8 62.012 81.528 63.532 82.376 64.54L81.432 65.356C80.712 64.444 79.256 63.1 77.992 62.028V70.716H76.776V56.124H77.992V61.276ZM87.88 63.42C87.88 66.54 86.616 69.084 84.696 71.036L83.736 70.54C85.576 68.636 86.712 66.268 86.712 63.42C86.712 60.572 85.576 58.204 83.736 56.3L84.696 55.804C86.616 57.756 87.88 60.3 87.88 63.42ZM62.76 89.164H55.384V90.636H62.76V89.164ZM55.384 92.972H62.76V91.5H55.384V92.972ZM54.184 94.764V88.252H64.008V94.7H62.76V93.916H55.384V94.764H54.184ZM55.048 83.788L55.768 83.372C56.424 83.98 57.128 84.844 57.432 85.436L56.664 85.932C56.376 85.324 55.672 84.428 55.048 83.788ZM61.144 85.98L60.392 85.596C60.92 85.02 61.624 84.06 62.008 83.42L62.888 83.836C62.36 84.604 61.688 85.436 61.144 85.98ZM63.752 86.252V83.116H59.528V86.252H63.752ZM54.344 83.116V86.252H58.392V83.116H54.344ZM61.592 82.172H64.984V87.212H53.16V82.172H56.328C56.072 81.708 55.544 80.988 55.08 80.444L56.088 80.06C56.568 80.572 57.16 81.276 57.4 81.772L56.456 82.172H60.312C60.824 81.532 61.432 80.652 61.768 80.012L62.968 80.38C62.536 80.988 62.024 81.644 61.592 82.172ZM72.104 82.22L71.128 82.828C70.824 82.252 70.184 81.324 69.608 80.652L70.52 80.14C71.144 80.764 71.784 81.628 72.104 82.22ZM73.8 88.876L73.064 89.852C72.728 89.388 72.008 88.556 71.4 87.852V94.716H70.232V88.204C69.512 88.924 68.76 89.548 68.024 90.044C67.928 89.708 67.656 89.116 67.48 88.892C69.24 87.836 71.096 85.932 72.12 83.948H67.912V82.86H72.744L72.968 82.812L73.608 83.276C73.128 84.476 72.424 85.628 71.592 86.684C72.232 87.26 73.464 88.54 73.8 88.876ZM75.56 90.028V93.1H79.816V90.028H75.56ZM79.816 82.124H75.56V84.908H79.816V82.124ZM79.816 88.94V85.996H75.56V88.94H79.816ZM80.984 93.1H82.328V94.22H72.52V93.1H74.408V81.02H80.984V93.1ZM66.024 109.084L64.92 109.852C64.072 108.476 62.136 106.364 60.52 104.876L61.528 104.236C63.144 105.676 65.128 107.708 66.024 109.084ZM56.2 104.268L57.416 104.716C56.248 106.668 54.488 108.652 52.92 109.948C52.744 109.692 52.28 109.18 51.992 108.924C53.544 107.788 55.192 106.028 56.2 104.268ZM61.8 108.54L63.048 108.908C62.296 111.052 61.272 112.828 59.944 114.268C61.64 115.772 63.784 116.86 66.376 117.468C66.088 117.74 65.72 118.284 65.528 118.636C62.872 117.964 60.744 116.796 59.016 115.196C57.272 116.796 55.064 117.932 52.392 118.764C52.232 118.46 51.864 117.9 51.608 117.612C54.296 116.892 56.456 115.82 58.168 114.3C56.856 112.844 55.88 111.068 55.112 109.052L56.28 108.7C56.92 110.492 57.848 112.06 59.064 113.388C60.248 112.076 61.16 110.476 61.8 108.54ZM73.32 107.324L74.024 106.604C75.112 107.132 76.488 107.964 77.16 108.604L76.44 109.42C75.784 108.764 74.44 107.9 73.32 107.324ZM76.84 113.9L76.056 114.684C75.384 113.932 73.944 112.924 72.696 112.3L73.432 111.596C74.68 112.188 76.136 113.148 76.84 113.9ZM70.376 115.02H78.68C78.824 114.028 78.952 112.716 79.064 110.988H71.048C70.824 112.46 70.6 113.852 70.376 115.02ZM79.304 105.98H71.752C71.592 107.212 71.4 108.556 71.208 109.868H79.112C79.192 108.716 79.24 107.436 79.304 105.98ZM82.04 110.988H80.248C80.152 112.684 80.024 114.012 79.912 115.02H81.576V116.108H79.736C79.56 117.084 79.368 117.628 79.096 117.948C78.728 118.46 78.36 118.636 77.768 118.684C77.208 118.748 76.264 118.716 75.368 118.652C75.336 118.332 75.208 117.884 75.032 117.58C76.024 117.66 76.904 117.676 77.304 117.676C77.608 117.676 77.8 117.628 77.992 117.372C78.168 117.18 78.344 116.78 78.488 116.108H68.936C69.224 114.732 69.528 112.908 69.832 110.988H67.96V109.868H70.008C70.264 108.14 70.488 106.38 70.664 104.892H80.52C80.52 104.892 80.52 105.404 80.52 105.564C80.456 107.196 80.392 108.636 80.312 109.868H82.04V110.988Z" fill="#444444"/>
<path d="M46.12 63.42C46.12 60.3 47.384 57.756 49.304 55.804L50.264 56.3C48.424 58.204 47.288 60.572 47.288 63.42C47.288 66.268 48.424 68.636 50.264 70.54L49.304 71.036C47.384 69.084 46.12 66.54 46.12 63.42ZM65.288 59.66V69.164C65.288 69.916 65.128 70.3 64.6 70.508C64.056 70.7 63.144 70.7 61.784 70.7C61.736 70.364 61.56 69.82 61.384 69.5C62.424 69.532 63.416 69.532 63.736 69.516C64.024 69.5 64.088 69.42 64.088 69.164V60.828H60.008C60.616 63.276 61.816 65.036 63.912 65.932C63.656 66.188 63.272 66.652 63.08 66.972C60.984 65.932 59.752 64.14 59.064 61.74C58.392 64.188 57.08 65.964 54.952 67.052C54.776 66.78 54.408 66.332 54.152 66.108C56.296 65.068 57.608 63.34 58.152 60.828H53.992V70.716H52.808V59.66H58.632C58.552 59.1 58.488 58.508 58.456 57.884H55.576V56.828H59.464C59.512 57.836 59.608 58.78 59.752 59.66H65.288ZM74.008 59.676H70.952C70.728 60.3 70.472 60.908 70.184 61.484C71.08 62.236 72.12 63.196 72.824 63.98C73.336 62.732 73.736 61.308 74.008 59.676ZM74.344 58.556L74.584 58.492L75.4 58.764C74.568 65.036 72.104 68.796 68.712 70.668C68.52 70.364 68.04 69.9 67.736 69.692C69.592 68.732 71.144 67.244 72.28 65.132C71.672 64.348 70.632 63.308 69.688 62.444C69.368 63.004 69.032 63.484 68.68 63.932C68.488 63.724 67.96 63.34 67.704 63.18C69.16 61.532 70.168 58.892 70.744 56.108L71.912 56.332C71.736 57.1 71.56 57.836 71.336 58.556H74.344ZM77.992 61.276L78.424 60.924C79.8 62.012 81.528 63.532 82.376 64.54L81.432 65.356C80.712 64.444 79.256 63.1 77.992 62.028V70.716H76.776V56.124H77.992V61.276ZM87.88 63.42C87.88 66.54 86.616 69.084 84.696 71.036L83.736 70.54C85.576 68.636 86.712 66.268 86.712 63.42C86.712 60.572 85.576 58.204 83.736 56.3L84.696 55.804C86.616 57.756 87.88 60.3 87.88 63.42ZM62.76 89.164H55.384V90.636H62.76V89.164ZM55.384 92.972H62.76V91.5H55.384V92.972ZM54.184 94.764V88.252H64.008V94.7H62.76V93.916H55.384V94.764H54.184ZM55.048 83.788L55.768 83.372C56.424 83.98 57.128 84.844 57.432 85.436L56.664 85.932C56.376 85.324 55.672 84.428 55.048 83.788ZM61.144 85.98L60.392 85.596C60.92 85.02 61.624 84.06 62.008 83.42L62.888 83.836C62.36 84.604 61.688 85.436 61.144 85.98ZM63.752 86.252V83.116H59.528V86.252H63.752ZM54.344 83.116V86.252H58.392V83.116H54.344ZM61.592 82.172H64.984V87.212H53.16V82.172H56.328C56.072 81.708 55.544 80.988 55.08 80.444L56.088 80.06C56.568 80.572 57.16 81.276 57.4 81.772L56.456 82.172H60.312C60.824 81.532 61.432 80.652 61.768 80.012L62.968 80.38C62.536 80.988 62.024 81.644 61.592 82.172ZM72.104 82.22L71.128 82.828C70.824 82.252 70.184 81.324 69.608 80.652L70.52 80.14C71.144 80.764 71.784 81.628 72.104 82.22ZM73.8 88.876L73.064 89.852C72.728 89.388 72.008 88.556 71.4 87.852V94.716H70.232V88.204C69.512 88.924 68.76 89.548 68.024 90.044C67.928 89.708 67.656 89.116 67.48 88.892C69.24 87.836 71.096 85.932 72.12 83.948H67.912V82.86H72.744L72.968 82.812L73.608 83.276C73.128 84.476 72.424 85.628 71.592 86.684C72.232 87.26 73.464 88.54 73.8 88.876ZM75.56 90.028V93.1H79.816V90.028H75.56ZM79.816 82.124H75.56V84.908H79.816V82.124ZM79.816 88.94V85.996H75.56V88.94H79.816ZM80.984 93.1H82.328V94.22H72.52V93.1H74.408V81.02H80.984V93.1ZM66.024 109.084L64.92 109.852C64.072 108.476 62.136 106.364 60.52 104.876L61.528 104.236C63.144 105.676 65.128 107.708 66.024 109.084ZM56.2 104.268L57.416 104.716C56.248 106.668 54.488 108.652 52.92 109.948C52.744 109.692 52.28 109.18 51.992 108.924C53.544 107.788 55.192 106.028 56.2 104.268ZM61.8 108.54L63.048 108.908C62.296 111.052 61.272 112.828 59.944 114.268C61.64 115.772 63.784 116.86 66.376 117.468C66.088 117.74 65.72 118.284 65.528 118.636C62.872 117.964 60.744 116.796 59.016 115.196C57.272 116.796 55.064 117.932 52.392 118.764C52.232 118.46 51.864 117.9 51.608 117.612C54.296 116.892 56.456 115.82 58.168 114.3C56.856 112.844 55.88 111.068 55.112 109.052L56.28 108.7C56.92 110.492 57.848 112.06 59.064 113.388C60.248 112.076 61.16 110.476 61.8 108.54ZM73.32 107.324L74.024 106.604C75.112 107.132 76.488 107.964 77.16 108.604L76.44 109.42C75.784 108.764 74.44 107.9 73.32 107.324ZM76.84 113.9L76.056 114.684C75.384 113.932 73.944 112.924 72.696 112.3L73.432 111.596C74.68 112.188 76.136 113.148 76.84 113.9ZM70.376 115.02H78.68C78.824 114.028 78.952 112.716 79.064 110.988H71.048C70.824 112.46 70.6 113.852 70.376 115.02ZM79.304 105.98H71.752C71.592 107.212 71.4 108.556 71.208 109.868H79.112C79.192 108.716 79.24 107.436 79.304 105.98ZM82.04 110.988H80.248C80.152 112.684 80.024 114.012 79.912 115.02H81.576V116.108H79.736C79.56 117.084 79.368 117.628 79.096 117.948C78.728 118.46 78.36 118.636 77.768 118.684C77.208 118.748 76.264 118.716 75.368 118.652C75.336 118.332 75.208 117.884 75.032 117.58C76.024 117.66 76.904 117.676 77.304 117.676C77.608 117.676 77.8 117.628 77.992 117.372C78.168 117.18 78.344 116.78 78.488 116.108H68.936C69.224 114.732 69.528 112.908 69.832 110.988H67.96V109.868H70.008C70.264 108.14 70.488 106.38 70.664 104.892H80.52C80.52 104.892 80.52 105.404 80.52 105.564C80.456 107.196 80.392 108.636 80.312 109.868H82.04V110.988Z" fill="black" fill-opacity="0.2"/>
</g>
<g clip-path="url(#clip2_269_2237)">
<path d="M139.016 86.66H151.016V87.844H139.016V86.66ZM140.04 91.844H149.768V93.044H140.04V91.844ZM138.104 97.364H151.88V98.564H138.104V97.364Z" fill="black"/>
<rect x="122" y="70.5" width="46" height="10" fill="#F8C4BB"/>
</g>
<g filter="url(#filter3_d_269_2237)">
<rect x="168" y="35" width="110" height="103" rx="16" fill="white"/>
<rect x="168.5" y="35.5" width="109" height="102" rx="15.5" stroke="#D8D8D8"/>
<path d="M202.12 63.42C202.12 60.3 203.384 57.756 205.304 55.804L206.264 56.3C204.424 58.204 203.288 60.572 203.288 63.42C203.288 66.268 204.424 68.636 206.264 70.54L205.304 71.036C203.384 69.084 202.12 66.54 202.12 63.42ZM221.288 59.66V69.164C221.288 69.916 221.128 70.3 220.6 70.508C220.056 70.7 219.144 70.7 217.784 70.7C217.736 70.364 217.56 69.82 217.384 69.5C218.424 69.532 219.416 69.532 219.736 69.516C220.024 69.5 220.088 69.42 220.088 69.164V60.828H216.008C216.616 63.276 217.816 65.036 219.912 65.932C219.656 66.188 219.272 66.652 219.08 66.972C216.984 65.932 215.752 64.14 215.064 61.74C214.392 64.188 213.08 65.964 210.952 67.052C210.776 66.78 210.408 66.332 210.152 66.108C212.296 65.068 213.608 63.34 214.152 60.828H209.992V70.716H208.808V59.66H214.632C214.552 59.1 214.488 58.508 214.456 57.884H211.576V56.828H215.464C215.512 57.836 215.608 58.78 215.752 59.66H221.288ZM230.008 59.676H226.952C226.728 60.3 226.472 60.908 226.184 61.484C227.08 62.236 228.12 63.196 228.824 63.98C229.336 62.732 229.736 61.308 230.008 59.676ZM230.344 58.556L230.584 58.492L231.4 58.764C230.568 65.036 228.104 68.796 224.712 70.668C224.52 70.364 224.04 69.9 223.736 69.692C225.592 68.732 227.144 67.244 228.28 65.132C227.672 64.348 226.632 63.308 225.688 62.444C225.368 63.004 225.032 63.484 224.68 63.932C224.488 63.724 223.96 63.34 223.704 63.18C225.16 61.532 226.168 58.892 226.744 56.108L227.912 56.332C227.736 57.1 227.56 57.836 227.336 58.556H230.344ZM233.992 61.276L234.424 60.924C235.8 62.012 237.528 63.532 238.376 64.54L237.432 65.356C236.712 64.444 235.256 63.1 233.992 62.028V70.716H232.776V56.124H233.992V61.276ZM243.88 63.42C243.88 66.54 242.616 69.084 240.696 71.036L239.736 70.54C241.576 68.636 242.712 66.268 242.712 63.42C242.712 60.572 241.576 58.204 239.736 56.3L240.696 55.804C242.616 57.756 243.88 60.3 243.88 63.42ZM226.76 89.164H219.384V90.636H226.76V89.164ZM219.384 92.972H226.76V91.5H219.384V92.972ZM218.184 94.764V88.252H228.008V94.7H226.76V93.916H219.384V94.764H218.184ZM219.048 83.788L219.768 83.372C220.424 83.98 221.128 84.844 221.432 85.436L220.664 85.932C220.376 85.324 219.672 84.428 219.048 83.788ZM225.144 85.98L224.392 85.596C224.92 85.02 225.624 84.06 226.008 83.42L226.888 83.836C226.36 84.604 225.688 85.436 225.144 85.98ZM227.752 86.252V83.116H223.528V86.252H227.752ZM218.344 83.116V86.252H222.392V83.116H218.344ZM225.592 82.172H228.984V87.212H217.16V82.172H220.328C220.072 81.708 219.544 80.988 219.08 80.444L220.088 80.06C220.568 80.572 221.16 81.276 221.4 81.772L220.456 82.172H224.312C224.824 81.532 225.432 80.652 225.768 80.012L226.968 80.38C226.536 80.988 226.024 81.644 225.592 82.172ZM222.024 109.084L220.92 109.852C220.072 108.476 218.136 106.364 216.52 104.876L217.528 104.236C219.144 105.676 221.128 107.708 222.024 109.084ZM212.2 104.268L213.416 104.716C212.248 106.668 210.488 108.652 208.92 109.948C208.744 109.692 208.28 109.18 207.992 108.924C209.544 107.788 211.192 106.028 212.2 104.268ZM217.8 108.54L219.048 108.908C218.296 111.052 217.272 112.828 215.944 114.268C217.64 115.772 219.784 116.86 222.376 117.468C222.088 117.74 221.72 118.284 221.528 118.636C218.872 117.964 216.744 116.796 215.016 115.196C213.272 116.796 211.064 117.932 208.392 118.764C208.232 118.46 207.864 117.9 207.608 117.612C210.296 116.892 212.456 115.82 214.168 114.3C212.856 112.844 211.88 111.068 211.112 109.052L212.28 108.7C212.92 110.492 213.848 112.06 215.064 113.388C216.248 112.076 217.16 110.476 217.8 108.54ZM229.32 107.324L230.024 106.604C231.112 107.132 232.488 107.964 233.16 108.604L232.44 109.42C231.784 108.764 230.44 107.9 229.32 107.324ZM232.84 113.9L232.056 114.684C231.384 113.932 229.944 112.924 228.696 112.3L229.432 111.596C230.68 112.188 232.136 113.148 232.84 113.9ZM226.376 115.02H234.68C234.824 114.028 234.952 112.716 235.064 110.988H227.048C226.824 112.46 226.6 113.852 226.376 115.02ZM235.304 105.98H227.752C227.592 107.212 227.4 108.556 227.208 109.868H235.112C235.192 108.716 235.24 107.436 235.304 105.98ZM238.04 110.988H236.248C236.152 112.684 236.024 114.012 235.912 115.02H237.576V116.108H235.736C235.56 117.084 235.368 117.628 235.096 117.948C234.728 118.46 234.36 118.636 233.768 118.684C233.208 118.748 232.264 118.716 231.368 118.652C231.336 118.332 231.208 117.884 231.032 117.58C232.024 117.66 232.904 117.676 233.304 117.676C233.608 117.676 233.8 117.628 233.992 117.372C234.168 117.18 234.344 116.78 234.488 116.108H224.936C225.224 114.732 225.528 112.908 225.832 110.988H223.96V109.868H226.008C226.264 108.14 226.488 106.38 226.664 104.892H236.52C236.52 104.892 236.52 105.404 236.52 105.564C236.456 107.196 236.392 108.636 236.312 109.868H238.04V110.988Z" fill="#444444"/>
<path d="M202.12 63.42C202.12 60.3 203.384 57.756 205.304 55.804L206.264 56.3C204.424 58.204 203.288 60.572 203.288 63.42C203.288 66.268 204.424 68.636 206.264 70.54L205.304 71.036C203.384 69.084 202.12 66.54 202.12 63.42ZM221.288 59.66V69.164C221.288 69.916 221.128 70.3 220.6 70.508C220.056 70.7 219.144 70.7 217.784 70.7C217.736 70.364 217.56 69.82 217.384 69.5C218.424 69.532 219.416 69.532 219.736 69.516C220.024 69.5 220.088 69.42 220.088 69.164V60.828H216.008C216.616 63.276 217.816 65.036 219.912 65.932C219.656 66.188 219.272 66.652 219.08 66.972C216.984 65.932 215.752 64.14 215.064 61.74C214.392 64.188 213.08 65.964 210.952 67.052C210.776 66.78 210.408 66.332 210.152 66.108C212.296 65.068 213.608 63.34 214.152 60.828H209.992V70.716H208.808V59.66H214.632C214.552 59.1 214.488 58.508 214.456 57.884H211.576V56.828H215.464C215.512 57.836 215.608 58.78 215.752 59.66H221.288ZM230.008 59.676H226.952C226.728 60.3 226.472 60.908 226.184 61.484C227.08 62.236 228.12 63.196 228.824 63.98C229.336 62.732 229.736 61.308 230.008 59.676ZM230.344 58.556L230.584 58.492L231.4 58.764C230.568 65.036 228.104 68.796 224.712 70.668C224.52 70.364 224.04 69.9 223.736 69.692C225.592 68.732 227.144 67.244 228.28 65.132C227.672 64.348 226.632 63.308 225.688 62.444C225.368 63.004 225.032 63.484 224.68 63.932C224.488 63.724 223.96 63.34 223.704 63.18C225.16 61.532 226.168 58.892 226.744 56.108L227.912 56.332C227.736 57.1 227.56 57.836 227.336 58.556H230.344ZM233.992 61.276L234.424 60.924C235.8 62.012 237.528 63.532 238.376 64.54L237.432 65.356C236.712 64.444 235.256 63.1 233.992 62.028V70.716H232.776V56.124H233.992V61.276ZM243.88 63.42C243.88 66.54 242.616 69.084 240.696 71.036L239.736 70.54C241.576 68.636 242.712 66.268 242.712 63.42C242.712 60.572 241.576 58.204 239.736 56.3L240.696 55.804C242.616 57.756 243.88 60.3 243.88 63.42ZM226.76 89.164H219.384V90.636H226.76V89.164ZM219.384 92.972H226.76V91.5H219.384V92.972ZM218.184 94.764V88.252H228.008V94.7H226.76V93.916H219.384V94.764H218.184ZM219.048 83.788L219.768 83.372C220.424 83.98 221.128 84.844 221.432 85.436L220.664 85.932C220.376 85.324 219.672 84.428 219.048 83.788ZM225.144 85.98L224.392 85.596C224.92 85.02 225.624 84.06 226.008 83.42L226.888 83.836C226.36 84.604 225.688 85.436 225.144 85.98ZM227.752 86.252V83.116H223.528V86.252H227.752ZM218.344 83.116V86.252H222.392V83.116H218.344ZM225.592 82.172H228.984V87.212H217.16V82.172H220.328C220.072 81.708 219.544 80.988 219.08 80.444L220.088 80.06C220.568 80.572 221.16 81.276 221.4 81.772L220.456 82.172H224.312C224.824 81.532 225.432 80.652 225.768 80.012L226.968 80.38C226.536 80.988 226.024 81.644 225.592 82.172ZM222.024 109.084L220.92 109.852C220.072 108.476 218.136 106.364 216.52 104.876L217.528 104.236C219.144 105.676 221.128 107.708 222.024 109.084ZM212.2 104.268L213.416 104.716C212.248 106.668 210.488 108.652 208.92 109.948C208.744 109.692 208.28 109.18 207.992 108.924C209.544 107.788 211.192 106.028 212.2 104.268ZM217.8 108.54L219.048 108.908C218.296 111.052 217.272 112.828 215.944 114.268C217.64 115.772 219.784 116.86 222.376 117.468C222.088 117.74 221.72 118.284 221.528 118.636C218.872 117.964 216.744 116.796 215.016 115.196C213.272 116.796 211.064 117.932 208.392 118.764C208.232 118.46 207.864 117.9 207.608 117.612C210.296 116.892 212.456 115.82 214.168 114.3C212.856 112.844 211.88 111.068 211.112 109.052L212.28 108.7C212.92 110.492 213.848 112.06 215.064 113.388C216.248 112.076 217.16 110.476 217.8 108.54ZM229.32 107.324L230.024 106.604C231.112 107.132 232.488 107.964 233.16 108.604L232.44 109.42C231.784 108.764 230.44 107.9 229.32 107.324ZM232.84 113.9L232.056 114.684C231.384 113.932 229.944 112.924 228.696 112.3L229.432 111.596C230.68 112.188 232.136 113.148 232.84 113.9ZM226.376 115.02H234.68C234.824 114.028 234.952 112.716 235.064 110.988H227.048C226.824 112.46 226.6 113.852 226.376 115.02ZM235.304 105.98H227.752C227.592 107.212 227.4 108.556 227.208 109.868H235.112C235.192 108.716 235.24 107.436 235.304 105.98ZM238.04 110.988H236.248C236.152 112.684 236.024 114.012 235.912 115.02H237.576V116.108H235.736C235.56 117.084 235.368 117.628 235.096 117.948C234.728 118.46 234.36 118.636 233.768 118.684C233.208 118.748 232.264 118.716 231.368 118.652C231.336 118.332 231.208 117.884 231.032 117.58C232.024 117.66 232.904 117.676 233.304 117.676C233.608 117.676 233.8 117.628 233.992 117.372C234.168 117.18 234.344 116.78 234.488 116.108H224.936C225.224 114.732 225.528 112.908 225.832 110.988H223.96V109.868H226.008C226.264 108.14 226.488 106.38 226.664 104.892H236.52C236.52 104.892 236.52 105.404 236.52 105.564C236.456 107.196 236.392 108.636 236.312 109.868H238.04V110.988Z" fill="black" fill-opacity="0.2"/>
</g>
<g clip-path="url(#clip3_269_2237)">
<path d="M295.304 87.412H306.712V88.676H295.304V87.412ZM293.96 96.836H308.056V98.132H293.96V96.836Z" fill="black"/>
<rect x="278" y="70.5" width="46" height="10" fill="#F8C4BB"/>
</g>
<g filter="url(#filter4_d_269_2237)">
<rect x="324" y="35" width="110" height="103" rx="16" fill="white"/>
<rect x="324.5" y="35.5" width="109" height="102" rx="15.5" stroke="#D8D8D8"/>
<path d="M378.024 85.084L376.92 85.852C376.072 84.476 374.136 82.364 372.52 80.876L373.528 80.236C375.144 81.676 377.128 83.708 378.024 85.084ZM368.2 80.268L369.416 80.716C368.248 82.668 366.488 84.652 364.92 85.948C364.744 85.692 364.28 85.18 363.992 84.924C365.544 83.788 367.192 82.028 368.2 80.268ZM373.8 84.54L375.048 84.908C374.296 87.052 373.272 88.828 371.944 90.268C373.64 91.772 375.784 92.86 378.376 93.468C378.088 93.74 377.72 94.284 377.528 94.636C374.872 93.964 372.744 92.796 371.016 91.196C369.272 92.796 367.064 93.932 364.392 94.764C364.232 94.46 363.864 93.9 363.608 93.612C366.296 92.892 368.456 91.82 370.168 90.3C368.856 88.844 367.88 87.068 367.112 85.052L368.28 84.7C368.92 86.492 369.848 88.06 371.064 89.388C372.248 88.076 373.16 86.476 373.8 84.54ZM385.32 83.324L386.024 82.604C387.112 83.132 388.488 83.964 389.16 84.604L388.44 85.42C387.784 84.764 386.44 83.9 385.32 83.324ZM388.84 89.9L388.056 90.684C387.384 89.932 385.944 88.924 384.696 88.3L385.432 87.596C386.68 88.188 388.136 89.148 388.84 89.9ZM382.376 91.02H390.68C390.824 90.028 390.952 88.716 391.064 86.988H383.048C382.824 88.46 382.6 89.852 382.376 91.02ZM391.304 81.98H383.752C383.592 83.212 383.4 84.556 383.208 85.868H391.112C391.192 84.716 391.24 83.436 391.304 81.98ZM394.04 86.988H392.248C392.152 88.684 392.024 90.012 391.912 91.02H393.576V92.108H391.736C391.56 93.084 391.368 93.628 391.096 93.948C390.728 94.46 390.36 94.636 389.768 94.684C389.208 94.748 388.264 94.716 387.368 94.652C387.336 94.332 387.208 93.884 387.032 93.58C388.024 93.66 388.904 93.676 389.304 93.676C389.608 93.676 389.8 93.628 389.992 93.372C390.168 93.18 390.344 92.78 390.488 92.108H380.936C381.224 90.732 381.528 88.908 381.832 86.988H379.96V85.868H382.008C382.264 84.14 382.488 82.38 382.664 80.892H392.52C392.52 80.892 392.52 81.404 392.52 81.564C392.456 83.196 392.392 84.636 392.312 85.868H394.04V86.988Z" fill="#444444"/>
<path d="M378.024 85.084L376.92 85.852C376.072 84.476 374.136 82.364 372.52 80.876L373.528 80.236C375.144 81.676 377.128 83.708 378.024 85.084ZM368.2 80.268L369.416 80.716C368.248 82.668 366.488 84.652 364.92 85.948C364.744 85.692 364.28 85.18 363.992 84.924C365.544 83.788 367.192 82.028 368.2 80.268ZM373.8 84.54L375.048 84.908C374.296 87.052 373.272 88.828 371.944 90.268C373.64 91.772 375.784 92.86 378.376 93.468C378.088 93.74 377.72 94.284 377.528 94.636C374.872 93.964 372.744 92.796 371.016 91.196C369.272 92.796 367.064 93.932 364.392 94.764C364.232 94.46 363.864 93.9 363.608 93.612C366.296 92.892 368.456 91.82 370.168 90.3C368.856 88.844 367.88 87.068 367.112 85.052L368.28 84.7C368.92 86.492 369.848 88.06 371.064 89.388C372.248 88.076 373.16 86.476 373.8 84.54ZM385.32 83.324L386.024 82.604C387.112 83.132 388.488 83.964 389.16 84.604L388.44 85.42C387.784 84.764 386.44 83.9 385.32 83.324ZM388.84 89.9L388.056 90.684C387.384 89.932 385.944 88.924 384.696 88.3L385.432 87.596C386.68 88.188 388.136 89.148 388.84 89.9ZM382.376 91.02H390.68C390.824 90.028 390.952 88.716 391.064 86.988H383.048C382.824 88.46 382.6 89.852 382.376 91.02ZM391.304 81.98H383.752C383.592 83.212 383.4 84.556 383.208 85.868H391.112C391.192 84.716 391.24 83.436 391.304 81.98ZM394.04 86.988H392.248C392.152 88.684 392.024 90.012 391.912 91.02H393.576V92.108H391.736C391.56 93.084 391.368 93.628 391.096 93.948C390.728 94.46 390.36 94.636 389.768 94.684C389.208 94.748 388.264 94.716 387.368 94.652C387.336 94.332 387.208 93.884 387.032 93.58C388.024 93.66 388.904 93.676 389.304 93.676C389.608 93.676 389.8 93.628 389.992 93.372C390.168 93.18 390.344 92.78 390.488 92.108H380.936C381.224 90.732 381.528 88.908 381.832 86.988H379.96V85.868H382.008C382.264 84.14 382.488 82.38 382.664 80.892H392.52C392.52 80.892 392.52 81.404 392.52 81.564C392.456 83.196 392.392 84.636 392.312 85.868H394.04V86.988Z" fill="black" fill-opacity="0.2"/>
</g>
<g clip-path="url(#clip4_269_2237)">
<path d="M449.768 91.62H464.296V92.916H449.768V91.62Z" fill="black"/>
<rect x="434" y="70.5" width="46" height="10" fill="#F8C4BB"/>
</g>
<g filter="url(#filter5_d_269_2237)">
<rect x="480" y="35" width="110" height="103" rx="16" fill="#FBE1DD" fill-opacity="0.5" shape-rendering="crispEdges"/>
<rect x="480.5" y="35.5" width="109" height="102" rx="15.5" stroke="#D8D8D8" shape-rendering="crispEdges"/>
<path d="M533.944 84.652H529C530.152 87.356 532.168 89.884 534.376 91.132C534.072 91.388 533.656 91.82 533.464 92.14C531.096 90.652 529.032 87.772 527.832 84.652H527.608V90.556H531.32V91.74H527.608V94.716H526.376V91.74H522.664V90.556H526.376V84.652H526.12C524.888 87.772 522.824 90.62 520.52 92.188C520.328 91.9 519.944 91.468 519.672 91.244C521.784 89.948 523.752 87.356 524.92 84.652H520.088V83.468H526.376V80.124H527.608V83.468H533.944V84.652ZM542.328 80.172H543.64C543.624 80.748 543.608 81.548 543.528 82.492C543.768 84.396 544.728 91.084 550.376 93.596C550.04 93.868 549.688 94.268 549.512 94.604C545.512 92.732 543.8 88.78 543.032 85.804C542.296 89.004 540.6 92.588 536.696 94.668C536.488 94.348 536.104 93.98 535.736 93.74C542.376 90.38 542.28 82.604 542.328 80.172Z" fill="#444444"/>
<path d="M533.944 84.652H529C530.152 87.356 532.168 89.884 534.376 91.132C534.072 91.388 533.656 91.82 533.464 92.14C531.096 90.652 529.032 87.772 527.832 84.652H527.608V90.556H531.32V91.74H527.608V94.716H526.376V91.74H522.664V90.556H526.376V84.652H526.12C524.888 87.772 522.824 90.62 520.52 92.188C520.328 91.9 519.944 91.468 519.672 91.244C521.784 89.948 523.752 87.356 524.92 84.652H520.088V83.468H526.376V80.124H527.608V83.468H533.944V84.652ZM542.328 80.172H543.64C543.624 80.748 543.608 81.548 543.528 82.492C543.768 84.396 544.728 91.084 550.376 93.596C550.04 93.868 549.688 94.268 549.512 94.604C545.512 92.732 543.8 88.78 543.032 85.804C542.296 89.004 540.6 92.588 536.696 94.668C536.488 94.348 536.104 93.98 535.736 93.74C542.376 90.38 542.28 82.604 542.328 80.172Z" fill="black" fill-opacity="0.2"/>
</g>
<g clip-path="url(#clip5_269_2237)">
<path d="M605.768 91.62H620.296V92.916H605.768V91.62Z" fill="black"/>
<rect x="590" y="70.5" width="46" height="10" fill="#F8C4BB"/>
</g>
<g filter="url(#filter6_d_269_2237)">
<rect x="636" y="35" width="110" height="103" rx="16" fill="white"/>
<rect x="636.5" y="35.5" width="109" height="102" rx="15.5" stroke="#D8D8D8"/>
<path d="M690.2 87.196V88.38H683.672V93.148C683.672 93.948 683.464 94.316 682.856 94.492C682.264 94.7 681.256 94.716 679.72 94.716C679.64 94.364 679.416 93.836 679.208 93.5C680.504 93.548 681.672 93.532 682.024 93.516C682.344 93.5 682.456 93.42 682.456 93.132V88.38H675.864V87.196H682.456V84.892C683.784 84.284 685.336 83.292 686.456 82.364H677.448V81.196H687.752L688.008 81.132L688.904 81.804C687.544 83.148 685.496 84.572 683.672 85.5V87.196H690.2ZM701.896 85.18H697.224C696.712 86.444 696.168 87.644 695.672 88.636C696.888 89.1 698.088 89.612 699.272 90.156C700.488 88.876 701.32 87.228 701.896 85.18ZM706.056 85.18H703.24C702.632 87.468 701.784 89.308 700.504 90.748C702.552 91.74 704.376 92.748 705.704 93.66L704.744 94.716C703.416 93.772 701.608 92.7 699.544 91.692C697.912 93.084 695.72 94.044 692.76 94.668C692.616 94.316 692.328 93.836 692.04 93.532C694.728 93.02 696.744 92.22 698.264 91.052C696.856 90.38 695.368 89.756 693.88 89.18C694.504 88.092 695.192 86.684 695.848 85.18H692.008V83.932H696.36C696.92 82.572 697.4 81.18 697.736 79.964L699 80.156C698.664 81.34 698.216 82.652 697.736 83.932H702.216C702.328 83.452 702.424 82.94 702.52 82.412L703.752 82.732C703.688 83.132 703.608 83.532 703.528 83.932H706.056V85.18Z" fill="#444444"/>
<path d="M690.2 87.196V88.38H683.672V93.148C683.672 93.948 683.464 94.316 682.856 94.492C682.264 94.7 681.256 94.716 679.72 94.716C679.64 94.364 679.416 93.836 679.208 93.5C680.504 93.548 681.672 93.532 682.024 93.516C682.344 93.5 682.456 93.42 682.456 93.132V88.38H675.864V87.196H682.456V84.892C683.784 84.284 685.336 83.292 686.456 82.364H677.448V81.196H687.752L688.008 81.132L688.904 81.804C687.544 83.148 685.496 84.572 683.672 85.5V87.196H690.2ZM701.896 85.18H697.224C696.712 86.444 696.168 87.644 695.672 88.636C696.888 89.1 698.088 89.612 699.272 90.156C700.488 88.876 701.32 87.228 701.896 85.18ZM706.056 85.18H703.24C702.632 87.468 701.784 89.308 700.504 90.748C702.552 91.74 704.376 92.748 705.704 93.66L704.744 94.716C703.416 93.772 701.608 92.7 699.544 91.692C697.912 93.084 695.72 94.044 692.76 94.668C692.616 94.316 692.328 93.836 692.04 93.532C694.728 93.02 696.744 92.22 698.264 91.052C696.856 90.38 695.368 89.756 693.88 89.18C694.504 88.092 695.192 86.684 695.848 85.18H692.008V83.932H696.36C696.92 82.572 697.4 81.18 697.736 79.964L699 80.156C698.664 81.34 698.216 82.652 697.736 83.932H702.216C702.328 83.452 702.424 82.94 702.52 82.412L703.752 82.732C703.688 83.132 703.608 83.532 703.528 83.932H706.056V85.18Z" fill="black" fill-opacity="0.2"/>
</g>
<g clip-path="url(#clip6_269_2237)">
<path d="M763.304 87.412H774.712V88.676H763.304V87.412ZM761.96 96.836H776.056V98.132H761.96V96.836Z" fill="black"/>
<rect x="746" y="70.5" width="46" height="10" fill="#F8C4BB"/>
</g>
<g filter="url(#filter7_d_269_2237)">
<rect x="792" y="35" width="110" height="103" rx="16" fill="white"/>
<rect x="792.5" y="35.5" width="109" height="102" rx="15.5" stroke="#D8D8D8"/>
<path d="M850.696 68.108L851.608 68.892C850.072 69.964 847.72 70.828 845.576 71.468C845.528 71.244 845.336 70.86 845.208 70.62C847.224 69.996 849.48 69.068 850.696 68.108ZM844.856 74.844L845.08 75.836C844.408 76.108 843.72 76.396 843.048 76.684V81.484C843.048 82.028 842.936 82.3 842.568 82.476C842.216 82.636 841.672 82.668 840.84 82.668C840.808 82.38 840.632 81.98 840.488 81.692C841.064 81.708 841.608 81.708 841.784 81.708C841.944 81.692 842.008 81.644 842.008 81.484V77.1L840.024 77.9L839.768 76.764C840.376 76.556 841.16 76.268 842.008 75.948V73.116C842.568 72.332 843.224 71.196 843.656 70.204H840.28V69.18H844.232L844.456 69.116L845.208 69.628C844.632 70.828 843.8 72.204 843.048 73.244V75.548L844.856 74.844ZM846.824 78.076L847.88 78.364C847.24 79.756 846.328 81.164 845.48 82.076C845.224 81.916 844.744 81.692 844.44 81.564C845.4 80.684 846.264 79.356 846.824 78.076ZM852.712 76.764L849.944 77.036V81.516C849.944 82.092 849.848 82.364 849.432 82.54C849.064 82.716 848.456 82.716 847.592 82.716C847.56 82.412 847.4 82.012 847.256 81.708C847.88 81.724 848.44 81.724 848.6 81.708C848.776 81.692 848.824 81.66 848.824 81.5V77.148C846.408 77.404 845.992 77.484 845.704 77.596C845.656 77.372 845.48 76.828 845.352 76.54C845.752 76.476 846.248 76.188 846.904 75.74C847.288 75.484 848.2 74.828 849.224 73.98C846.552 74.236 846.136 74.316 845.864 74.428C845.8 74.204 845.64 73.66 845.544 73.372C845.816 73.34 846.136 73.164 846.504 72.892C846.92 72.62 848.232 71.596 849.16 70.524L850.2 71.036C849.384 71.836 848.504 72.572 847.656 73.18L850.36 72.956C850.776 72.588 851.176 72.188 851.56 71.788L852.456 72.46C850.968 73.9 849.352 75.212 847.736 76.268L852.216 75.9C851.896 75.356 851.544 74.828 851.208 74.38L852.056 73.964C852.84 74.988 853.72 76.396 854.104 77.276L853.192 77.772C853.08 77.484 852.904 77.148 852.712 76.764ZM851 78.268L851.912 77.852C852.76 78.972 853.704 80.444 854.168 81.388L853.224 81.916C852.76 80.94 851.816 79.404 851 78.268ZM846.2 99.196V100.38H839.672V105.148C839.672 105.948 839.464 106.316 838.856 106.492C838.264 106.7 837.256 106.716 835.72 106.716C835.64 106.364 835.416 105.836 835.208 105.5C836.504 105.548 837.672 105.532 838.024 105.516C838.344 105.5 838.456 105.42 838.456 105.132V100.38H831.864V99.196H838.456V96.892C839.784 96.284 841.336 95.292 842.456 94.364H833.448V93.196H843.752L844.008 93.132L844.904 93.804C843.544 95.148 841.496 96.572 839.672 97.5V99.196H846.2ZM857.896 97.18H853.224C852.712 98.444 852.168 99.644 851.672 100.636C852.888 101.1 854.088 101.612 855.272 102.156C856.488 100.876 857.32 99.228 857.896 97.18ZM862.056 97.18H859.24C858.632 99.468 857.784 101.308 856.504 102.748C858.552 103.74 860.376 104.748 861.704 105.66L860.744 106.716C859.416 105.772 857.608 104.7 855.544 103.692C853.912 105.084 851.72 106.044 848.76 106.668C848.616 106.316 848.328 105.836 848.04 105.532C850.728 105.02 852.744 104.22 854.264 103.052C852.856 102.38 851.368 101.756 849.88 101.18C850.504 100.092 851.192 98.684 851.848 97.18H848.008V95.932H852.36C852.92 94.572 853.4 93.18 853.736 91.964L855 92.156C854.664 93.34 854.216 94.652 853.736 95.932H858.216C858.328 95.452 858.424 94.94 858.52 94.412L859.752 94.732C859.688 95.132 859.608 95.532 859.528 95.932H862.056V97.18Z" fill="#444444"/>
<path d="M850.696 68.108L851.608 68.892C850.072 69.964 847.72 70.828 845.576 71.468C845.528 71.244 845.336 70.86 845.208 70.62C847.224 69.996 849.48 69.068 850.696 68.108ZM844.856 74.844L845.08 75.836C844.408 76.108 843.72 76.396 843.048 76.684V81.484C843.048 82.028 842.936 82.3 842.568 82.476C842.216 82.636 841.672 82.668 840.84 82.668C840.808 82.38 840.632 81.98 840.488 81.692C841.064 81.708 841.608 81.708 841.784 81.708C841.944 81.692 842.008 81.644 842.008 81.484V77.1L840.024 77.9L839.768 76.764C840.376 76.556 841.16 76.268 842.008 75.948V73.116C842.568 72.332 843.224 71.196 843.656 70.204H840.28V69.18H844.232L844.456 69.116L845.208 69.628C844.632 70.828 843.8 72.204 843.048 73.244V75.548L844.856 74.844ZM846.824 78.076L847.88 78.364C847.24 79.756 846.328 81.164 845.48 82.076C845.224 81.916 844.744 81.692 844.44 81.564C845.4 80.684 846.264 79.356 846.824 78.076ZM852.712 76.764L849.944 77.036V81.516C849.944 82.092 849.848 82.364 849.432 82.54C849.064 82.716 848.456 82.716 847.592 82.716C847.56 82.412 847.4 82.012 847.256 81.708C847.88 81.724 848.44 81.724 848.6 81.708C848.776 81.692 848.824 81.66 848.824 81.5V77.148C846.408 77.404 845.992 77.484 845.704 77.596C845.656 77.372 845.48 76.828 845.352 76.54C845.752 76.476 846.248 76.188 846.904 75.74C847.288 75.484 848.2 74.828 849.224 73.98C846.552 74.236 846.136 74.316 845.864 74.428C845.8 74.204 845.64 73.66 845.544 73.372C845.816 73.34 846.136 73.164 846.504 72.892C846.92 72.62 848.232 71.596 849.16 70.524L850.2 71.036C849.384 71.836 848.504 72.572 847.656 73.18L850.36 72.956C850.776 72.588 851.176 72.188 851.56 71.788L852.456 72.46C850.968 73.9 849.352 75.212 847.736 76.268L852.216 75.9C851.896 75.356 851.544 74.828 851.208 74.38L852.056 73.964C852.84 74.988 853.72 76.396 854.104 77.276L853.192 77.772C853.08 77.484 852.904 77.148 852.712 76.764ZM851 78.268L851.912 77.852C852.76 78.972 853.704 80.444 854.168 81.388L853.224 81.916C852.76 80.94 851.816 79.404 851 78.268ZM846.2 99.196V100.38H839.672V105.148C839.672 105.948 839.464 106.316 838.856 106.492C838.264 106.7 837.256 106.716 835.72 106.716C835.64 106.364 835.416 105.836 835.208 105.5C836.504 105.548 837.672 105.532 838.024 105.516C838.344 105.5 838.456 105.42 838.456 105.132V100.38H831.864V99.196H838.456V96.892C839.784 96.284 841.336 95.292 842.456 94.364H833.448V93.196H843.752L844.008 93.132L844.904 93.804C843.544 95.148 841.496 96.572 839.672 97.5V99.196H846.2ZM857.896 97.18H853.224C852.712 98.444 852.168 99.644 851.672 100.636C852.888 101.1 854.088 101.612 855.272 102.156C856.488 100.876 857.32 99.228 857.896 97.18ZM862.056 97.18H859.24C858.632 99.468 857.784 101.308 856.504 102.748C858.552 103.74 860.376 104.748 861.704 105.66L860.744 106.716C859.416 105.772 857.608 104.7 855.544 103.692C853.912 105.084 851.72 106.044 848.76 106.668C848.616 106.316 848.328 105.836 848.04 105.532C850.728 105.02 852.744 104.22 854.264 103.052C852.856 102.38 851.368 101.756 849.88 101.18C850.504 100.092 851.192 98.684 851.848 97.18H848.008V95.932H852.36C852.92 94.572 853.4 93.18 853.736 91.964L855 92.156C854.664 93.34 854.216 94.652 853.736 95.932H858.216C858.328 95.452 858.424 94.94 858.52 94.412L859.752 94.732C859.688 95.132 859.608 95.532 859.528 95.932H862.056V97.18Z" fill="black" fill-opacity="0.2"/>
</g>
<g clip-path="url(#clip7_269_2237)">
<path d="M919.016 86.66H931.016V87.844H919.016V86.66ZM920.04 91.844H929.768V93.044H920.04V91.844ZM918.104 97.364H931.88V98.564H918.104V97.364Z" fill="black"/>
<rect x="902" y="70.5" width="46" height="10" fill="#F8C4BB"/>
</g>
<g filter="url(#filter8_d_269_2237)">
<rect x="948" y="35" width="110" height="103" rx="16" fill="white"/>
<rect x="948.5" y="35.5" width="109" height="102" rx="15.5" stroke="#D8D8D8"/>
<path d="M998.76 77.164H991.384V78.636H998.76V77.164ZM991.384 80.972H998.76V79.5H991.384V80.972ZM990.184 82.764V76.252H1000.01V82.7H998.76V81.916H991.384V82.764H990.184ZM991.048 71.788L991.768 71.372C992.424 71.98 993.128 72.844 993.432 73.436L992.664 73.932C992.376 73.324 991.672 72.428 991.048 71.788ZM997.144 73.98L996.392 73.596C996.92 73.02 997.624 72.06 998.008 71.42L998.888 71.836C998.36 72.604 997.688 73.436 997.144 73.98ZM999.752 74.252V71.116H995.528V74.252H999.752ZM990.344 71.116V74.252H994.392V71.116H990.344ZM997.592 70.172H1000.98V75.212H989.16V70.172H992.328C992.072 69.708 991.544 68.988 991.08 68.444L992.088 68.06C992.568 68.572 993.16 69.276 993.4 69.772L992.456 70.172H996.312C996.824 69.532 997.432 68.652 997.768 68.012L998.968 68.38C998.536 68.988 998.024 69.644 997.592 70.172ZM1014.7 68.108L1015.61 68.892C1014.07 69.964 1011.72 70.828 1009.58 71.468C1009.53 71.244 1009.34 70.86 1009.21 70.62C1011.22 69.996 1013.48 69.068 1014.7 68.108ZM1008.86 74.844L1009.08 75.836C1008.41 76.108 1007.72 76.396 1007.05 76.684V81.484C1007.05 82.028 1006.94 82.3 1006.57 82.476C1006.22 82.636 1005.67 82.668 1004.84 82.668C1004.81 82.38 1004.63 81.98 1004.49 81.692C1005.06 81.708 1005.61 81.708 1005.78 81.708C1005.94 81.692 1006.01 81.644 1006.01 81.484V77.1L1004.02 77.9L1003.77 76.764C1004.38 76.556 1005.16 76.268 1006.01 75.948V73.116C1006.57 72.332 1007.22 71.196 1007.66 70.204H1004.28V69.18H1008.23L1008.46 69.116L1009.21 69.628C1008.63 70.828 1007.8 72.204 1007.05 73.244V75.548L1008.86 74.844ZM1010.82 78.076L1011.88 78.364C1011.24 79.756 1010.33 81.164 1009.48 82.076C1009.22 81.916 1008.74 81.692 1008.44 81.564C1009.4 80.684 1010.26 79.356 1010.82 78.076ZM1016.71 76.764L1013.94 77.036V81.516C1013.94 82.092 1013.85 82.364 1013.43 82.54C1013.06 82.716 1012.46 82.716 1011.59 82.716C1011.56 82.412 1011.4 82.012 1011.26 81.708C1011.88 81.724 1012.44 81.724 1012.6 81.708C1012.78 81.692 1012.82 81.66 1012.82 81.5V77.148C1010.41 77.404 1009.99 77.484 1009.7 77.596C1009.66 77.372 1009.48 76.828 1009.35 76.54C1009.75 76.476 1010.25 76.188 1010.9 75.74C1011.29 75.484 1012.2 74.828 1013.22 73.98C1010.55 74.236 1010.14 74.316 1009.86 74.428C1009.8 74.204 1009.64 73.66 1009.54 73.372C1009.82 73.34 1010.14 73.164 1010.5 72.892C1010.92 72.62 1012.23 71.596 1013.16 70.524L1014.2 71.036C1013.38 71.836 1012.5 72.572 1011.66 73.18L1014.36 72.956C1014.78 72.588 1015.18 72.188 1015.56 71.788L1016.46 72.46C1014.97 73.9 1013.35 75.212 1011.74 76.268L1016.22 75.9C1015.9 75.356 1015.54 74.828 1015.21 74.38L1016.06 73.964C1016.84 74.988 1017.72 76.396 1018.1 77.276L1017.19 77.772C1017.08 77.484 1016.9 77.148 1016.71 76.764ZM1015 78.268L1015.91 77.852C1016.76 78.972 1017.7 80.444 1018.17 81.388L1017.22 81.916C1016.76 80.94 1015.82 79.404 1015 78.268ZM1002.2 99.196V100.38H995.672V105.148C995.672 105.948 995.464 106.316 994.856 106.492C994.264 106.7 993.256 106.716 991.72 106.716C991.64 106.364 991.416 105.836 991.208 105.5C992.504 105.548 993.672 105.532 994.024 105.516C994.344 105.5 994.456 105.42 994.456 105.132V100.38H987.864V99.196H994.456V96.892C995.784 96.284 997.336 95.292 998.456 94.364H989.448V93.196H999.752L1000.01 93.132L1000.9 93.804C999.544 95.148 997.496 96.572 995.672 97.5V99.196H1002.2ZM1013.9 97.18H1009.22C1008.71 98.444 1008.17 99.644 1007.67 100.636C1008.89 101.1 1010.09 101.612 1011.27 102.156C1012.49 100.876 1013.32 99.228 1013.9 97.18ZM1018.06 97.18H1015.24C1014.63 99.468 1013.78 101.308 1012.5 102.748C1014.55 103.74 1016.38 104.748 1017.7 105.66L1016.74 106.716C1015.42 105.772 1013.61 104.7 1011.54 103.692C1009.91 105.084 1007.72 106.044 1004.76 106.668C1004.62 106.316 1004.33 105.836 1004.04 105.532C1006.73 105.02 1008.74 104.22 1010.26 103.052C1008.86 102.38 1007.37 101.756 1005.88 101.18C1006.5 100.092 1007.19 98.684 1007.85 97.18H1004.01V95.932H1008.36C1008.92 94.572 1009.4 93.18 1009.74 91.964L1011 92.156C1010.66 93.34 1010.22 94.652 1009.74 95.932H1014.22C1014.33 95.452 1014.42 94.94 1014.52 94.412L1015.75 94.732C1015.69 95.132 1015.61 95.532 1015.53 95.932H1018.06V97.18Z" fill="#444444"/>
<path d="M998.76 77.164H991.384V78.636H998.76V77.164ZM991.384 80.972H998.76V79.5H991.384V80.972ZM990.184 82.764V76.252H1000.01V82.7H998.76V81.916H991.384V82.764H990.184ZM991.048 71.788L991.768 71.372C992.424 71.98 993.128 72.844 993.432 73.436L992.664 73.932C992.376 73.324 991.672 72.428 991.048 71.788ZM997.144 73.98L996.392 73.596C996.92 73.02 997.624 72.06 998.008 71.42L998.888 71.836C998.36 72.604 997.688 73.436 997.144 73.98ZM999.752 74.252V71.116H995.528V74.252H999.752ZM990.344 71.116V74.252H994.392V71.116H990.344ZM997.592 70.172H1000.98V75.212H989.16V70.172H992.328C992.072 69.708 991.544 68.988 991.08 68.444L992.088 68.06C992.568 68.572 993.16 69.276 993.4 69.772L992.456 70.172H996.312C996.824 69.532 997.432 68.652 997.768 68.012L998.968 68.38C998.536 68.988 998.024 69.644 997.592 70.172ZM1014.7 68.108L1015.61 68.892C1014.07 69.964 1011.72 70.828 1009.58 71.468C1009.53 71.244 1009.34 70.86 1009.21 70.62C1011.22 69.996 1013.48 69.068 1014.7 68.108ZM1008.86 74.844L1009.08 75.836C1008.41 76.108 1007.72 76.396 1007.05 76.684V81.484C1007.05 82.028 1006.94 82.3 1006.57 82.476C1006.22 82.636 1005.67 82.668 1004.84 82.668C1004.81 82.38 1004.63 81.98 1004.49 81.692C1005.06 81.708 1005.61 81.708 1005.78 81.708C1005.94 81.692 1006.01 81.644 1006.01 81.484V77.1L1004.02 77.9L1003.77 76.764C1004.38 76.556 1005.16 76.268 1006.01 75.948V73.116C1006.57 72.332 1007.22 71.196 1007.66 70.204H1004.28V69.18H1008.23L1008.46 69.116L1009.21 69.628C1008.63 70.828 1007.8 72.204 1007.05 73.244V75.548L1008.86 74.844ZM1010.82 78.076L1011.88 78.364C1011.24 79.756 1010.33 81.164 1009.48 82.076C1009.22 81.916 1008.74 81.692 1008.44 81.564C1009.4 80.684 1010.26 79.356 1010.82 78.076ZM1016.71 76.764L1013.94 77.036V81.516C1013.94 82.092 1013.85 82.364 1013.43 82.54C1013.06 82.716 1012.46 82.716 1011.59 82.716C1011.56 82.412 1011.4 82.012 1011.26 81.708C1011.88 81.724 1012.44 81.724 1012.6 81.708C1012.78 81.692 1012.82 81.66 1012.82 81.5V77.148C1010.41 77.404 1009.99 77.484 1009.7 77.596C1009.66 77.372 1009.48 76.828 1009.35 76.54C1009.75 76.476 1010.25 76.188 1010.9 75.74C1011.29 75.484 1012.2 74.828 1013.22 73.98C1010.55 74.236 1010.14 74.316 1009.86 74.428C1009.8 74.204 1009.64 73.66 1009.54 73.372C1009.82 73.34 1010.14 73.164 1010.5 72.892C1010.92 72.62 1012.23 71.596 1013.16 70.524L1014.2 71.036C1013.38 71.836 1012.5 72.572 1011.66 73.18L1014.36 72.956C1014.78 72.588 1015.18 72.188 1015.56 71.788L1016.46 72.46C1014.97 73.9 1013.35 75.212 1011.74 76.268L1016.22 75.9C1015.9 75.356 1015.54 74.828 1015.21 74.38L1016.06 73.964C1016.84 74.988 1017.72 76.396 1018.1 77.276L1017.19 77.772C1017.08 77.484 1016.9 77.148 1016.71 76.764ZM1015 78.268L1015.91 77.852C1016.76 78.972 1017.7 80.444 1018.17 81.388L1017.22 81.916C1016.76 80.94 1015.82 79.404 1015 78.268ZM1002.2 99.196V100.38H995.672V105.148C995.672 105.948 995.464 106.316 994.856 106.492C994.264 106.7 993.256 106.716 991.72 106.716C991.64 106.364 991.416 105.836 991.208 105.5C992.504 105.548 993.672 105.532 994.024 105.516C994.344 105.5 994.456 105.42 994.456 105.132V100.38H987.864V99.196H994.456V96.892C995.784 96.284 997.336 95.292 998.456 94.364H989.448V93.196H999.752L1000.01 93.132L1000.9 93.804C999.544 95.148 997.496 96.572 995.672 97.5V99.196H1002.2ZM1013.9 97.18H1009.22C1008.71 98.444 1008.17 99.644 1007.67 100.636C1008.89 101.1 1010.09 101.612 1011.27 102.156C1012.49 100.876 1013.32 99.228 1013.9 97.18ZM1018.06 97.18H1015.24C1014.63 99.468 1013.78 101.308 1012.5 102.748C1014.55 103.74 1016.38 104.748 1017.7 105.66L1016.74 106.716C1015.42 105.772 1013.61 104.7 1011.54 103.692C1009.91 105.084 1007.72 106.044 1004.76 106.668C1004.62 106.316 1004.33 105.836 1004.04 105.532C1006.73 105.02 1008.74 104.22 1010.26 103.052C1008.86 102.38 1007.37 101.756 1005.88 101.18C1006.5 100.092 1007.19 98.684 1007.85 97.18H1004.01V95.932H1008.36C1008.92 94.572 1009.4 93.18 1009.74 91.964L1011 92.156C1010.66 93.34 1010.22 94.652 1009.74 95.932H1014.22C1014.33 95.452 1014.42 94.94 1014.52 94.412L1015.75 94.732C1015.69 95.132 1015.61 95.532 1015.53 95.932H1018.06V97.18Z" fill="black" fill-opacity="0.2"/>
</g>
<defs>
<filter id="filter0_d_269_2237" x="318" y="161" width="122" height="115" filterUnits="userSpaceOnUse" color-interpolation-filters="sRGB">
<feFlood flood-opacity="0" result="BackgroundImageFix"/>
<feColorMatrix in="SourceAlpha" type="matrix" values="0 0 0 0 0 0 0 0 0 0 0 0 0 0 0 0 0 0 127 0" result="hardAlpha"/>
<feOffset dy="4"/>
<feGaussianBlur stdDeviation="3"/>
<feComposite in2="hardAlpha" operator="out"/>
<feColorMatrix type="matrix" values="0 0 0 0 0.729699 0 0 0 0 0.61334 0 0 0 0 0.61334 0 0 0 0.1 0"/>
<feBlend mode="normal" in2="BackgroundImageFix" result="effect1_dropShadow_269_2237"/>
<feBlend mode="normal" in="SourceGraphic" in2="effect1_dropShadow_269_2237" result="shape"/>
</filter>
<filter id="filter1_d_269_2237" x="474" y="161" width="122" height="115" filterUnits="userSpaceOnUse" color-interpolation-filters="sRGB">
<feFlood flood-opacity="0" result="BackgroundImageFix"/>
<feColorMatrix in="SourceAlpha" type="matrix" values="0 0 0 0 0 0 0 0 0 0 0 0 0 0 0 0 0 0 127 0" result="hardAlpha"/>
<feOffset dy="4"/>
<feGaussianBlur stdDeviation="3"/>
<feComposite in2="hardAlpha" operator="out"/>
<feColorMatrix type="matrix" values="0 0 0 0 0.729699 0 0 0 0 0.61334 0 0 0 0 0.61334 0 0 0 0.1 0"/>
<feBlend mode="normal" in2="BackgroundImageFix" result="effect1_dropShadow_269_2237"/>
<feBlend mode="normal" in="SourceGraphic" in2="effect1_dropShadow_269_2237" result="shape"/>
</filter>
<filter id="filter2_d_269_2237" x="6" y="33" width="122" height="115" filterUnits="userSpaceOnUse" color-interpolation-filters="sRGB">
<feFlood flood-opacity="0" result="BackgroundImageFix"/>
<feColorMatrix in="SourceAlpha" type="matrix" values="0 0 0 0 0 0 0 0 0 0 0 0 0 0 0 0 0 0 127 0" result="hardAlpha"/>
<feOffset dy="4"/>
<feGaussianBlur stdDeviation="3"/>
<feComposite in2="hardAlpha" operator="out"/>
<feColorMatrix type="matrix" values="0 0 0 0 0.729699 0 0 0 0 0.61334 0 0 0 0 0.61334 0 0 0 0.1 0"/>
<feBlend mode="normal" in2="BackgroundImageFix" result="effect1_dropShadow_269_2237"/>
<feBlend mode="normal" in="SourceGraphic" in2="effect1_dropShadow_269_2237" result="shape"/>
</filter>
<filter id="filter3_d_269_2237" x="162" y="33" width="122" height="115" filterUnits="userSpaceOnUse" color-interpolation-filters="sRGB">
<feFlood flood-opacity="0" result="BackgroundImageFix"/>
<feColorMatrix in="SourceAlpha" type="matrix" values="0 0 0 0 0 0 0 0 0 0 0 0 0 0 0 0 0 0 127 0" result="hardAlpha"/>
<feOffset dy="4"/>
<feGaussianBlur stdDeviation="3"/>
<feComposite in2="hardAlpha" operator="out"/>
<feColorMatrix type="matrix" values="0 0 0 0 0.729699 0 0 0 0 0.61334 0 0 0 0 0.61334 0 0 0 0.1 0"/>
<feBlend mode="normal" in2="BackgroundImageFix" result="effect1_dropShadow_269_2237"/>
<feBlend mode="normal" in="SourceGraphic" in2="effect1_dropShadow_269_2237" result="shape"/>
</filter>
<filter id="filter4_d_269_2237" x="318" y="33" width="122" height="115" filterUnits="userSpaceOnUse" color-interpolation-filters="sRGB">
<feFlood flood-opacity="0" result="BackgroundImageFix"/>
<feColorMatrix in="SourceAlpha" type="matrix" values="0 0 0 0 0 0 0 0 0 0 0 0 0 0 0 0 0 0 127 0" result="hardAlpha"/>
<feOffset dy="4"/>
<feGaussianBlur stdDeviation="3"/>
<feComposite in2="hardAlpha" operator="out"/>
<feColorMatrix type="matrix" values="0 0 0 0 0.729699 0 0 0 0 0.61334 0 0 0 0 0.61334 0 0 0 0.1 0"/>
<feBlend mode="normal" in2="BackgroundImageFix" result="effect1_dropShadow_269_2237"/>
<feBlend mode="normal" in="SourceGraphic" in2="effect1_dropShadow_269_2237" result="shape"/>
</filter>
<filter id="filter5_d_269_2237" x="474" y="33" width="122" height="115" filterUnits="userSpaceOnUse" color-interpolation-filters="sRGB">
<feFlood flood-opacity="0" result="BackgroundImageFix"/>
<feColorMatrix in="SourceAlpha" type="matrix" values="0 0 0 0 0 0 0 0 0 0 0 0 0 0 0 0 0 0 127 0" result="hardAlpha"/>
<feOffset dy="4"/>
<feGaussianBlur stdDeviation="3"/>
<feComposite in2="hardAlpha" operator="out"/>
<feColorMatrix type="matrix" values="0 0 0 0 0.729699 0 0 0 0 0.61334 0 0 0 0 0.61334 0 0 0 0.1 0"/>
<feBlend mode="normal" in2="BackgroundImageFix" result="effect1_dropShadow_269_2237"/>
<feBlend mode="normal" in="SourceGraphic" in2="effect1_dropShadow_269_2237" result="shape"/>
</filter>
<filter id="filter6_d_269_2237" x="630" y="33" width="122" height="115" filterUnits="userSpaceOnUse" color-interpolation-filters="sRGB">
<feFlood flood-opacity="0" result="BackgroundImageFix"/>
<feColorMatrix in="SourceAlpha" type="matrix" values="0 0 0 0 0 0 0 0 0 0 0 0 0 0 0 0 0 0 127 0" result="hardAlpha"/>
<feOffset dy="4"/>
<feGaussianBlur stdDeviation="3"/>
<feComposite in2="hardAlpha" operator="out"/>
<feColorMatrix type="matrix" values="0 0 0 0 0.729699 0 0 0 0 0.61334 0 0 0 0 0.61334 0 0 0 0.1 0"/>
<feBlend mode="normal" in2="BackgroundImageFix" result="effect1_dropShadow_269_2237"/>
<feBlend mode="normal" in="SourceGraphic" in2="effect1_dropShadow_269_2237" result="shape"/>
</filter>
<filter id="filter7_d_269_2237" x="786" y="33" width="122" height="115" filterUnits="userSpaceOnUse" color-interpolation-filters="sRGB">
<feFlood flood-opacity="0" result="BackgroundImageFix"/>
<feColorMatrix in="SourceAlpha" type="matrix" values="0 0 0 0 0 0 0 0 0 0 0 0 0 0 0 0 0 0 127 0" result="hardAlpha"/>
<feOffset dy="4"/>
<feGaussianBlur stdDeviation="3"/>
<feComposite in2="hardAlpha" operator="out"/>
<feColorMatrix type="matrix" values="0 0 0 0 0.729699 0 0 0 0 0.61334 0 0 0 0 0.61334 0 0 0 0.1 0"/>
<feBlend mode="normal" in2="BackgroundImageFix" result="effect1_dropShadow_269_2237"/>
<feBlend mode="normal" in="SourceGraphic" in2="effect1_dropShadow_269_2237" result="shape"/>
</filter>
<filter id="filter8_d_269_2237" x="942" y="33" width="122" height="115" filterUnits="userSpaceOnUse" color-interpolation-filters="sRGB">
<feFlood flood-opacity="0" result="BackgroundImageFix"/>
<feColorMatrix in="SourceAlpha" type="matrix" values="0 0 0 0 0 0 0 0 0 0 0 0 0 0 0 0 0 0 127 0" result="hardAlpha"/>
<feOffset dy="4"/>
<feGaussianBlur stdDeviation="3"/>
<feComposite in2="hardAlpha" operator="out"/>
<feColorMatrix type="matrix" values="0 0 0 0 0.729699 0 0 0 0 0.61334 0 0 0 0 0.61334 0 0 0 0.1 0"/>
<feBlend mode="normal" in2="BackgroundImageFix" result="effect1_dropShadow_269_2237"/>
<feBlend mode="normal" in="SourceGraphic" in2="effect1_dropShadow_269_2237" result="shape"/>
</filter>
<clipPath id="clip0_269_2237">
<rect width="46" height="32" fill="white" transform="translate(541 139) rotate(90)"/>
</clipPath>
<clipPath id="clip1_269_2237">
<rect width="46" height="32" fill="white" transform="translate(434 198.5)"/>
</clipPath>
<clipPath id="clip2_269_2237">
<rect width="46" height="32" fill="white" transform="translate(122 70.5)"/>
</clipPath>
<clipPath id="clip3_269_2237">
<rect width="46" height="32" fill="white" transform="translate(278 70.5)"/>
</clipPath>
<clipPath id="clip4_269_2237">
<rect width="46" height="32" fill="white" transform="translate(434 70.5)"/>
</clipPath>
<clipPath id="clip5_269_2237">
<rect width="46" height="32" fill="white" transform="translate(590 70.5)"/>
</clipPath>
<clipPath id="clip6_269_2237">
<rect width="46" height="32" fill="white" transform="translate(746 70.5)"/>
</clipPath>
<clipPath id="clip7_269_2237">
<rect width="46" height="32" fill="white" transform="translate(902 70.5)"/>
</clipPath>
</defs>
</svg>
