<svg width="200" height="34" viewBox="0 0 200 34" fill="none" xmlns="http://www.w3.org/2000/svg">
<g clip-path="url(#clip0_272_2402)">
<path d="M16.4603 19.9862C16.4603 19.9862 19.4629 18.2754 20.2356 14.9256L18.9445 14.8436L18.788 14.0344C18.788 14.0344 18.0741 14.69 17.9665 14.7515C17.8687 14.8027 17.6046 14.8129 17.5166 14.731C17.497 14.7207 17.4872 14.7002 17.497 14.6285C17.6535 13.7578 18.4751 13.0407 18.4751 13.0407L17.321 12.2007L17.6046 13.2661L17.1254 13.6758C16.9298 13.891 16.7146 14.2085 16.6559 14.3622C16.5288 14.6797 16.4896 14.8949 16.4701 15.0383H16.4505C16.431 14.8949 16.3918 14.6797 16.2647 14.3622C16.206 14.2085 15.9908 13.891 15.7952 13.6758L15.316 13.2661L15.5996 12.2007L14.4455 13.0407C14.4455 13.0407 15.2769 13.7578 15.4236 14.6285C15.4334 14.7002 15.4236 14.7207 15.404 14.731C15.316 14.8027 15.0421 14.8027 14.9541 14.7515C14.8368 14.69 14.1326 14.0344 14.1326 14.0344L13.9761 14.8436L12.6851 14.9256C13.4577 18.2754 16.4603 19.9862 16.4603 19.9862Z" fill="#EB5A41"/>
<path d="M32.412 7.49864C33.1455 6.51522 32.8717 4.82495 32.8717 4.82495L31.297 5.52154L32.2262 4.50738C32.6076 4.08738 32.8228 3.51371 32.7837 2.94004C32.6761 1.47514 31.9719 0 31.9719 0C31.9719 0 27.7957 7.78548 23.639 10.1621C23.639 10.1621 22.5338 13.2763 20.7831 16.2676C19.4138 18.593 17.047 20.2935 16.4601 20.7647C15.8831 20.2935 13.5064 18.593 12.1372 16.2676C10.3767 13.2763 9.2813 10.1621 9.2813 10.1621C5.1344 7.78548 0.958159 0 0.958159 0C0.958159 0 0.253968 1.47514 0.146383 2.94004C0.107261 3.52395 0.31265 4.08738 0.703868 4.50738L1.63301 5.52154L0.0485789 4.8147C0.0485789 4.8147 -0.225273 6.50497 0.508259 7.4884C1.24179 8.47183 2.51325 9.24013 2.51325 9.24013L-0.000323283 8.56403C-0.000323283 8.56403 -0.000323294 10.2953 1.34938 10.9099C2.50347 11.4426 2.95337 11.6577 2.95337 11.6577L1.29069 11.7602C1.32982 13.8807 1.77971 15.9705 2.61105 17.9066L4.29328 21.5432L10.0148 22.1169C10.5723 21.3486 10.9929 20.4164 11.1298 20.0886L8.16633 11.6372L5.62342 10.4592L8.3815 11.3709L11.3939 20.1398C11.0613 21.4101 9.85835 22.9057 9.85835 22.9057C9.64318 23.2028 9.40845 23.4896 9.15416 23.7764L7.4817 25.4155L7.06115 23.6228L6.91444 22.9979L5.67233 23.7969L6.45476 24.094L6.55256 25.4974L5.15396 24.3194L3.66734 25.4462L4.7334 25.2004L5.88749 26.235L4.01943 25.9994L2.56215 26.9009L3.3348 27.0033C4.12702 26.2657 4.39109 26.8087 4.5867 26.9931C4.7334 27.1262 5.12462 27.4131 5.30067 27.495L7.80446 28.4989C7.80446 28.4989 8.49887 27.1365 9.30086 26.3067C10.7092 24.8521 12.0589 25.313 12.0589 25.313C12.0589 25.9174 11.5601 26.7472 11.1494 27.2492C10.7386 27.7511 8.8314 29.2365 8.8314 29.2365L13.9466 32.8834L14.0737 32.6068C14.2498 32.2073 14.5041 31.859 14.817 31.5722L15.1398 31.2751L15.0811 33.3956L16.4699 33.9795L17.8587 33.3956L17.8001 31.2751L18.1228 31.5722C18.4358 31.859 18.6901 32.2073 18.8661 32.6068L18.9933 32.8834L24.1084 29.2365C24.1084 29.2365 22.2012 27.7614 21.7905 27.2492C21.3797 26.7472 20.8809 25.9174 20.8809 25.313C20.8809 25.313 22.2306 24.8521 23.639 26.3067C24.441 27.1365 25.1354 28.4989 25.1354 28.4989L27.6392 27.495C27.8152 27.4131 28.2064 27.1262 28.3531 26.9931C28.539 26.8087 28.8128 26.2657 29.605 27.0033L30.3777 26.9009L28.9204 25.9994L27.0523 26.235L28.2064 25.2004L29.2725 25.4462L27.7859 24.3194L26.3873 25.4974L26.4851 24.094L27.2675 23.7969L26.0254 22.9979L25.8787 23.6228L25.4581 25.4155L23.7857 23.7764C23.5216 23.4794 23.2967 23.1925 23.0815 22.8955C23.0815 22.8955 21.8785 21.3998 21.546 20.1296L24.5583 11.3607L27.3164 10.4489L24.7735 11.627L21.81 20.0783C21.947 20.4061 22.3675 21.3486 22.925 22.1067L28.6466 21.533L30.3288 17.8964C31.1601 15.9602 31.61 13.8704 31.6491 11.7499L29.9865 11.6475C29.9865 11.6475 30.4266 11.4324 31.5905 10.8997C32.9304 10.285 32.9304 8.56403 32.9304 8.56403L30.4266 9.25038C30.4266 9.25038 31.6883 8.48207 32.4316 7.49864H32.412Z" fill="#EB5A41"/>
<path d="M156.437 18.1627L153.562 18.2344L153.464 13.9524C150.647 16.6875 147.576 18.3778 143.967 19.3715L142.588 17.251C145.346 16.1241 147.958 15.2841 150.354 13.1533L143.097 13.0611L143.117 10.4284L153.484 10.3977L153.464 8.20546L145.014 8.42058C144.799 7.50886 144.681 6.62787 144.662 5.75713C151.508 5.75713 157.836 5.44981 164.761 4.53809L165.377 7.24252L156.535 8.15424L156.506 10.4182L166.854 10.4489L166.775 13.0919L159.626 13.1738C162.032 15.2739 164.585 15.8782 167.382 17.0563L165.924 19.3715C162.345 18.1729 159.381 16.5339 156.486 13.9933L156.408 18.1729L156.437 18.1627Z" fill="#383838"/>
<path d="M156.673 29.2876C152.604 31.2238 148.418 31.9716 144.007 32.156L142.911 29.5745C146.119 29.2569 149.122 29.1545 152.203 28.0686L146.325 26.3476L148.555 23.2641L142.735 23.1924L142.687 20.5495L150.56 20.488L152.164 18.1729L155.186 18.7875L154.227 20.5085L167.216 20.488L167.265 23.131L162.531 23.2232C161.729 24.811 160.81 25.9481 159.489 27.2798L166.864 29.6257L165.328 32.0945L156.682 29.2672L156.673 29.2876ZM156.047 26.3681C157.406 25.4461 158.423 24.6061 159.186 23.2027L152.164 23.131L150.853 25.0159L156.047 26.3578V26.3681Z" fill="#383838"/>
<path d="M99.1145 31.8898L80.2774 31.9103L80.2383 19.6174L99.1243 19.6379V31.9L99.1145 31.8898ZM96.1217 28.8985V22.4755L83.2311 22.5165L83.2604 28.8985H96.1217Z" fill="#3E3E3E"/>
<path d="M96.5225 16.7798H82.7908L82.6734 14.5466L77.6365 17.7222L76.502 14.8437C80.952 12.2314 84.786 9.05578 87.857 4.65084L91.0552 4.60986C94.1458 8.95334 98.058 12.1392 102.625 14.6798L101.403 17.5993L96.6594 14.6695L96.5225 16.7798ZM95.5542 13.8295L89.5393 7.6421C87.6614 9.87531 85.7738 11.7705 83.6221 13.8295H95.5542Z" fill="#3E3E3E"/>
<path d="M193.33 31.5108H181.388C180.361 32.0742 179.295 32.105 178.102 31.9206V21.9531H196.547L196.587 31.8079C195.511 32.1152 194.357 32.064 193.339 31.5108H193.33ZM193.633 25.7127L193.594 24.2478H180.987L181.065 25.7127H193.633ZM193.564 29.2469C193.731 28.9498 193.682 27.823 193.388 27.823L181.055 27.7922C180.948 28.2942 180.948 28.8269 181.055 29.2674L193.555 29.2469H193.564Z" fill="#383838"/>
<path d="M197.623 20.8057H176.83V12.5183L197.633 12.4875V20.8057H197.623ZM184.654 17.8145L183.079 18.4906L185.925 18.552L185.876 14.7822H179.509V18.552L182.512 18.5213L180.673 15.5403C181.407 15.2739 182.336 15.0281 182.962 15.0895L184.654 17.8247V17.8145ZM194.933 18.4906V14.7617H188.586V18.5623L194.933 18.4906Z" fill="#383838"/>
<path d="M192.439 11.2173H182.268L182.082 9.88558C179.754 10.9817 177.73 11.8524 175.294 12.6105L174.434 9.92655C178.473 8.64605 182.013 7.07871 185.554 4.64062H188.948C192.4 7.0992 195.931 8.55385 200 9.83436L199.159 12.6207L192.694 9.99826L192.43 11.2275L192.439 11.2173ZM190.865 9.05581L187.393 6.85334L183.94 8.97386L190.865 9.04557V9.05581Z" fill="#383838"/>
<path d="M50.3103 26.3785L44.2073 27.9459L43.728 24.9956L45.2929 24.5039L45.3125 8.14412L44.0508 7.88802L44.0997 5.18359H53.8899L53.9095 7.82656L52.9901 8.0929C52.7749 8.15437 52.7749 8.75877 52.7749 9.11731L52.8238 31.9513L50.3494 32.023L50.3103 26.3785ZM50.3592 11.3812L50.2907 7.96998L47.8162 8.06217L47.8358 11.412L50.3592 11.3812ZM50.3494 17.4969L50.2809 14.0549H47.826V17.4765L50.3494 17.4969ZM50.3787 23.5204L50.3005 20.0784H47.8065L47.8456 24.0634L50.3787 23.5204Z" fill="#383838"/>
<path d="M65.4504 10.2543L66.5556 8.24649L68.7953 9.07626L64.7756 15.9295L66.4382 15.909L66.0568 13.9422L68.0031 13.809L69.1279 17.9988C69.2159 18.3061 68.2965 18.7569 67.9933 18.8081C67.5923 18.8798 67.1816 18.5418 66.7903 17.9988L62.0566 18.6852L61.5774 18.0705L60.3059 18.7671C59.944 18.9618 59.3279 18.5418 59.0051 18.0808L53.8508 18.7569L53.6944 16.7388C54.7506 15.4788 55.582 14.3315 56.4818 12.9075L54.3301 12.7436L53.6846 11.0021C55.0832 8.86113 56.1492 6.98647 57.3327 4.59961C58.0662 4.64059 58.8389 4.8762 59.6115 5.27572L56.8241 10.3158L57.587 10.4592C57.8217 10.5002 58.2129 10.0392 58.3401 9.80359L59.1421 8.33869L61.3524 9.0148L58.389 13.9627L60.257 13.9319L61.3915 17.7735L61.6556 16.5442L64.1007 12.8461L61.773 12.6412C61.4894 12.3851 61.1862 11.2173 61.3524 10.8177C62.4967 8.86113 63.553 6.8533 64.5408 4.63034C65.2548 4.72254 66.0079 4.94791 66.8001 5.27572L64.2474 10.3875C64.267 10.4387 65.3135 10.4695 65.4406 10.2441L65.4504 10.2543ZM58.8389 15.9603L58.2422 14.1778L57.0099 16.0525L58.8389 15.9705V15.9603Z" fill="#383838"/>
<path d="M57.5478 27.3209L54.1149 27.239L54.0464 20.0067L56.5208 19.8325L56.5502 24.5141C56.8142 24.6677 57.6651 24.7087 58.115 24.6267L58.1737 19.5867H60.6384C60.5993 25.2004 61.235 30.138 55.3178 32.1868L54.1149 30.4044C55.5135 29.5541 56.7067 29.3185 57.5576 27.3209H57.5478Z" fill="#383838"/>
<path d="M68.492 19.8632L68.5311 27.2697L64.4527 27.2287L64.4038 32.0332L61.9098 31.9922L61.8315 19.5866L64.4331 19.5559L64.4527 24.7087L66.0665 24.7189L66.0567 19.9657L68.492 19.8632Z" fill="#383838"/>
<path d="M119.683 19.5969L118.412 22.5575L116.397 20.0579L116.319 31.982L113.482 31.9512V21.0208L110.675 23.3053L109.746 20.3857C112.357 18.1013 114.411 15.7042 115.79 12.1905L110.411 12.0983L110.47 9.34262L113.815 9.24018L113.159 4.66109L116.025 4.62012L116.495 6.91478C116.641 7.61138 116.622 8.33871 116.495 9.14799L119.038 9.33238C119.751 12.1495 117.913 14.0959 116.72 16.6671L119.35 18.9618L120.289 18.5725L134.403 18.593V31.7669H119.751L119.673 19.5969H119.683ZM125.766 23.797L125.737 21.1745H122.578L122.568 23.7867L125.766 23.8072V23.797ZM131.664 23.7765L131.615 21.1745H128.446V23.8072L131.674 23.7867L131.664 23.7765ZM125.766 29.1136L125.737 26.3273L122.549 26.3477L122.568 29.1546L125.766 29.1136ZM131.674 29.1546L131.615 26.3273H128.437V29.1136L131.674 29.1546Z" fill="#3E3E3E"/>
<path d="M133.473 16.9028H120.847L120.817 9.57833L133.434 9.53735L133.463 16.8926L133.473 16.9028ZM130.725 14.6082L130.656 11.9959L123.566 12.0267L123.546 14.5877L130.725 14.6082Z" fill="#3E3E3E"/>
<path d="M134.637 7.93929L119.761 7.95978L119.751 5.24511L134.637 5.23486V7.93929Z" fill="#3E3E3E"/>
<path d="M192.176 17.9989C191.755 18.5008 190.259 18.1628 189.75 18.0706L191.471 15.0281C192.166 15.11 193.046 15.3149 193.838 15.571C193.33 16.4008 192.802 17.251 192.176 17.9989Z" fill="#383838"/>
</g>
<defs>
<clipPath id="clip0_272_2402">
<rect width="200" height="34" fill="white"/>
</clipPath>
</defs>
</svg>
