<svg width="280" height="180" viewBox="0 0 280 180" fill="none" xmlns="http://www.w3.org/2000/svg">
<g opacity="0.7">
<path d="M178.765 134.807C174.073 131.853 170.966 127.305 167.058 123.577C166.549 123.09 166.632 121.567 166.651 120.742L138.495 147.812C138.074 148.217 136.899 148.293 136.544 148.008L119.368 134.152C116.469 135.602 113.311 136.013 110.306 135.468C109.923 135.399 108.851 135.513 108.744 135.866L108.216 137.612C102.646 140.042 96.881 142.384 91.1145 144.548C86.3288 146.342 81.8387 143.057 76.8582 141.33C75.6687 147.029 76.726 153.048 74.6636 159L75.7991 140.87L67.5406 136.585C67.4172 136.52 67.1059 136.251 67.0311 136.171C66.9198 136.053 67.0329 135.557 67.1946 135.578C67.3563 135.599 67.7876 135.698 68.0467 135.84C73.6097 138.898 79.9154 142.003 86.2383 143.996C87.5182 144.4 89.0712 144.337 90.2972 143.897C96.2706 141.757 101.743 139.477 107.625 136.983C107.452 134.388 107.11 132.237 106.489 129.938L88.4903 133.771C79.531 128.951 70.9108 119.586 61.3933 117.231C55.2755 119.412 52.4966 126.989 51.408 132.966L46.5022 159.903L53.486 162.409C51.4079 162.633 49.5124 161.899 47.6152 161.336C47.2535 162.757 47.0779 163.864 46.0849 165.016L46.4657 161.348C46.1962 160.512 45.8171 159.55 45.9666 158.63L47.7613 147.502C49.709 135.434 45.5249 122.993 43.8468 110.194L38.355 130.963L36.4839 138.484L36.0074 140.558C35.7048 141.873 41.0696 142.715 39.6019 146.066L34.6092 146.215C34.6562 146.676 34.2493 147.387 34.1101 147.972L28.7488 170.304C28.6879 170.561 27.9367 171.013 27.7524 170.86L33.8423 145.153L39.1637 145.389C38.6663 142.923 36.3969 143.028 34.8996 141.158L42.786 110.385C42.946 109.757 43.4033 108.877 43.6677 108.293C43.7633 106.481 42.826 104.213 43.1634 102.439C44.9145 93.2036 46.1214 84.2913 47.1718 74.9824C39.6367 75.4781 32.6789 73.6817 26.0864 70.0246C23.5788 74.2868 22.824 78.9839 23.4222 83.9L19.5217 104.238L15.0159 121.455L11.7658 136.952C15.2681 137.934 18.52 138.423 22.0641 138.753L29.3122 112.3C32.0338 102.365 34.8127 92.828 38.3776 82.8305C38.1237 88.4788 35.3048 93.2489 34.2353 98.7406C33.8058 100.942 34.3223 103.227 34.3519 105.582C34.3536 105.744 34.3519 105.905 34.3519 106.069L33.4476 101.18L27.9837 119.869L22.8588 138.83C22.311 139.245 20.7477 140.791 21.3181 141.087L26.4707 143.763C27.0672 144.073 27.4741 145.528 27.8724 146.334C28.4619 146.565 29.827 146.568 30.8669 146.525L35.2457 128.898C35.6126 127.418 38.3672 114.778 39.7149 114.618L33.6806 138.524L25.363 171.862C25.7873 164.144 28.8636 157.241 29.9417 149.565L12.7309 149.54C10.2841 156.74 9.77113 163.997 6.67919 171.264L11.6405 149.874L9.9224 149.712L4.62716 170.678C4.33501 170.601 3.94548 170.147 4.00635 169.906L11.6336 139.901C11.9501 138.658 11.3536 137.623 11.0441 136.806C12.2457 129.688 13.63 122.367 15.602 115.332L18.8017 103.919C20.6746 97.2381 21.4972 90.3899 22.2989 83.4774C22.8258 78.923 22.1006 74.3999 25.0882 70.3689L24.763 68.3534C27.415 62.0791 29.667 55.9943 31.7034 49.5131C33.6267 43.3918 35.7604 35.582 41.8852 32.9404L38.7376 31.0397C36.7986 29.8694 34.5692 28.7703 34.1675 26.1287C33.8302 23.9132 35.3066 21.5256 37.256 20.3553C40.1549 18.6163 41.7009 16.4304 43.0103 13.4184C45.1545 8.47967 51.2184 7.085 55.912 8.55445C58.2109 9.27439 59.7621 9.9265 61.4472 11.5403C62.7706 12.8063 64.0192 14.2723 64.2261 15.8095C64.5304 18.0598 63.9409 19.8719 62.261 21.2978C60.4681 22.8195 62.2263 23.8576 62.1254 25.4592C62.1028 25.8244 60.9811 26.2731 60.8646 26.647C59.8091 30.0363 61.5672 33.3543 59.5047 35.2185C57.6266 36.9175 54.6616 35.2463 54.4634 36.3402L63.3357 46.4107C67.4189 44.9534 71.2308 43.9604 75.0061 42.2197C76.8495 41.3693 77.8477 38.7956 80.2231 38.4513C89.4711 28.2034 103.741 24.0124 116.923 28.2121C125.653 30.9928 132.357 36.9036 137.511 44.6491C145.076 33.283 157.325 26.087 170.714 26.5704C184.874 27.0817 195.913 36.3819 201.586 48.9705C202.776 51.6103 207.365 54.744 206.777 58.175C206.697 58.6428 208.286 59.0984 208.612 59.4671L218.618 70.8367C218.766 71.3705 235.02 73.9251 233.448 72.1879L233.104 70.4036C233.024 69.9915 231.791 69.9932 231.283 69.9098C226.339 69.1029 229.179 63.8998 227.636 62.2982C227.095 61.7365 226.301 60.7174 227.122 60.1349C228.847 58.9123 230.469 56.3125 229.64 54.3197C228.488 51.5512 229.088 49.5757 230.973 47.8576C233.137 45.8838 234.465 46.7602 236.881 47.3167C240.122 48.0645 243.564 47.6593 246.376 50.273C247.423 51.2468 247.857 52.7337 248.483 54.0936C249.362 55.9995 250.478 57.5159 249.763 59.8479C249.087 62.0547 247.939 63.8598 246.245 65.4284L242.531 68.8646C241.887 69.4611 242.326 71.4714 242.83 72.2887C247.271 74.3599 250.108 78.3682 251.233 83.2218L257.258 109.188L257.436 112.326C257.551 114.352 262.397 137.998 263.731 140.795L276.02 166.525C275.64 169.9 279.864 172.252 278.839 174.923L276.177 170.121C275.753 169.356 275.194 168.6 274.754 168.25C274.701 168.207 274.113 168.749 274.052 168.779L273.548 169.034L273.01 169.309L268.233 171.852L268.818 174.507L268.275 174.87L267.623 172.892C267.478 172.455 266.327 172.345 265.672 172.163L252.276 147.758L246.103 133.161C245.722 137.772 243.746 142.268 244.063 146.713L245.607 168.457L244.866 168.299L244.463 163.077C244.032 157.493 243.098 151.957 243.226 146.356C243.332 141.788 244.725 137.305 245.318 132.823C245.513 131.343 245.48 130.458 244.868 129.109L242.913 124.801L243.906 124.749L247.163 132.742C249.233 137.819 250.523 142.791 253.24 147.768L265.842 170.848C266.007 171.151 266.673 171.525 266.814 171.462C269.223 170.387 272.96 168.492 275.368 166.895L263.079 141.471C260.634 136.414 258.218 118.134 256.271 112.343C250.937 114.277 245.278 115.463 239.496 115.6L233.704 115.739L231.977 147.093C231.65 153.044 234.152 158.434 233.123 164.471L231.365 150.191C230.805 145.636 231.358 141.083 231.643 136.458L232.785 117.892C232.859 116.699 232.472 115.564 232.318 114.405L229.273 91.7968C225.332 92.1133 221.607 93.708 217.889 93.181C212.213 91.0525 207.177 88.0215 201.72 85.3399C201.106 85.0373 200.896 83.8774 200.864 83.1261C199.969 82.4097 198.299 82.0845 196.849 82.1089C192.248 90.736 186.775 98.4415 180.57 105.952C180.153 107.769 179.643 109.531 178.647 111.232L186.052 122.344C189.61 122.954 193.004 123.18 196.555 122.984C193.828 122.029 193.155 120.991 192.912 118.68C192.719 116.851 192.411 115.131 192.495 113.103C192.524 112.397 192.272 111.654 191.803 110.915C190.371 108.658 194.811 109.295 194.326 105.674C193.966 102.989 195.387 100.626 197.915 99.4884C202.676 97.3494 208.725 98.4398 212.316 102.361C217.877 108.436 211.385 114.372 216.027 120.422C219.708 125.22 214.244 127.448 218.503 133.368C220.696 136.416 220.014 140.918 216.343 142.501C215.462 142.88 214.281 143.148 213.053 143.527L213.392 151.504C213.46 153.098 213.818 154.571 214.293 156.19L215.091 158.915C220 175.5 214.728 159.602 214.674 159.524C214.594 159.406 214.338 159.046 214.276 158.849L212.364 152.867C205.57 154.119 199.428 154.436 192.846 153.698L190.905 160.08C188.5 171.5 186.5 171.5 190.036 160.256L191.889 153.75L189.824 137.322C186.519 135.99 182.047 136.877 178.76 134.807H178.765ZM79.4789 42.7014L77.4199 42.2423L78.6511 40.0634L75.6531 42.9988C75.2044 43.437 74.2827 44.0839 74.4027 44.5795L74.8375 46.369C76.3695 43.1118 78.1694 45.6838 79.4771 42.7014H79.4789ZM70.1978 63.4146C70.5491 63.665 71.5299 64.8893 71.5386 64.3189C71.6064 59.8375 71.8481 56.2151 72.8307 51.779L63.9131 55.8239C60.9498 57.1681 57.9692 52.678 56.778 53.8727L70.1978 63.4146ZM75.7348 98.4207C75.0444 99.7893 75.7835 102.403 76.8391 103.392C77.3625 103.883 78.1398 104.587 78.0094 105.027C77.1973 107.782 76.6739 104.095 76.5 110.105C76.4704 111.138 76.1087 112.729 75.3905 113.185C74.4949 113.752 73.2602 113.823 71.869 114.044C71.3612 114.623 71.0256 116.837 71.1751 117.727L75.3731 120.482C78.1189 122.283 80.6805 123.798 83.7707 125.269L89.9476 116.447C90.6345 115.466 91.6188 114.435 92.4848 113.501C92.2501 111.258 91.9057 108.58 91.2675 106.622C83.1273 96.466 76.3747 85.752 73.0846 73.4052L68.3006 69.7011L66.4381 70.1585L51.3575 62.3973L48.9021 73.906L47.9873 75.2989L45.4919 95.9043C45.2119 98.2085 46.2744 101.053 46.5457 103.518L50.015 134.962C52.2461 126.695 53.2165 119.56 61.8037 116.021C62.2141 114.781 62.5149 113.32 62.5758 112.301C60.3168 111.348 59.6717 109.785 58.2665 108.312C57.0545 107.043 55.6789 105.777 55.2407 104.403C54.5921 102.373 55.785 100.885 56.2128 99.1858C56.7797 96.9355 57.1449 95.3617 59.0161 93.8627C60.6368 92.5637 62.3393 91.9359 64.4313 91.3325C66.7877 90.6526 68.9927 90.0404 71.3508 91.3725L74.5053 90.7656C76.0739 91.4038 76.7347 92.8506 76.9347 94.1479C77.1817 95.7617 76.4947 96.9077 75.7313 98.4207H75.7348ZM219.475 82.4392C219.623 82.4236 220.127 81.9871 220.016 81.9384L219.216 81.5889C217.583 80.8742 214.677 80.6933 213.382 79.1995C209.448 74.6694 206.135 69.8106 202.812 64.9258L200.577 74.6364C200.221 76.1858 203.038 78.0222 204.523 77.2762L219.477 82.4392H219.475ZM78.3398 70.6193L73.7558 67.3604L75.5957 66.6248C73.881 65.9049 72.1542 65.4562 70.1213 65.2858L68.3023 68.3725C70.3787 70.2489 72.2325 71.9792 74.4323 72.8974C75.4496 71.9235 76.4756 71.3914 77.559 71.7549L76.6739 70.8001C76.5382 70.6541 77.3103 70.6714 77.5086 70.661L78.3398 70.621V70.6193ZM69.7492 119.508L70.683 114.117L69.4553 112.882C71.6795 112.72 73.5715 113.818 75.0375 112.209C76.6321 110.458 74.088 107.086 77.2129 104.954C74.0306 102.02 75.4061 101.633 74.2897 98.4345C72.2151 99.1128 70.8221 99.4084 68.7614 99.7388C69.0431 101.718 68.6623 103.852 66.7668 104.782L64.4261 103.855C63.4836 104.272 63.4123 105.94 63.8853 106.648C64.2244 107.157 65.1199 107.448 65.9929 107.573L65.3269 110.599C64.9843 112.157 63.7235 110.754 62.5775 116.484L69.7509 119.506L69.7492 119.508ZM49.5385 138.649L45.8832 104.486C45.664 102.431 45.3249 100.591 44.9563 98.4711C44.5841 99.7301 43.8503 101.567 44.0085 102.979L48.4812 143.167C48.6969 142.061 49.7124 140.285 49.5385 138.649ZM193.733 117.151C194.764 118.55 196.651 118.317 197.849 118.334L197.548 124.163C199.285 124.622 201.103 124.339 202.522 123.587C201.181 120.492 201.69 116.68 203.476 114.426C204.146 114.2 205.581 113.812 205.721 113.232C205.906 112.475 205.64 111.432 205.167 110.941L203.245 111.447C200.151 109.729 198.838 106.825 198.585 103.106C194.663 105.837 196.616 107.41 192.491 110.15L193.818 112.983L196.534 113.14C196.466 114.237 195.5 116 193 115L193.5 114L193.528 113.898C193.373 114.682 193.253 116.499 193.731 117.15L193.733 117.151ZM174.538 113.033C174.736 113.569 175.519 114.44 176.009 114.195C177.103 113.649 177.604 112.1 177.779 111.044C178.021 109.59 179.715 108.608 179.367 106.778L177.701 109.107L177.284 107.648C177.444 110.27 173.943 111.435 174.538 113.033ZM99.2878 115.654L95.8932 112.103L94.0569 109.639C93.49 108.879 93.0065 108.098 92.5822 107.234L93.5195 114.332L96.6115 117.544L99.2895 115.652L99.2878 115.654ZM167.764 119.869L169.63 117.68C169.202 115.915 168.411 113.962 167.126 112.738L166.947 114.285L163.634 111.948C163.521 112.639 163.532 112.882 163.361 112.842L162.643 112.668C162.575 112.974 162.467 113.473 162.466 113.459C162.466 113.451 162.069 113.305 161.798 113.199L161.973 115.878L167.763 119.869H167.764ZM192.369 125.462C193.06 125.436 194.155 124.532 193.936 124.2L185.457 123.097L178.725 112.915L175.061 116.346C178.207 123.057 176.598 121.297 182.294 125.853L192.371 125.46L192.369 125.462ZM175.786 120.647L174.256 116.339C174.588 115.348 174.736 114.037 173.435 113.515L170.547 116.677L175.786 120.647ZM74 122.5C75.2214 123.643 74.6653 123.135 75.3279 123.643C79.3954 126.765 83.6159 129.67 87.8765 132.484C88.3686 132.809 90.0572 132.802 90.3563 132.262C92.7352 127.966 94.8081 123.396 96.7001 118.791L92.3648 114.593L84.4628 125.824C85.1671 126.888 85.5723 127.34 85.974 128.625L83.1655 126.099C79.3223 123.939 75.7191 121.829 72.0481 119.419C71.7664 119.233 70.9404 118.89 70.8134 119.169L70.4082 120.052C70.3387 120.203 71.5 120.5 72 121L73 121.5L74 122.5ZM106.506 129.164C107.438 128.973 108.55 129.264 109.099 128.651L111.299 127.012L100.208 116.508C98.2113 116.623 97.6027 118.36 97.0132 120.017C95.4916 124.29 93.4969 128.119 91.5179 132.246L106.506 129.164ZM118.704 131.975C118.798 131.241 118.778 131.098 118.923 131.06L119.526 130.896C117.707 129.587 115.613 130.51 112.487 129.163L114.661 127.924C111.864 127.394 109.73 128.844 107.673 130.672L108.404 134.731C111.353 134.063 116.833 136.39 117.186 132.383L118.705 131.975H118.704ZM20.4103 141.96L20.4625 139.517L12.9083 138.242L10.898 146.45L25.6847 146.94C26.156 146.956 26.8637 146.123 26.775 145.775C26.2412 143.671 22.191 142.798 20.4138 141.96H20.4103ZM29.0983 147.539C26.0707 147.655 23.4449 147.716 20.6312 147.627L11.6562 147.349C11.1554 147.333 10.7258 147.379 10.4511 147.507C10.1763 147.636 10.5815 148.726 10.9797 148.725L29.9748 148.716C30.2478 148.716 30.6061 147.478 30.3278 147.488L29.0983 147.535V147.539Z" fill="#F8C4BB"/>
<path d="M192.369 125.462C193.06 125.436 194.155 124.532 193.936 124.2L185.457 123.097L178.725 112.915L175.061 116.346C178.207 123.057 176.598 121.297 182.294 125.853L192.371 125.46L192.369 125.462Z" fill="#F8C4BB"/>
<path d="M23.5 142L34 105V103.5L35 105.5L24 142.5L23.5 142Z" fill="#F8C4BB"/>
<path d="M74.0814 47.9775C74.7352 51.4555 65.1534 53.8327 62.5014 55.3631C59.9572 54.1371 57.7782 52.8345 55.5332 51.2608L55.7732 39.3765L62.6666 47.0715L62.9587 48.6088L64.2612 47.0489L73.3197 43.9292L74.0814 47.9775Z" fill="#FBE1DD"/>
<path d="M69.5682 63.9728L66.8762 69.3237C61.8314 66.8821 57.1865 64.7658 52.5521 61.9347C50.2827 60.5487 48.695 58.2828 47.0256 56.2812C45.0101 53.8658 43.9423 50.9042 41.2764 48.8905C43.6693 53.8066 47.036 57.7176 50.5488 61.8199L48.0498 73.9529C40.2921 74.8763 32.5866 72.906 25.5576 68.809C28.4044 61.8286 30.9033 55.0778 33.0736 47.9288C34.0717 44.6369 35.3238 41.6423 36.8055 38.6147C38.6697 36.034 40.8851 33.516 44.2327 33.4099C46.4082 34.6846 49.8966 38.693 52.7921 36.0706L54.9223 38.26L54.5728 49.4609L49.2741 40.1746C48.8724 39.472 48.2811 38.7625 47.4412 38.7991L52.7834 48.3496L56.6735 54.9648L69.5682 63.9728Z" fill="#FBE1DD"/>
<path d="M211.728 137.865L212.592 151.816C206.443 153.234 200.381 153.522 194.187 152.989C193.074 152.893 192.425 152.119 192.315 151.114L190.75 136.764L198.216 136.774C195.242 135.381 192.392 136.405 189.227 136.039C185.94 135.656 181.791 135.372 178.88 134.004C174.475 130.432 171.103 126.493 167.269 122.313L170.59 117.753L181.871 126.678C189.149 126.632 196.327 126.083 203.172 124.718C207.832 127.048 202.854 130.627 209.677 134.564C210.95 135.298 211.636 136.378 211.728 137.865Z" fill="white" fill-opacity="0.8"/>
<path d="M211.728 137.865L212.592 151.816C206.443 153.234 200.381 153.522 194.187 152.989C193.074 152.893 192.425 152.119 192.315 151.114L190.75 136.764L198.216 136.774C195.242 135.381 192.392 136.405 189.227 136.039C185.94 135.656 181.791 135.372 178.88 134.004C174.475 130.432 171.103 126.493 167.269 122.313L170.59 117.753L181.871 126.678C189.149 126.632 196.327 126.083 203.172 124.718C207.832 127.048 202.854 130.627 209.677 134.564C210.95 135.298 211.636 136.378 211.728 137.865Z" fill="#FAD782" fill-opacity="0.3"/>
<path d="M191.828 75.0659L192.76 75.1129C193.393 75.1459 194.193 74.9842 194.621 74.8051L197.988 76.3145L197.49 74.2729C199.471 75.339 201.024 76.9493 202.452 78.6709L201.355 82.0098C198.873 81.7385 188.622 78.9022 192.171 75.6016C192.079 75.4659 191.715 75.0607 191.828 75.0659Z" fill="#FBE1DD"/>
<path d="M206.538 59.8705L203.882 62.3746C201.336 60.3539 204.548 57.6915 200.698 55.5473C200.375 55.3682 199.743 54.7769 199.823 54.4605C199.905 54.144 200.183 53.4327 200.302 53.1666L203.063 54.5422L201.98 51.1216C205.028 53.3388 205.72 56.7611 206.538 59.8705Z" fill="#FBE1DD"/>
<path d="M218.364 71.8418L232.429 73.7616C230.948 75.1163 230.038 76.8153 228.936 78.883L222.009 81.6132C219.441 80.7159 216.243 80.1524 214.022 78.6413C210.078 74.1546 206.997 69.4959 203.527 64.5971C204.837 62.752 206.075 61.4599 207.873 59.9626L218.364 71.8418Z" fill="#C1E3FF"/>
<path d="M229.551 65.609C230.633 66.5481 232.139 65.1343 232.353 63.83L229.426 63.7431C228.878 62.5588 228.414 61.8232 227.637 60.912C230.887 58.3818 229.612 56.9384 231.614 53.6743C233.334 54.709 234.767 55.3959 236.652 56.1541C236.464 57.7105 237.166 60.8703 238.989 61.1033C239.537 61.0998 240.874 60.6268 241.387 60.7798C241.935 60.945 242.126 62.5675 241.754 63.0127C241.401 63.4336 240.662 63.8944 239.965 64.3848C238.584 65.3569 239.472 68.2088 241.048 68.8766L241.815 72.4903C239.651 73.7963 237.765 74.6571 234.876 75.1179L234.108 71.1182C234.022 70.6748 234.448 69.7131 234.661 69.0001C232.81 69.2001 230.857 69.6557 229.517 67.9932C228.936 67.2733 229.023 65.376 229.351 64.6005L230.466 64.8265C230.576 64.8491 230.626 64.9048 230.53 64.9674L229.551 65.609Z" fill="#FDFCFA"/>
<path d="M250.36 83.0791L256.857 111.153C249.24 114.273 241.251 115.242 233.17 114.785L230.149 91.6106L237.142 89.8838L237.599 89.4943C239.416 87.9466 220.458 93.8713 216.754 91.988L201.762 84.3677C202.27 81.987 202.854 80.0602 203.836 77.9804L219.552 83.34L231.721 78.9038C234.54 77.876 237.236 77.2569 239.999 75.8136C236.425 76.0014 233.667 77.4882 230.328 78.349C230.759 76.5822 232.059 74.7423 233.632 74.4345C234.401 77.9143 240.933 73.8868 242.623 73.2051C246.706 75.078 249.156 78.7264 250.36 83.0791Z" fill="#C1E3FF"/>
<path d="M201.906 58.9453C202.288 64.2214 201.363 69.4419 199.443 74.3215C197.931 73.3077 196.924 73.6086 195.717 73.9894C195.139 73.8068 193.646 72.8208 193.117 73.1738L190.715 74.7719C189.455 78.8812 192.701 79.928 196.061 81.6583L193.72 86.0424L171.508 86.0545C171.122 86.0545 170.334 86.4528 170.122 86.7501C169.171 88.0805 173.237 90.4316 172.15 95.4399C171.411 98.8501 168.674 101.14 165.401 101.156C162.01 101.173 159.184 98.7736 158.464 95.2121C157.572 90.7968 161.441 88.0579 161.031 86.7171C160.951 86.4597 160.276 86.0841 160.003 86.0841L138.019 86.0371L138.043 68.2959C140.924 70.5357 144.093 71.2922 147.133 69.9097C150.089 68.5637 151.897 65.663 151.812 62.1816C151.732 58.9331 149.779 56.309 147.188 55.1334C144.103 53.7335 141.251 54.5422 138.067 56.6324L138.019 45.3898C146.294 32.5995 162.058 24.3497 177.203 28.3615C188.7 31.4048 198.798 40.6302 201.054 52.238C200.057 52.4536 199.127 52.8988 198.997 53.7944C198.567 56.735 201.671 55.6899 201.906 58.9453Z" fill="#C1E3FF"/>
<path d="M137.163 86.9657L137.059 111.103L131.6 108.842C127.533 108.594 123.992 110.802 122.65 114.258C121.177 118.05 122.599 122.193 125.735 124.328C129.179 126.676 133.195 126.126 137.007 123.29L136.934 147.074L121.237 134.616C120.498 134.028 120.01 133.399 120.458 132.526C120.582 131.865 120.705 131.122 120.558 130.743C120.385 130.302 119.345 129.642 118.832 129.566L114.96 128.994L115.607 128.199C115.779 127.987 115.661 127.109 115.367 127.098L112.694 126.999C106.946 121.907 101.281 116.885 96.2881 110.981C96.9263 111.668 93.6152 105.886 93.2866 105.917L91.9528 106.046C87.1201 100.199 83.0195 94.0034 79.2998 87.0196L102.009 86.9552C105.127 86.9465 101.192 83.9764 100.78 79.9836C100.476 77.0256 101.914 74.3492 104.047 73.0015C106.496 71.4538 109.637 71.3825 111.96 73.1511C115.594 75.9178 115.911 80.8201 113.228 84.5033C112.809 84.8024 112.537 86.8735 113.148 86.8752L137.163 86.9657Z" fill="#FAD782"/>
<path d="M170.837 86.9258L193.127 87.004C189.088 93.567 184.801 99.4518 180.09 105.184C179.047 105.018 177.916 105.246 177.447 105.952C172.159 108.288 178.734 108.051 170.087 115.661C169.359 114.385 168.548 112.11 167.284 112.079C165.815 112.042 165.335 112.346 164.232 111.3C163.446 110.554 161.749 111.367 161.092 112.327C160.44 113.279 160.709 115.835 161.667 116.6C163.191 117.821 164.509 118.696 166.232 119.911L138.206 146.68L138.045 122.876L137.245 122.134C136.895 121.808 131.25 127.745 125.66 123.151C122.242 120.342 122.218 115.494 124.806 112.453C127.765 108.975 132.523 109.091 136.052 111.88C136.247 112.033 136.834 112.352 137.048 112.465C137.311 112.604 137.991 111.849 137.991 111.506V86.9501L160.196 86.9675C158.716 89.1117 157.631 91.0316 157.407 93.3636C157.188 97.9058 160.346 101.662 164.592 102.057C168.905 102.459 172.646 99.3753 173.284 94.88C173.569 92.035 172.32 89.769 170.837 86.9258Z" fill="#BEE2BA"/>
<path d="M150.894 62.2026C150.986 65.0876 149.531 67.6109 147.127 68.8838C144.646 70.1968 141.658 69.842 139.248 67.9986C138.65 67.5396 137.94 67.2283 137.071 67.2474L137.01 86.0912L113.6 86.0077C115.132 83.0636 116.018 81.229 115.933 78.6779C115.521 74.1756 112.175 70.8958 107.734 70.9532C103.625 71.0054 99.9849 74.2973 99.8423 79.0065C99.7606 81.6846 100.973 83.5731 102.166 86.0303L78.8752 86.0616C76.8284 82.3176 75.4615 78.3283 74.246 74.1043C75.5572 73.9426 77.1275 73.8034 77.9448 73.2574C78.637 72.7965 79.2874 71.2993 79.3465 70.3063L76.0302 68.0282L76.5554 66.7031C76.6962 66.3449 75.8111 65.6945 75.3955 65.5832L72.7018 64.8633C71.8653 58.1403 73.2808 51.3652 76.5049 45.43C79.1082 45.2735 80.8455 43.7292 81.2611 41.4911L79.8543 40.3103C91.2708 25.9079 112.88 22.9586 127.414 34.7907C131.073 37.7679 134.994 41.232 136.716 45.6404L137.3 57.4638C137.408 59.6602 140.935 53.4641 146.694 55.8465C149.08 56.8326 150.798 59.2341 150.894 62.2026Z" fill="#F8C4BB"/>
<path d="M60.1692 22.4178L61.2734 25.0367C58.9206 26.2888 59.5431 29.9268 56.7173 31.1006C55.2896 31.6919 53.6723 30.8432 52.2115 30.2589L52.1524 32.0553L51.3125 36.0585C49.6604 36.1037 47.8779 35.2064 46.8311 34.0412C48.2188 33.5126 49.2413 32.5075 49.6117 30.9858C51.5629 22.9743 48.4466 24.0281 48.4536 22.0839C48.4553 21.2248 49.2152 20.1693 50.1786 20.1466L51.8359 21.9813C55.2426 21.2092 57.9241 19.2041 59.9518 16.2756C60.9865 17.6407 60.9883 20.0823 60.6109 21.4822L59.9188 21.4874C59.7692 21.4891 59.3953 21.6196 59.4962 21.7326C59.5953 21.8457 60.1101 22.2787 60.1692 22.4178Z" fill="#FDFCFA"/>
<path d="M37.5 123.5L44.5 99V96.5L36.5 123.5H37.5Z" fill="#F8C4BB"/>
</g>
<path d="M223.995 26.9371L221.632 31.9741L219.527 30.9141L221.871 25.8535L216.529 27.1198L216 24.7747L221.346 23.5319L217.059 20.0254L218.561 18.2037L222.797 21.6041L222.813 16L225.195 16.0024L225.21 21.5888L229.472 18.166L230.951 20.0254L226.621 23.5213L232 24.7794L231.436 27.1328L226.104 25.8771L227.78 29.4049L228.472 30.9436L226.381 32L223.995 26.9371Z" fill="#C1E3FF"/>
</svg>
