<svg width="226" height="146" viewBox="0 0 226 146" fill="none" xmlns="http://www.w3.org/2000/svg">
<g opacity="0.4">
<rect x="64.5273" y="47.625" width="119.944" height="94.0741" fill="#FBE1DD"/>
<rect x="114.5" y="47.5" width="21" height="95" fill="#F8C4BB" stroke="white"/>
<rect x="61" y="25.2822" width="127" height="19.9907" fill="#FBE1DD"/>
<path d="M152.73 3.21742L125.676 21.7546H157.426V5.69222C157.426 3.27883 154.721 1.85329 152.73 3.21742Z" fill="#FBE1DD"/>
<path d="M98.6215 3.21742L125.676 21.7546H93.9258V5.69222C93.9258 3.27883 96.6306 1.85329 98.6215 3.21742Z" fill="#FBE1DD"/>
<rect x="114.593" y="24.7822" width="20.9907" height="20.9907" fill="#F8C4BB" stroke="white"/>
</g>
<g opacity="0.9">
<rect x="7.0293" y="87.3921" width="68.9876" height="54.1079" fill="#FBE1DD"/>
<rect x="36.5" y="86.0371" width="11" height="56" fill="#F8C4BB" stroke="white"/>
<rect x="4" y="73.5415" width="75.0457" height="13.4979" fill="#FBE1DD" stroke="white" stroke-width="2"/>
<path d="M60.4606 60L42.1992 72.5124H60.4606V60Z" fill="#FBE1DD"/>
<path d="M23.9378 60L42.1992 72.5124H23.9378V60Z" fill="#FBE1DD"/>
<rect x="36.5" y="74.5" width="11" height="12" fill="#F8C4BB" stroke="white"/>
</g>
<ellipse cx="187" cy="104" rx="14" ry="21" fill="#BEE2BA"/>
<ellipse cx="186.5" cy="88" rx="11.5" ry="21" fill="#BEE2BA"/>
<path d="M186.5 100H188L189 142H185L186.5 100Z" fill="#FAD782"/>
<path d="M192.5 106.5L187 116.5L187.5 120L193 106.5H192.5Z" fill="#FAD782"/>
<ellipse cx="210.333" cy="116.667" rx="9.33333" ry="14" fill="#BEE2BA"/>
<ellipse cx="210" cy="106" rx="7.66667" ry="14" fill="#BEE2BA"/>
<path d="M210 114H211L211.667 142H209L210 114Z" fill="#FAD782"/>
<path d="M214 118.333L210.333 125L210.666 127.333L214.333 118.333H214Z" fill="#FAD782"/>
<rect x="157" y="56" width="11" height="11" rx="2" fill="white"/>
<rect x="141" y="81" width="11" height="11" rx="2" fill="white"/>
<rect x="157" y="113" width="11" height="11" rx="2" fill="white"/>
<rect x="57" y="95" width="8" height="8" rx="2" fill="white" fill-opacity="0.61"/>
<rect x="90" y="106" width="8" height="8" rx="2" fill="white" fill-opacity="0.61"/>
<rect x="57" y="124" width="8" height="8" rx="2" fill="white" fill-opacity="0.61"/>
</svg>
