<svg width="260" height="168" viewBox="0 0 260 168" fill="none" xmlns="http://www.w3.org/2000/svg">
<g opacity="0.72" clip-path="url(#clip0_269_1252)">
<path d="M29.6774 38.0866C32.0378 41.2235 32.4882 45.1215 30.9883 48.9715C28.0448 56.5152 19.4435 57.3485 14.3446 54.6163C10.0822 52.3367 8.46564 47.6334 8.96426 43.0784C9.57146 37.5498 13.653 33.8921 19.2143 33.5196C23.1952 33.2511 27.1802 34.7655 29.6774 38.0866Z" fill="#F8C4BB"/>
<path d="M229.209 47.2449C229.306 48.3987 229.028 49.6846 228.872 50.574C227.951 50.2455 226.933 49.7327 225.92 49.5685L183.714 42.6097C183.589 41.8926 184.056 40.6587 184.546 40.1258C185.274 39.3326 186.714 39.4007 187.848 39.581L226.6 45.6744C227.295 45.7826 229.157 46.5678 229.209 47.2449Z" fill="#FAD782"/>
<path d="M182.038 73.2731L183.08 77.2914C175.431 74.8075 170.453 68.1372 169.387 60.261C168.953 57.064 168.455 53.6948 169.971 50.6741C171.446 47.7375 175.343 45.9668 178.552 46.3274L181.885 46.6959L181.877 49.7967L177.044 49.9249C168.712 50.1493 173.2 70.7612 182.038 73.2731Z" fill="#FAD782"/>
<path d="M231.734 54.6003C236.757 55.1812 240.006 59.2956 239.435 64.3153C238.968 68.3656 237.103 71.8991 234.368 74.9278C230.52 79.0902 226.008 82.3833 219.574 83.2327C219.602 82.2952 220.523 80.7368 221.275 79.8074C228.457 77.9525 237.943 68.4858 235.422 61.0222C234.432 58.0857 231.38 57.5529 228.441 57.7892L228.948 54.2798L231.734 54.6003Z" fill="#FAD782"/>
<path d="M206.859 46.9644C214.206 48.1262 221.227 49.2038 228.658 51.0307C226.888 63.2256 223.47 77.1391 215.69 86.6859C211.97 91.4934 204.028 95.6759 198.137 94.1375C186.456 91.0848 183.339 78.9179 182.475 68.4417L182.052 63.2696C181.831 60.6135 181.767 57.7932 181.992 55.101L182.334 51.0106C182.559 48.3625 182.945 45.5983 183.335 42.9421C185.072 43.475 186.053 43.7354 187.465 43.8916L206.859 46.9644Z" fill="#FAD782" fill-opacity="0.4"/>
<path d="M203.317 118.74C200.884 120.594 199.107 122.105 197.273 124.969L191.109 124.36C186.199 123.88 181.53 123.162 176.645 122.401C175.583 122.237 174.184 121.716 173.633 121.071C172.969 120.29 172.977 118.439 173.235 117.413C173.657 115.735 174.509 114.809 176.279 115.062L190.333 117.077L203.317 118.74Z" fill="#FAD782"/>
<path d="M218.086 119.501C223.446 122.013 226.639 127.085 226.172 133.446C225.565 141.787 218.283 148.153 210.188 147.496C205.709 147.132 201.957 145.293 199.363 141.703C194.095 134.416 195.266 124.216 203.678 119.629C208.644 116.921 213.437 117.321 218.086 119.501Z" fill="#F8C4BB"/>
<path d="M199.061 148.81C199.226 150.773 197.77 157.548 193.351 156.198C191.686 155.689 190.58 153.526 190.046 151.875C188.461 147.008 185.767 142.897 181.617 139.472C183.234 138.899 185.132 138.538 185.96 137.309C187.693 134.737 186.648 131.68 184.219 129.997C185.932 129.669 187.693 129.504 189.265 129.737L195.317 130.626C195.977 140.754 198.048 136.908 199.061 148.81Z" fill="#F8C4BB"/>
<path d="M104.299 157.259C104.693 157.832 105.139 159.074 104.991 159.651C104.842 160.232 104.034 161.326 103.406 161.598C99.18 163.421 79.9225 170.804 77.7149 165.244C77.4093 164.467 77.8798 162.772 78.7001 162.199L82.4478 159.591C82.6087 159.479 83.8794 159.491 83.6783 159.471C83.4853 159.447 83.3164 158.449 83.429 158.293C84.7761 156.394 88.3067 155.136 91.025 154.643C89.8468 154.439 88.6887 154.515 87.599 154.828L87.2411 153.826L89.9272 150.329L92.9029 152.171C93.6066 152.604 95.3478 152.3 96.1761 152.027C97.7605 151.502 98.2832 150.477 98.3516 148.674C101.295 150.373 101.247 152.776 104.299 157.259Z" fill="#F8C4BB"/>
<path d="M97.1861 18.4682C97.6244 22.6267 95.5092 28.7241 89.5941 28.1392C88.2912 28.011 87.491 26.0239 88.1545 25.0464C90.2053 22.0337 87.5272 19.1172 86.2525 18.7567C85.1426 18.4402 83.9282 19.1653 82.9873 19.7502C81.1576 18.5523 78.6404 17.9394 76.6137 19.6741C75.162 20.912 71.0725 21.2766 70.5859 18.8127C70.7508 13.164 76.2598 8.90538 81.6603 8.90138C92.3687 8.89336 90.2817 13.6527 97.1861 18.4682Z" fill="#F8C4BB"/>
<path d="M93.8567 32.1774C95.3204 33.6196 95.7627 35.3663 95.1676 37.2853C94.6569 38.9399 93.2133 40.2379 91.1062 40.8188C88.3919 41.568 85.6334 39.3485 85.5168 36.4641C85.4363 34.6132 84.4713 32.8144 83.3775 31.24C82.4325 32.1253 81.5157 33.0988 80.7436 33.1349C76.6822 33.3192 73.405 25.3829 74.0604 21.5249C75.7292 20.7397 77.1246 20.0666 78.5601 19.4978C80.7195 18.6404 82.6295 19.8743 83.7595 21.7172C83.9445 20.6756 84.045 19.7902 84.4954 19.3936C85.1146 18.8447 86.4899 19.2333 86.9644 19.7421C88.4683 21.3727 88.3678 23.1714 87.4268 25.0784C86.5422 26.8692 88.4924 28.7681 90.4266 28.7922L93.8567 32.1774Z" fill="#FBE1DD"/>
<path d="M158.236 61.0179C158.505 61.6429 159.438 66.7388 157.48 67.1034C155.228 67.524 155.124 63.2574 151.372 61.4306L151.364 63.8704C151.364 64.1708 151.094 64.9961 150.889 65.1964C150.632 65.4448 149.852 65.2205 149.498 64.8839C146.948 62.4241 149.007 57.3603 146.932 55.8059L132.291 44.8369C131.391 44.1638 129.094 43.7872 128.005 43.8153L120.734 44.0116L121.523 38.9517C121.78 37.3092 121.044 35.3582 120.767 33.3711C134.865 34.5209 140.265 37.4094 147.954 48.4144C149.683 50.8862 151.07 53.4021 153.354 55.3972C155.224 57.0318 157.211 58.6062 158.236 61.0179Z" fill="#FBE1DD"/>
<path d="M128.011 67.6125C128.361 68.0972 128.047 69.5915 127.432 69.7157C116.744 71.8911 108.991 76.1297 99.4244 81.4259C96.8026 76.6224 94.8322 71.7589 91.559 67.7006L88.531 63.9548L84.92 59.4799C82.8612 56.9279 81.4135 54.2157 79.6965 51.4514C80.2434 53.146 80.8626 54.5202 81.6588 56.3069C79.9056 58.1899 74.8349 62.8651 72.4222 59.548C70.9906 57.5769 65.3931 49.5565 67.9948 47.8138L75.7276 42.6217C78.5303 40.7428 81.1039 39.2445 84.3651 37.8463C84.3771 37.8543 84.3812 37.8584 84.3812 37.8584L85.1331 37.9345C85.9534 40.3182 88.2053 41.8285 91.1488 41.3998C93.835 41.0072 96.3522 38.0346 96.0104 35.1582L95.3912 32.8306C102.292 30.6993 108.979 30.7233 115.919 31.3322C118.384 31.5526 120.097 32.1575 120.52 35.0139C120.99 38.1869 120.889 42.3613 119.567 45.394C115.927 47.3811 111.894 46.3956 107.78 46.3195C109.566 47.2529 111.532 47.3971 113.921 47.2209L124.75 63.0774L128.011 67.6125Z" fill="#F8C4BB"/>
<path d="M131.761 80.4964C132.697 84.3464 131.226 89.1378 128.769 92.1946C124.02 98.1077 114.61 103.296 107.569 107.198C102.663 100.239 97.2347 93.1601 89.2285 88.6731C94.9708 84.6028 99.9731 81.5781 106.391 78.3571L110.404 76.346C115.539 73.766 120.549 71.791 126.449 70.541C128.54 73.6739 130.856 76.7627 131.761 80.4964Z" fill="#F8C4BB"/>
<path d="M143.404 100.824C143.746 101.329 143.352 102.326 142.861 102.663L131.469 110.547L124.75 115.058C121.034 111.621 118.155 106.657 115.011 104.033L114.846 103.748L115.429 103.412C119.687 100.948 123.58 98.0676 127.219 94.7785C130.243 92.0463 131.936 88.7692 132.7 84.4185L138.949 94.2617L143.404 100.824Z" fill="#F8C4BB"/>
<path d="M183.864 130.754C186.079 132.024 187.278 134.973 185.327 137.084C184.64 137.829 182.939 138.566 181.933 138.927C170.409 134.268 158.639 131.463 146.64 128.671C137.19 126.472 134.612 120.306 127.66 114.377L127.475 114.117L141.995 103.849L147.396 112.742C148.308 114.249 149.595 115.427 151.485 115.855C158.739 117.502 165.406 120.186 171.905 123.908L183.864 130.754Z" fill="#FBE1DD"/>
<path d="M104.146 103.592C101.653 104.457 99.4817 105.191 97.2861 106.132L85.7293 111.1L87.2935 114.032C89.9073 118.924 90.9126 124.396 92.3562 129.805L97.5274 149.179C97.8491 150.373 96.7513 151.358 95.746 151.514C92.2798 152.067 89.7263 150.096 88.2103 147.224L79.3155 130.378C76.3116 124.685 73.3762 119.224 71.2329 113.139C70.1713 109.902 70.308 106.685 72.7328 104.033C77.8437 98.4361 84.2213 94.1254 90.7437 90.2554C96.1682 93.873 100.386 98.2558 104.146 103.592Z" fill="#FBE1DD"/>
<path d="M66.7294 49.5444C67.4894 53.9192 69.3793 56.391 72.1459 60.1248L61.0233 63.6142C56.3386 65.0845 51.6741 64.5637 47.1985 62.6166L32.678 56.2908C31.15 55.6258 29.5777 55.125 27.8164 54.488C30.2613 52.1284 31.918 49.4442 32.493 46.1711C33.1163 48.631 34.5318 50.2254 36.8399 50.9666C40.9335 52.2806 45.0954 53.154 49.3257 54.1555C56.2783 55.7981 60.7459 52.7373 66.7294 49.5444Z" fill="#FBE1DD"/>
<path d="M120.767 33.3715C121.045 35.3586 121.781 37.3096 121.523 38.9522L120.735 44.012L128.005 43.8157C129.095 43.7877 131.391 44.1643 132.292 44.8373L146.933 55.8063C149.008 57.3607 146.949 62.4246 149.499 64.8844C149.853 65.2209 150.633 65.4452 150.89 65.1969C151.095 64.9965 151.365 64.1713 151.365 63.8708L151.373 61.431C155.124 63.2578 155.229 67.5245 157.481 67.1038C159.439 66.7392 158.506 61.6433 158.237 61.0184C157.211 58.6066 155.225 57.0322 153.355 55.3977C151.071 53.4026 149.684 50.8867 147.955 48.4148C140.266 37.4098 134.866 34.5213 120.767 33.3715ZM106.392 78.3573C99.9738 81.5782 94.9715 84.6029 89.2292 88.6732C97.2354 93.1602 102.664 100.239 107.57 107.198C114.611 103.296 124.02 98.1079 128.769 92.1947C131.226 89.138 132.698 84.3465 131.761 80.4966C130.856 76.7628 128.54 73.674 126.449 70.5411C120.55 71.7911 115.54 73.7661 110.405 76.3461L106.392 78.3573ZM221.506 78.8901C223.565 78.6417 225.097 77.6161 226.685 76.4503C230.373 73.7381 233.445 70.5772 234.884 65.966C235.677 63.4421 235.484 60.6578 233.163 59.1996C231.84 58.3623 229.83 58.21 228.097 58.3703C226.661 65.5174 224.92 72.0194 221.506 78.8901ZM219.576 83.2328C226.01 82.3835 230.521 79.0904 234.37 74.9279C237.104 71.8992 238.97 68.3658 239.436 64.3155C240.007 59.2957 236.758 55.1813 231.736 54.6004L228.949 54.2799L228.443 57.7894C231.382 57.553 234.434 58.0858 235.423 61.0224C237.945 68.486 228.459 77.9526 221.277 79.8075C220.525 80.7369 219.604 82.2954 219.576 83.2328ZM218.088 119.501C213.44 117.322 208.646 116.921 203.68 119.629C195.268 124.216 194.098 134.416 199.365 141.703C201.959 145.293 205.711 147.132 210.19 147.496C218.285 148.153 225.567 141.788 226.175 133.447C226.641 127.085 223.448 122.013 218.088 119.501ZM187.849 39.5812C186.715 39.4009 185.275 39.3328 184.547 40.126C184.057 40.6588 183.59 41.8927 183.715 42.6098L225.921 49.5686C226.935 49.7329 227.952 50.2457 228.873 50.5742C229.03 49.6848 229.307 48.3988 229.211 47.245C229.158 46.568 227.297 45.7828 226.601 45.6746L187.849 39.5812ZM190.334 117.077L176.28 115.062C174.51 114.81 173.658 115.735 173.236 117.414C172.978 118.439 172.97 120.29 173.634 121.071C174.185 121.716 175.584 122.237 176.646 122.402C181.531 123.163 186.2 123.88 191.11 124.361L197.274 124.97C199.108 122.105 200.885 120.595 203.318 118.74L190.334 117.077ZM181.877 49.797L181.885 46.6962L178.552 46.3276C175.343 45.967 171.446 47.7378 169.971 50.6743C168.455 53.695 168.953 57.0642 169.387 60.2612C170.453 68.1374 175.431 74.8078 183.08 77.2916L182.038 73.2734C173.2 70.7615 168.712 50.1495 177.044 49.9252L181.877 49.797ZM182.207 72.7045L181.395 64.4477C180.619 56.5354 181.467 57.4208 181.523 50.2016C179.959 50.2417 178.636 50.2657 177.333 50.45C171.237 51.2953 173.509 60.5897 174.921 64.3355C176.276 67.9371 178.399 71.3584 182.207 72.7045ZM181.62 139.472C185.77 142.897 188.464 147.008 190.048 151.875C190.583 153.526 191.689 155.689 193.354 156.198C197.773 157.548 199.229 150.774 199.064 148.81C198.05 136.908 196.048 140.882 195.388 130.754L192.328 130.246L189.268 129.737C187.696 129.505 185.935 129.669 184.222 129.997C186.65 131.68 187.696 134.737 185.963 137.309C185.134 138.539 183.236 138.899 181.62 139.472ZM182.336 51.0109L181.994 55.1012C181.769 57.7934 181.833 60.6138 182.054 63.2699L182.476 68.4419C183.341 78.9181 186.457 91.085 198.139 94.1377C204.03 95.6761 211.972 91.4936 215.691 86.6862C223.472 77.1394 226.89 63.2258 228.66 51.0309C221.229 49.2041 214.208 48.1264 206.861 46.9646L187.467 43.8918C186.055 43.7356 185.074 43.4752 183.337 42.9424C182.947 45.5985 182.561 48.3628 182.336 51.0109ZM74.0613 21.5252C73.4059 25.3831 76.6831 33.3194 80.7445 33.1352C81.5166 33.0991 82.4334 32.1256 83.3784 31.2402C84.4722 32.8147 85.4373 34.6135 85.5177 36.4643C85.6343 39.3488 88.3928 41.5682 91.1071 40.8191C93.2142 40.2382 94.6578 38.9402 95.1685 37.2856C95.7636 35.3666 95.3213 33.6199 93.8576 32.1777L90.4275 28.7924C88.4933 28.7684 86.5431 26.8694 87.4277 25.0787C88.3687 23.1717 88.4692 21.3729 86.9653 19.7424C86.4908 19.2336 85.1156 18.845 84.4963 19.3939C84.0459 19.7905 83.9454 20.6759 83.7604 21.7175C82.6305 19.8746 80.7204 18.6407 78.561 19.498C77.1255 20.0669 75.7301 20.7399 74.0613 21.5252ZM81.6614 8.9016C76.2609 8.90561 70.7519 13.1642 70.587 18.813C71.0736 21.2768 75.1631 20.9122 76.6148 19.6743C78.6415 17.9396 81.1587 18.5526 82.9883 19.7504C83.9293 19.1655 85.1437 18.4404 86.2536 18.7569C87.5283 19.1174 90.2064 22.034 88.1556 25.0466C87.4921 26.0241 88.2923 28.0112 89.5952 28.1394C95.5103 28.7243 97.6255 22.6269 97.1871 18.4684C90.2828 13.653 92.3698 8.89359 81.6614 8.9016ZM90.7452 90.2557C84.2229 94.1257 77.8453 98.4364 72.7343 104.033C70.3096 106.685 70.1728 109.902 71.2344 113.139C73.3777 119.225 76.3132 124.685 79.317 130.378L88.2119 147.224C89.7279 150.096 92.2813 152.068 95.7476 151.515C96.7529 151.358 97.8506 150.373 97.5289 149.179L92.3577 129.805C90.9141 124.397 89.9088 118.924 87.295 114.033L85.7308 111.1L97.2877 106.132C99.4832 105.191 101.655 104.458 104.148 103.592C100.388 98.2561 96.1698 93.8733 90.7452 90.2557ZM77.7729 32.5262C74.383 29.7579 73.044 25.3831 73.4139 21.1125C72.0025 21.0484 69.7064 20.4515 69.831 18.9251C70.3699 12.2668 76.4419 7.81592 82.9361 8.11638C91.4891 8.513 92.0481 13.8613 96.6362 16.894C98.4257 18.0758 98.1924 19.5862 97.8627 21.401C97.1992 25.0867 95.3092 27.859 91.5897 29.0288L95.0117 32.414C98.6991 31.1881 101.996 30.7555 105.704 30.3549C108.261 30.0784 110.952 30.427 113.453 30.4149C116.449 30.3949 118.431 31.4485 120.968 32.2298C125.536 33.6279 133.571 33.4957 139.393 38.0428C143.913 41.5722 147.416 45.9711 150.355 50.8346C153.62 56.247 157.971 56.7718 159.27 62.3364C159.612 63.8147 159.403 66.2505 158.369 67.228C155.482 69.9442 153.632 62.5648 151.919 62.4766C152.084 63.7787 152.241 64.8163 151.59 65.5174C151.039 66.1023 149.418 65.8899 148.787 65.1207C147.601 63.6705 147.223 61.3709 147.303 59.5441C147.416 57.0322 146.378 56.0867 144.641 54.7967L132.71 45.923C132.075 45.4503 130.394 44.7171 129.574 44.7051L121.194 44.5849L119.609 46.2315L115.097 47.4453L125.396 62.8813C125.834 63.5383 129.936 68.2736 128.572 69.4074L127.294 70.473L131.122 76.7588C132.364 78.8019 132.3 81.2938 133.201 83.365C135.662 89.0138 141.472 96.1528 144.484 101.798L142.747 103.672L148.172 112.694C148.879 113.872 150.19 114.954 151.658 115.25C165.354 118.023 171.113 123.191 183.019 129.408C186.931 128.716 190.839 129.017 194.767 129.911C194.974 129.958 195.181 130.007 195.388 130.057L196.784 125.635C189.24 124.865 181.749 124.228 174.446 122.47C171.322 121.716 172.387 115.375 173.839 114.822C175.681 114.121 177.969 114.569 179.935 114.698C180.619 113.416 180.305 110.331 182.472 110.126C183.703 110.006 185.665 110.607 187.044 110.307C189.031 109.866 190.515 107.715 191.054 105.864L192.71 100.215C190.165 98.3202 190.101 94.979 192.075 92.1306C186.502 87.4594 185.368 84.9835 183.281 78.185C178.306 76.238 174.08 73.3775 171.543 68.5661C168.877 63.5142 166.532 54.8208 169.761 49.8451C172.448 45.7026 177.361 44.8613 182.086 46.3557C182.416 44.3285 182.585 42.045 183.437 40.1941C184.065 38.84 186.095 38.6277 187.33 38.82L209.233 42.2253L227.498 45.2259C228.233 45.3461 229.251 45.8749 229.484 46.3917C229.689 46.8364 229.798 48.0863 229.733 48.6352L229.126 53.7792C234.776 53.3906 239.658 56.7758 240.152 62.2803C241.045 72.1957 228.776 83.5974 218.643 84.0861C214.183 89.2662 214.356 89.823 208.453 93.1522C207.79 93.5248 207.114 93.8493 206.435 94.1177C201.903 95.9245 197.061 95.4077 192.654 92.4711C191.415 94.2218 190.724 97.1183 192.28 98.7649C194.56 101.177 203.724 102.571 206.145 100.375C207.758 98.9211 207.363 95.9565 206.507 94.2899C209.193 94.5504 208.453 102.158 204.208 102.006C204.208 102.006 203.012 99.4179 203.933 102.158L203.797 101.949C201.453 100.531 204.223 104.934 203.797 102.158L200.318 102.006C197.946 101.902 195.585 101.345 193.318 100.652C192.586 103.412 191.934 106.261 190.515 108.488C188.951 110.944 186.108 111.613 183.417 110.723C182.81 110.527 181.198 111.336 181.178 111.965L181.073 115.09L197.182 117.161C199.643 117.478 202.369 118.532 204.697 118.079L210.649 116.913L211.083 116.308C211.292 114.99 211.126 116.505 211.596 115.487L211.083 116.937C215.269 117.109 218.595 118.764 222.178 121.087L222.161 120.915L222.334 120.899C223.895 123.295 225.487 125.242 226.299 127.734C227.988 132.93 226.734 138.19 223.303 142.421C216.966 150.245 205.546 150.044 199.595 143.078C199.494 142.961 198.995 142.857 199.02 143.001L199.14 143.687C199.723 147.068 200.001 150.697 198.738 153.878C197.878 156.058 195.939 157.011 193.76 156.791C188.918 156.298 190.004 148.362 183.277 141.792C182.48 141.014 181.72 140.201 180.94 139.3C173.196 136.099 165.185 133.971 157.014 131.94C152.241 130.754 141.927 128.803 138.798 126.007C134.761 122.394 130.768 118.972 127.66 114.377C134.612 120.306 137.19 126.472 146.64 128.671C158.639 131.464 170.409 134.268 181.934 138.927C182.939 138.567 184.64 137.829 185.327 137.084C187.278 134.973 186.079 132.024 183.864 130.754L171.905 123.908C165.406 120.186 158.739 117.502 151.485 115.855C149.595 115.427 148.308 114.249 147.396 112.743L141.995 103.849L127.475 114.117L126.691 114.67C126.168 115.042 125.191 115.583 124.688 115.475C123.252 115.17 116.256 106.413 115.013 104.033C118.158 106.657 121.037 111.621 124.752 115.058L131.472 110.547L142.864 102.663C143.354 102.326 143.748 101.329 143.407 100.824L138.951 94.2619L132.702 84.4186C131.938 88.7694 130.245 92.0465 127.221 94.7787C123.582 98.0678 119.69 100.948 115.431 103.412L114.848 103.749L107.626 107.931C106.287 106.966 105.628 105.956 104.719 104.293C101.671 105.083 98.5383 106.261 95.5264 107.591L86.531 111.561C89.4343 115.859 90.6809 120.747 91.9395 125.438L97.9673 147.833C103.13 150.589 100.018 150.617 104.775 156.719C105.386 157.508 105.881 158.986 105.603 159.872C104.675 162.836 96.6845 164.895 93.2786 165.953C89.8324 167.027 77.7769 170.236 76.9606 164.955C76.8078 163.978 77.4271 162.456 78.2715 161.835L82.4777 158.774C83.7564 156.827 85.5619 155.413 87.6006 154.828C88.6904 154.515 89.8485 154.439 91.0267 154.644C88.3084 155.136 84.7778 156.394 83.4307 158.293C83.3181 158.449 83.487 159.447 83.68 159.471C83.8811 159.491 82.6104 159.479 82.4495 159.591L78.7018 162.199C77.8815 162.772 77.411 164.467 77.7166 165.244C79.9242 170.805 99.1816 163.421 103.408 161.598C104.035 161.326 104.843 160.232 104.992 159.651C105.141 159.074 104.695 157.832 104.301 157.26C101.249 152.777 101.297 150.373 98.3533 148.674C98.2849 150.477 97.7622 151.503 96.1778 152.027C95.3495 152.3 93.6083 152.604 92.9046 152.172L89.9289 150.329L87.2428 153.826C87.6328 150.289 90.0495 151.955 88.2802 148.654L80.8732 134.845L73.426 120.234C71.0937 115.663 67.9974 108.424 71.8818 104.077C76.9204 98.4444 82.9522 94.0816 89.4665 90.3238C89.1287 89.787 88.5537 89.0178 88.6783 88.6091C88.7829 88.2646 89.4263 87.6557 89.756 87.4473L98.9243 81.5702L91.6017 68.8625C90.6447 67.204 89.4946 65.6576 88.2682 64.1673L88.5336 63.9549L91.5615 67.7007C94.8348 71.759 96.8051 76.6226 99.4269 81.426C108.993 76.1298 116.746 71.8912 127.434 69.7159C128.05 69.5917 128.363 68.0974 128.014 67.6126L124.752 63.0776L113.923 47.221C111.535 47.3973 109.568 47.253 107.783 46.3196C111.897 46.3957 115.93 47.3812 119.569 45.3942C120.892 42.3615 120.993 38.187 120.522 35.0141C120.1 32.1576 118.387 31.5527 115.922 31.3324C108.981 30.7234 102.294 30.6994 95.3937 32.8307L96.013 35.1583C96.3548 38.0348 93.8375 41.0074 91.1513 41.4C88.2078 41.8286 85.956 40.3183 85.1357 37.9346C84.9668 37.4498 84.8582 36.925 84.814 36.3762C84.7134 35.0902 84.0459 33.5037 83.491 32.5543C80.9657 34.0926 80.081 34.4091 77.7729 32.5262Z" fill="#F8C4BB"/>
<path d="M30.989 48.9716C32.4889 45.1216 32.0385 41.2236 29.678 38.0867C27.1809 34.7656 23.1959 33.2512 19.2149 33.5196C13.6536 33.8922 9.57214 37.5499 8.96494 43.0785C8.46631 47.6335 10.0828 52.3368 14.3453 54.6163C19.4441 57.3486 28.0454 56.5153 30.989 48.9716ZM47.1983 62.6167C51.6739 64.5638 56.3385 65.0846 61.0232 63.6143L72.1457 60.1249C69.3792 56.3911 67.4892 53.9193 66.7292 49.5445C60.7457 52.7374 56.2782 55.7982 49.3255 54.1556C45.0953 53.1541 40.9333 52.2807 36.8398 50.9667C34.5316 50.2255 33.1162 48.6311 32.4929 46.1712C31.9178 49.4443 30.2611 52.1285 27.8162 54.4881C29.5775 55.1251 31.1498 55.6259 32.6778 56.2909L47.1983 62.6167ZM61.5741 64.2072C54.2555 66.5949 48.3765 64.0269 41.8864 61.1264C36.9725 58.931 32.2033 56.7396 27.0562 54.9368C24.7762 56.1387 22.4319 56.8318 19.794 56.7597C13.4968 56.5914 8.36176 51.828 8.10843 45.4461C7.90737 40.2781 10.5252 35.2022 15.5878 33.5637C17.1038 33.0709 19.412 32.5862 20.8998 32.7384C24.9652 33.1431 28.7492 35.1141 30.7477 38.5154C33.4097 43.0504 31.9098 47.5053 35.4444 49.5926C38.1386 51.187 49.3175 53.5066 52.9165 54.0435C55.9404 54.4962 58.9321 52.5411 61.6304 51.5115C63.8862 50.6542 65.6194 49.4363 67.3404 47.8378C70.3644 45.0375 81.1395 39.1474 85.1688 37.1282C85.1688 37.5385 85.4948 37.8846 85.5792 37.9487C82.3181 39.3469 78.5314 40.7428 75.7286 42.6217L67.9959 47.8138C65.3942 49.5565 70.9917 57.5769 72.4232 59.548C74.8359 62.8651 79.9066 58.1899 81.6599 56.307C80.8637 54.5202 80.2444 53.1461 79.6975 51.4514C81.4146 54.2157 82.8622 56.9279 84.921 59.4799L88.5321 63.9548L88.2667 64.1671C86.2199 61.6793 83.972 59.3477 82.0901 56.9199C78.8772 59.6962 75.9779 62.8771 72.4272 60.6617L61.5741 64.2072Z" fill="#F8C4BB"/>
<path d="M161.513 26.82L159.573 30.9529L157.845 30.0831L159.769 25.9309L155.383 26.9699L154.949 25.0457L159.338 24.026L155.818 21.1488L157.051 19.6541L160.529 22.4442L160.542 17.8459L162.498 17.8479L162.51 22.4316L166.009 19.6231L167.223 21.1488L163.668 24.0173L168.084 25.0495L167.621 26.9805L163.244 25.9502L164.62 28.8448L165.188 30.1073L163.472 30.9742L161.513 26.82Z" fill="#C1E3FF"/>
<path d="M20.7246 32.5449C27.3383 32.5449 32.6991 37.9034 32.6992 44.5127C32.6992 51.122 27.3384 56.4805 20.7246 56.4805C14.1108 56.4804 8.75 51.122 8.75 44.5127C8.75009 37.9035 14.1109 32.545 20.7246 32.5449Z" stroke="white" stroke-width="1.5"/>
<path d="M206.791 62.9729L206.858 63.1915L207.067 63.2835L212.569 65.7048L207.647 69.155L207.459 69.2868L207.436 69.5137L206.831 75.4914L202.027 71.8794L201.845 71.7414L201.621 71.7904L195.745 73.062L197.699 67.3797L197.773 67.1641L197.658 66.966L194.631 61.7738L200.643 61.8755L200.871 61.8795L201.024 61.7092L205.029 57.2272L206.791 62.9729Z" fill="#F4D198" stroke="#FAD782"/>
<path d="M184.093 110.154C180.153 109.826 179.441 114.12 179.578 116.308C189.703 119.453 207.491 120.821 211.185 120C215.775 118.981 210.774 114.53 209.954 114.667C206.67 114.257 205.849 114.257 204.207 112.616C202.237 110.646 203.796 104.821 204.207 101.539C204.207 101.539 201.744 101.949 198.46 101.539C195.177 101.128 193.124 99.4873 193.124 99.4873C193.124 99.4873 190.825 106.954 189.84 108.923C188.855 110.892 185.598 110.564 184.093 110.154Z" fill="#FDEFCD" stroke="#FAD782"/>
<path d="M192.653 92.4709C197.06 95.4075 201.901 95.9243 206.433 94.1175L206.506 94.2898C207.362 95.9563 207.756 98.9209 206.144 100.375C203.723 102.571 194.559 101.176 192.279 98.7647C190.722 97.1181 191.414 94.2217 192.653 92.4709Z" fill="#FAD782"/>
<path d="M223.396 98.4769L215.604 118.304L210.825 116.581C212.549 111.808 213.136 101.971 215.518 94.7899C218.951 93.4892 224.958 91.2129 225.776 91.296C231.076 92.2468 246.074 98.3064 246.074 98.3064C246.074 98.3064 250.132 107.378 250.587 110.724L223.841 126.563L220.906 122.966L240.905 104.792L223.396 98.4769Z" fill="#BEE2BA" stroke="#BEE2BA"/>
<path d="M212.417 114.987C221.761 114.987 229.336 122.558 229.336 131.897C229.336 141.237 221.761 148.807 212.417 148.807C203.073 148.807 195.498 141.237 195.498 131.897C195.498 122.558 203.073 114.987 212.417 114.987Z" fill="#F5D49D" stroke="white"/>
<path d="M215.822 128.614L215.889 128.833L216.099 128.925L221.6 131.346L216.678 134.796L216.49 134.928L216.467 135.155L215.862 141.133L211.058 137.521L210.876 137.383L210.652 137.431L204.776 138.703L206.73 133.021L206.804 132.805L206.69 132.607L203.663 127.415L209.674 127.517L209.902 127.521L210.055 127.35L214.06 122.868L215.822 128.614Z" fill="#FDEFCD" stroke="#FAD782"/>
</g>
<defs>
<clipPath id="clip0_269_1252">
<rect width="243" height="160" fill="white" transform="translate(8 8)"/>
</clipPath>
</defs>
</svg>
