<svg width="280" height="168" viewBox="0 0 280 168" fill="none" xmlns="http://www.w3.org/2000/svg">
<g opacity="0.73">
<g opacity="0.54">
<path d="M230.313 41C245.418 40.9998 266.93 95.6319 277 120H185C194.612 96.0249 215.209 41.0002 230.313 41Z" fill="#BEE2BA"/>
<path d="M74.3391 55.707C89.4522 55.7069 110.977 100.168 121.052 120H29C38.6174 100.488 59.2261 55.7072 74.3391 55.707Z" fill="#BEE2BA"/>
<path d="M184.966 3C206.955 2.9997 231.922 93.4983 242 118H119C128.62 93.8935 162.978 3.0003 184.966 3Z" fill="#BEE2BA"/>
</g>
<path d="M98.2565 53.5L126.898 67L164.913 52L192.513 61.5L170.641 117.5L146.687 105.5L108.672 117.5L76.3848 103L98.2565 53.5Z" fill="#FDEFCD" stroke="white"/>
<path d="M129 29.5C120.293 29.5 113.25 36.5425 113.25 45.25C113.25 57.0625 129 74.5 129 74.5C129 74.5 144.75 57.0625 144.75 45.25C144.75 36.5425 137.708 29.5 129 29.5ZM129 50.875C127.508 50.875 126.077 50.2824 125.023 49.2275C123.968 48.1726 123.375 46.7418 123.375 45.25C123.375 43.7582 123.968 42.3274 125.023 41.2725C126.077 40.2176 127.508 39.625 129 39.625C130.492 39.625 131.923 40.2176 132.977 41.2725C134.032 42.3274 134.625 43.7582 134.625 45.25C134.625 46.7418 134.032 48.1726 132.977 49.2275C131.923 50.2824 130.492 50.875 129 50.875Z" fill="#F8C4BB"/>
<line x1="121.472" y1="67.166" x2="102.472" y2="121.166" stroke="white"/>
<line x1="161.595" y1="74.9322" x2="168.477" y2="56.476" stroke="#FAD782" stroke-width="3"/>
<path d="M151.499 72L176.556 81.6073" stroke="#FAD782" stroke-width="3"/>
<line x1="153.463" y1="72.3635" x2="112.463" y2="116.363" stroke="#FAD782" stroke-width="4"/>
<path d="M114.106 90.7887L84.9996 77.9999" stroke="#FAD782" stroke-width="4"/>
<g clip-path="url(#clip0_304_3969)">
<path d="M94.188 92.2419C101.194 86.6387 116.312 88.7576 119.48 88.6202L165.09 88.5744L165.145 88.4162C166.171 88.5578 167.198 88.2997 168.22 88.104L168.082 88.4995L211.027 88.7701C217.765 88.8159 223.024 94.0153 223.866 100.247C223.887 100.414 223.9 100.58 223.895 100.751L223.757 143.292C223.736 149.495 217.183 153.52 211.438 152.958C210.093 152.825 207.964 153.445 207.65 154.328C205.84 159.398 201.134 162.116 196.152 161.883C191.954 161.684 188.451 159.157 186.699 155.098C186.125 153.774 184.784 152.946 183.334 152.946L126.352 152.904C124.902 152.9 123.62 153.77 123.021 155.081C121.144 159.194 117.527 161.646 113.144 161.871C108.418 162.112 104.508 159.431 102.619 155.189C102.028 153.866 100.737 152.983 99.2749 152.983L88.8707 152.996C85.6107 153 82.422 150.843 81.1314 148.541C79.3296 145.327 80.352 142.139 80.8004 138.925C81.7222 132.293 83.2684 128.809 87.8734 123.181C88.3846 122.552 88.6779 121.77 88.6905 120.958L88.9629 102.591C88.9964 100.364 89.5327 98.2782 89.5327 98.2782C89.6626 96.7004 92.9478 93.2327 94.188 92.2419ZM221.193 133.68L220.929 100.48C220.883 94.6148 214.656 90.9556 209.087 91.272L102.723 91.5051C97.5151 91.5134 92.5581 96.3299 91.5734 100.147C93.5428 100.884 95.9395 101.638 97.2092 102.816L97.2301 118.785C97.2385 124.538 91.8751 119.276 86.4781 130.387C94.5819 134.641 89.3693 133.971 100.637 133.501L100.775 107.041C100.796 103.249 103.972 100.73 107.551 100.768L119.61 100.884C121.973 101.267 123.369 103.103 123.377 105.517L123.511 133.609L221.193 133.68ZM215.096 149.782C220.581 147.509 222.844 141.572 220.51 136.077L185.853 136.161L140.842 136.073L123.762 136.431C123.607 141.423 123.645 145.336 124.215 149.865L185.417 149.819C186.733 143.496 191.22 139.649 196.869 139.599C202.404 139.549 207.072 143.354 208.354 149.249L215.096 149.782ZM198.67 154.261C200.334 153.632 201.323 151.293 200.816 149.141C200.472 147.692 197.849 146.222 196.018 146.755C193.315 147.542 192.523 150.19 193.613 152.558C194.246 153.936 196.747 154.99 198.67 154.261ZM121.211 143.258L121.181 122.627L103.096 122.656L103.172 144.974C106.201 142.126 108.703 140.195 111.816 139.882C115.432 139.516 117.997 140.906 121.211 143.258ZM114.368 154.182C116.078 153.483 117.129 151.089 116.572 149.174C116.099 147.546 113.631 146.043 111.456 146.926C109.084 147.883 108.51 150.523 109.377 152.338C110.153 153.949 112.537 154.931 114.368 154.182ZM100.666 149.665L100.578 135.986C85.1959 135.311 95.4116 138.396 85.066 141.106C83.369 141.552 82.8326 145.04 83.4905 146.531C84.0729 147.859 86.3817 150.019 88.2338 149.973L100.666 149.665ZM88.9377 135.245C89.0593 134.641 87.643 132.901 87.0438 133.039L85.5227 133.422C84.4584 133.667 82.929 136.39 83.6539 137.435C84.1484 138.146 86.4111 138.213 87.1527 137.751C87.7729 137.364 88.7953 135.969 88.9377 135.245Z" fill="#F8C4BB"/>
<path d="M220.929 100.48L221.193 133.68L123.511 133.609L123.377 105.517C123.369 103.103 121.974 101.267 119.61 100.884L107.551 100.768C103.973 100.73 100.796 103.249 100.775 107.041L100.637 133.501C89.3697 133.971 94.5823 134.641 86.4785 130.387C91.8755 119.276 97.2389 124.538 97.2305 118.785L97.2096 102.816C95.94 101.638 93.5432 100.884 91.5738 100.147C92.5585 96.3299 97.5155 91.5134 102.724 91.505L209.088 91.2719C214.656 90.9555 220.883 94.6147 220.929 100.48Z" fill="#FBE1DD"/>
<path d="M220.509 136.077C222.843 141.572 220.581 147.509 215.096 149.782L208.354 149.249C207.071 143.354 202.404 139.549 196.868 139.599C191.22 139.649 186.732 143.496 185.417 149.819L124.215 149.865C123.645 145.336 123.607 141.423 123.762 136.431L140.841 136.073L185.852 136.161L220.509 136.077Z" fill="#FBE1DD"/>
<path d="M200.816 149.141C201.323 151.293 200.334 153.632 198.671 154.261C196.747 154.989 194.246 153.936 193.613 152.558C192.524 150.19 193.316 147.542 196.018 146.755C197.849 146.222 200.472 147.692 200.816 149.141Z" fill="#FBE1DD"/>
<path d="M121.181 122.627L121.21 143.258C117.996 140.906 115.432 139.516 111.815 139.882C108.702 140.194 106.201 142.126 103.171 144.973L103.096 122.656L121.181 122.627Z" fill="#FBE1DD"/>
<path d="M116.573 149.174C117.13 151.089 116.078 153.483 114.369 154.182C112.538 154.931 110.154 153.949 109.378 152.338C108.511 150.523 109.085 147.884 111.457 146.926C113.631 146.044 116.099 147.546 116.573 149.174Z" fill="#FBE1DD"/>
<path d="M100.579 135.986L100.667 149.665L88.2345 149.973C86.3825 150.019 84.0737 147.858 83.4913 146.53C82.8334 145.04 83.3697 141.552 85.0668 141.106C95.4123 138.396 85.1967 135.311 100.579 135.986Z" fill="#FBE1DD"/>
<path d="M87.0429 133.038C87.6421 132.901 89.0584 134.641 88.9369 135.245C88.7944 135.969 87.772 137.364 87.1518 137.751C86.4102 138.213 84.1475 138.146 83.653 137.434C82.9281 136.39 84.4575 133.667 85.5219 133.421L87.0429 133.038Z" fill="#FBE1DD"/>
<path d="M181.08 126.915L160.46 126.886C158.579 126.553 156.895 124.967 156.895 123.152L156.903 108.786C156.903 107.158 158.608 104.997 160.393 104.989L181.562 104.922C182.978 104.918 184.759 106.8 184.763 108.099L184.805 122.407C184.814 124.6 183.762 126.361 181.084 126.915H181.08Z" fill="#F8C4BB"/>
<path d="M151.343 126.898H130.484C128.577 126.894 126.742 124.946 126.746 123.152L126.763 108.765C126.763 106.987 128.665 104.893 130.505 104.897L150.886 104.926C152.83 104.926 154.674 106.912 154.678 108.752L154.707 123.202C154.707 124.488 153.052 126.898 151.347 126.898H151.343Z" fill="#F8C4BB"/>
<path d="M210.26 126.877L190.948 126.932C189.134 126.936 187.307 124.808 187.307 123.156V108.207C187.307 106.954 189.058 104.885 190.185 104.885L209.045 104.918C212.167 104.922 214.241 107.453 214.241 110.326L214.254 123.131C214.254 124.804 212.293 126.873 210.26 126.877Z" fill="#F8C4BB"/>
<path d="M112.78 144.881C116.382 144.881 119.305 147.811 119.305 151.429C119.305 155.046 116.382 157.977 112.78 157.977C109.179 157.977 106.256 155.046 106.256 151.429C106.256 147.811 109.179 144.881 112.78 144.881Z" fill="white" stroke="#F8C4BB"/>
<path d="M197.073 144.881C200.675 144.881 203.598 147.811 203.598 151.429C203.598 155.046 200.675 157.977 197.073 157.977C193.472 157.977 190.549 155.046 190.549 151.429C190.549 147.811 193.471 144.881 197.073 144.881Z" fill="white" stroke="#F8C4BB"/>
</g>
<path d="M39.4111 142C41.3217 142 42.6602 143.457 42.6602 145C42.6602 146.543 41.3217 148 39.4111 148C37.5006 148 36.1621 146.543 36.1621 145C36.1621 143.457 37.5006 142 39.4111 142Z" fill="white" stroke="#F8C4BB" stroke-width="6"/>
<path d="M20.665 142C22.5756 142 23.9141 143.457 23.9141 145C23.9141 146.543 22.5756 148 20.665 148C18.7545 148 17.416 146.543 17.416 145C17.416 143.457 18.7545 142 20.665 142Z" fill="white" stroke="#F8C4BB" stroke-width="6"/>
<rect x="5" y="82" width="50.0755" height="63" rx="5" fill="#FBE1DD" stroke="#F8C4BB" stroke-width="2"/>
<rect x="14.416" y="92" width="4.16604" height="42" rx="2.08302" fill="#F8C4BB"/>
<rect x="19.623" y="69" width="4.16604" height="14" rx="2.08302" fill="#F8C4BB"/>
<rect x="35.2461" y="69" width="4.16604" height="14" rx="2.08302" fill="#F8C4BB"/>
<rect x="43.5762" y="67" width="4" height="28.1208" rx="2" transform="rotate(90 43.5762 67)" fill="#F8C4BB"/>
<rect x="27.9551" y="92" width="4.16604" height="42" rx="2.08302" fill="#F8C4BB"/>
<rect x="41.4941" y="92" width="4.16604" height="42" rx="2.08302" fill="#F8C4BB"/>
</g>
<g clip-path="url(#clip1_304_3969)">
<path d="M44.9948 19.9371L42.6324 24.9741L40.5269 23.9141L42.8709 18.8535L37.5287 20.1198L37 17.7747L42.3456 16.5319L38.0585 13.0254L39.5605 11.2037L43.7969 14.6041L43.813 9L46.195 9.00236L46.21 14.5888L50.4717 11.166L51.9507 13.0254L47.621 16.5213L53 17.7794L52.4356 20.1328L47.1038 18.8771L48.7797 22.4049L49.472 23.9436L47.3814 25L44.9948 19.9371Z" fill="#C1E3FF"/>
</g>
<defs>
<clipPath id="clip0_304_3969">
<rect width="144" height="74" fill="white" transform="translate(80 88)"/>
</clipPath>
<clipPath id="clip1_304_3969">
<rect width="16" height="16" fill="white" transform="translate(37 9)"/>
</clipPath>
</defs>
</svg>
