<svg width="110" height="110" viewBox="0 0 110 110" fill="none" xmlns="http://www.w3.org/2000/svg">
<g filter="url(#filter0_d_177_3180)">
<path d="M55.8037 4.25391C58.9425 4.33167 61.9365 5.61225 64.1621 7.83789C66.4594 10.1352 67.75 13.2511 67.75 16.5C67.75 19.7489 66.4594 22.8648 64.1621 25.1621C61.8648 27.4594 58.7489 28.75 55.5 28.75C52.2511 28.75 49.1352 27.4594 46.8379 25.1621C44.5406 22.8648 43.25 19.7489 43.25 16.5C43.25 13.2511 44.5406 10.1352 46.8379 7.83789C49.1352 5.54057 52.2511 4.25 55.5 4.25L55.8037 4.25391Z" stroke="white" stroke-width="3.5" shape-rendering="crispEdges"/>
</g>
<g filter="url(#filter1_d_177_3180)">
<path d="M25.29 19.0706C30.9294 19.0706 35.5447 23.6656 35.5449 29.301C35.5449 32.5083 34.0125 35.3626 31.7061 37.218L32.6602 39.1204C32.8635 39.0598 33.0878 38.9935 33.3311 38.9211C34.6586 38.5262 36.564 37.96 38.876 37.2756C43.5002 35.9067 49.7518 34.0642 56.2598 32.1692C69.2229 28.3946 83.3514 24.3682 87.5361 23.5159C89.3868 23.139 90.9702 23.2974 92.2891 23.8762C93.599 24.4512 94.5019 25.3767 95.1104 26.2942C95.7125 27.2023 96.0496 28.1355 96.2373 28.8186C96.3325 29.1651 96.3932 29.4612 96.4307 29.677C96.4495 29.7852 96.4628 29.8744 96.4717 29.9407C96.4739 29.9574 96.4758 29.9727 96.4775 29.9866C96.4788 29.9946 96.4801 30.0031 96.4814 30.012C96.489 30.0608 96.4969 30.1231 96.5049 30.1965C96.5207 30.3431 96.5352 30.5388 96.5352 30.7727C96.5351 31.2382 96.4799 31.8729 96.2627 32.5862C95.8114 34.0678 94.7084 35.7264 92.377 36.8889C91.205 37.4732 88.8577 38.2754 86.1592 39.1213C83.4053 39.9846 80.1297 40.94 76.9932 41.8284C73.8544 42.7174 70.8449 43.5425 68.6211 44.1448C67.509 44.4459 66.5926 44.6911 65.9541 44.8616C65.947 44.8635 65.9396 44.8646 65.9326 44.8665L62.1768 58.7766L66.4756 60.6819L66.543 60.7122L66.6084 60.7483C67.6822 61.3375 69.0153 62.0201 70.1729 62.7922C71.3374 63.569 72.5351 64.5667 73.2871 65.9221C74.4679 68.0506 74.6521 70.256 73.9004 72.8098L73.9014 72.8108V72.8118L73.8965 72.8264C73.8936 72.8364 73.8894 72.8511 73.8838 72.8704C73.8725 72.9092 73.856 72.9671 73.834 73.0422C73.79 73.1925 73.7247 73.4132 73.6416 73.6956C73.4753 74.2604 73.2353 75.0724 72.9395 76.0618C72.3479 78.0402 71.533 80.731 70.6406 83.5764C68.8802 89.1901 66.7487 95.6371 65.4404 98.2463C64.7761 99.571 63.434 100.148 62.3428 100.386C61.1929 100.637 59.9023 100.616 58.7217 100.419C57.5473 100.223 56.328 99.8262 55.3594 99.1985C54.4341 98.5989 53.3617 97.5164 53.4365 95.9211L53.4551 95.634C53.5742 94.1496 54.0919 91.883 54.7422 89.4368C55.4523 86.7653 56.3731 83.693 57.2812 80.7942C58.1904 77.8923 59.0911 75.1492 59.7646 73.1331C59.961 72.5453 60.1396 72.0194 60.292 71.5686L48.7646 68.2795C48.5223 68.83 48.2205 69.515 47.8721 70.3079C46.9174 72.4803 45.61 75.461 44.2002 78.6946C41.3769 85.1705 38.1536 92.6342 36.5186 96.6614C35.9767 97.9957 34.7476 98.7632 33.6377 99.134C32.4879 99.5182 31.1437 99.5978 29.8965 99.2942C28.6378 98.9877 27.3445 98.2499 26.5742 96.886C25.7987 95.5128 25.7264 93.8119 26.292 91.9319C28.2482 85.4298 32.5345 73.8267 36.3096 63.9036C38.2016 58.9301 39.9728 54.3594 41.2705 51.0325C41.5724 50.2585 41.8494 49.552 42.0957 48.9231L34.5752 51.0833L34.5742 51.0823C33.5991 51.3957 32.6185 51.4905 31.7539 51.4905C27.9497 51.4905 24.3694 49.3402 22.582 45.8264L22.5762 45.8147L17.8447 36.3381C16.1257 34.5157 15.0352 32.01 15.0352 29.301C15.0353 23.6656 19.6507 19.0706 25.29 19.0706Z" stroke="white" stroke-width="3.5" shape-rendering="crispEdges"/>
</g>
<defs>
<filter id="filter0_d_177_3180" x="38.5" y="1.5" width="34" height="34" filterUnits="userSpaceOnUse" color-interpolation-filters="sRGB">
<feFlood flood-opacity="0" result="BackgroundImageFix"/>
<feColorMatrix in="SourceAlpha" type="matrix" values="0 0 0 0 0 0 0 0 0 0 0 0 0 0 0 0 0 0 127 0" result="hardAlpha"/>
<feOffset dy="2"/>
<feGaussianBlur stdDeviation="1.5"/>
<feComposite in2="hardAlpha" operator="out"/>
<feColorMatrix type="matrix" values="0 0 0 0 0 0 0 0 0 0 0 0 0 0 0 0 0 0 0.16 0"/>
<feBlend mode="normal" in2="BackgroundImageFix" result="effect1_dropShadow_177_3180"/>
<feBlend mode="normal" in="SourceGraphic" in2="effect1_dropShadow_177_3180" result="shape"/>
</filter>
<filter id="filter1_d_177_3180" x="10.2852" y="16.3206" width="91" height="91" filterUnits="userSpaceOnUse" color-interpolation-filters="sRGB">
<feFlood flood-opacity="0" result="BackgroundImageFix"/>
<feColorMatrix in="SourceAlpha" type="matrix" values="0 0 0 0 0 0 0 0 0 0 0 0 0 0 0 0 0 0 127 0" result="hardAlpha"/>
<feOffset dy="2"/>
<feGaussianBlur stdDeviation="1.5"/>
<feComposite in2="hardAlpha" operator="out"/>
<feColorMatrix type="matrix" values="0 0 0 0 0 0 0 0 0 0 0 0 0 0 0 0 0 0 0.16 0"/>
<feBlend mode="normal" in2="BackgroundImageFix" result="effect1_dropShadow_177_3180"/>
<feBlend mode="normal" in="SourceGraphic" in2="effect1_dropShadow_177_3180" result="shape"/>
</filter>
</defs>
</svg>
