<svg width="110" height="110" viewBox="0 0 110 110" fill="none" xmlns="http://www.w3.org/2000/svg">
<g filter="url(#filter0_d_166_2491)">
<path d="M27.5 17.5C27.5 16.1193 28.6193 15 30 15H80C81.3807 15 82.5 16.1193 82.5 17.5C82.5 20.1876 82.4406 22.7456 82.3274 25.1795C89.5064 26.2978 95 32.5074 95 40C95 48.2843 88.2843 55 80 55C78.8555 55 77.7391 54.8714 76.6653 54.6274C72.7161 63.9538 67.2747 68.5135 62.5 69.6872V80.5481L69.6268 82.3298C70.5965 82.5722 71.5081 83.0061 72.3078 83.6058L81.5 90.5C82.3609 91.1456 82.712 92.2697 82.3717 93.2906C82.0314 94.3114 81.0761 95 80 95H30C28.9239 95 27.9686 94.3114 27.6283 93.2906C27.288 92.2697 27.6391 91.1456 28.5 90.5L37.6922 83.6058C38.4919 83.0061 39.4034 82.5722 40.3732 82.3298L47.5 80.5481V69.6872C42.7253 68.5135 37.2839 63.9538 33.3347 54.6274C32.2609 54.8714 31.1445 55 30 55C21.7157 55 15 48.2843 15 40C15 32.5074 20.4936 26.2978 27.6726 25.1795C27.5594 22.7456 27.5 20.1876 27.5 17.5ZM27.995 30.2011C23.433 31.1295 20 35.1639 20 40C20 45.5228 24.4772 50 30 50C30.5424 50 31.0739 49.957 31.5913 49.8744C29.9294 44.6268 28.6531 38.1474 27.995 30.2011ZM78.4087 49.8744C78.9262 49.957 79.4576 50 80 50C85.5229 50 90 45.5228 90 40C90 35.1639 86.567 31.1295 82.005 30.2011C81.3469 38.1474 80.0706 44.6268 78.4087 49.8744ZM32.518 20C32.5556 22.5838 32.6515 25.0298 32.7991 27.3445C33.4458 37.4846 35.084 45.0765 37.1491 50.6792C41.471 62.4044 47.4184 65 50 65C51.3807 65 52.5 66.1193 52.5 67.5V80.5481C52.5 82.8424 50.9385 84.8423 48.7127 85.3988L41.5859 87.1805C41.2626 87.2613 40.9588 87.4059 40.6922 87.6058L37.5 90H72.5L69.3078 87.6058C69.0412 87.4059 68.7374 87.2613 68.4141 87.1805L61.2873 85.3988C59.0615 84.8423 57.5 82.8424 57.5 80.5481V67.5C57.5 66.1193 58.6193 65 60 65C62.5816 65 68.529 62.4044 72.8509 50.6792C74.916 45.0765 76.5542 37.4846 77.2009 27.3445C77.3485 25.0298 77.4444 22.5838 77.482 20H32.518Z" fill="white"/>
<g clip-path="url(#clip0_166_2491)">
<g filter="url(#filter1_d_166_2491)">
<path d="M66.283 30.068L57.0983 29.9999L54.0827 30.0062L48.8762 30.0031L44.8506 30.0949V51.4924H66.2608L66.3447 49.0486L66.3368 32.1491L66.2846 30.068H66.283ZM55.623 31.9195C56.3543 36.6567 59.8496 39.9923 64.4388 40.7335C61.9202 41.1611 59.8765 42.1241 58.2919 43.9455C56.7248 45.4786 56.0092 47.4553 55.5755 49.6314C54.8663 44.6883 51.6069 41.6458 46.8721 40.705C49.9906 40.1712 52.4348 38.5732 54.1017 36.0564C54.9359 34.7973 55.2098 33.4954 55.6214 31.9195H55.623Z" fill="white"/>
</g>
</g>
</g>
<defs>
<filter id="filter0_d_166_2491" x="12" y="14" width="86" height="86" filterUnits="userSpaceOnUse" color-interpolation-filters="sRGB">
<feFlood flood-opacity="0" result="BackgroundImageFix"/>
<feColorMatrix in="SourceAlpha" type="matrix" values="0 0 0 0 0 0 0 0 0 0 0 0 0 0 0 0 0 0 127 0" result="hardAlpha"/>
<feOffset dy="2"/>
<feGaussianBlur stdDeviation="1.5"/>
<feComposite in2="hardAlpha" operator="out"/>
<feColorMatrix type="matrix" values="0 0 0 0 0 0 0 0 0 0 0 0 0 0 0 0 0 0 0.16 0"/>
<feBlend mode="normal" in2="BackgroundImageFix" result="effect1_dropShadow_166_2491"/>
<feBlend mode="normal" in="SourceGraphic" in2="effect1_dropShadow_166_2491" result="shape"/>
</filter>
<filter id="filter1_d_166_2491" x="41.8506" y="29" width="27.4941" height="27.4924" filterUnits="userSpaceOnUse" color-interpolation-filters="sRGB">
<feFlood flood-opacity="0" result="BackgroundImageFix"/>
<feColorMatrix in="SourceAlpha" type="matrix" values="0 0 0 0 0 0 0 0 0 0 0 0 0 0 0 0 0 0 127 0" result="hardAlpha"/>
<feOffset dy="2"/>
<feGaussianBlur stdDeviation="1.5"/>
<feComposite in2="hardAlpha" operator="out"/>
<feColorMatrix type="matrix" values="0 0 0 0 0 0 0 0 0 0 0 0 0 0 0 0 0 0 0.16 0"/>
<feBlend mode="normal" in2="BackgroundImageFix" result="effect1_dropShadow_166_2491"/>
<feBlend mode="normal" in="SourceGraphic" in2="effect1_dropShadow_166_2491" result="shape"/>
</filter>
<clipPath id="clip0_166_2491">
<rect width="21.4925" height="21.4925" rx="10.7463" transform="matrix(1 0 0 -1 44.8506 51.4924)" fill="white"/>
</clipPath>
</defs>
</svg>
