<svg width="111" height="110" viewBox="0 0 111 110" fill="none" xmlns="http://www.w3.org/2000/svg">
<g filter="url(#filter0_d_176_3148)">
<rect width="40.3484" height="58.6886" rx="4" transform="matrix(-0.963925 0.266175 0.266175 0.963925 42.9736 23.7329)" stroke="white" stroke-width="4"/>
<path d="M40.9326 26.675L29.6299 51.2011L5.13353 36.5605" stroke="white" stroke-width="3" stroke-linecap="round"/>
</g>
<g filter="url(#filter1_d_176_3148)">
<rect x="67.8721" y="23.7329" width="40.3484" height="58.6886" rx="4" transform="rotate(15.4368 67.8721 23.7329)" stroke="white" stroke-width="4"/>
<path d="M69.9131 26.675L81.2158 51.2011L105.712 36.5605" stroke="white" stroke-width="3" stroke-linecap="round"/>
</g>
<rect x="29.5908" y="18.0439" width="50" height="72" rx="4" stroke="white" stroke-width="5"/>
<g filter="url(#filter2_d_176_3148)">
<rect x="29.5908" y="18.0439" width="50" height="72" rx="4" fill="#BAE0FF"/>
<rect x="29.5908" y="18.0439" width="50" height="72" rx="4" stroke="white" stroke-width="5"/>
</g>
<g filter="url(#filter3_d_176_3148)">
<path d="M32.6152 19.9041C33.2446 19.3657 34.1919 19.4391 34.7305 20.0681L51.6318 39.825C52.5052 39.3287 53.5145 39.0437 54.5908 39.0437C55.942 39.0437 57.1885 39.4912 58.1914 40.2449L77.5059 20.0085C78.0777 19.4094 79.0267 19.3871 79.626 19.9587C80.2252 20.5306 80.2476 21.4796 79.6758 22.0789L60.0762 42.614C60.4058 43.357 60.5908 44.1785 60.5908 45.0437C60.5908 48.3574 57.9045 51.0437 54.5908 51.0437C51.2772 51.0436 48.5908 48.3573 48.5908 45.0437C48.5909 43.8969 48.9125 42.825 49.4707 41.9138L32.4512 22.0193C31.9129 21.3899 31.9861 20.4426 32.6152 19.9041ZM54.5908 42.0437C52.9341 42.0438 51.5909 43.387 51.5908 45.0437C51.5908 46.7005 52.934 48.0436 54.5908 48.0437C56.2477 48.0437 57.5908 46.7006 57.5908 45.0437C57.5907 43.3869 56.2476 42.0437 54.5908 42.0437Z" fill="white"/>
</g>
<g filter="url(#filter4_d_176_3148)">
<rect x="29.5908" y="18.0439" width="50" height="72" rx="4" stroke="white" stroke-width="5" shape-rendering="crispEdges"/>
</g>
<defs>
<filter id="filter0_d_176_3148" x="0" y="21.6519" width="62.6758" height="75.4734" filterUnits="userSpaceOnUse" color-interpolation-filters="sRGB">
<feFlood flood-opacity="0" result="BackgroundImageFix"/>
<feColorMatrix in="SourceAlpha" type="matrix" values="0 0 0 0 0 0 0 0 0 0 0 0 0 0 0 0 0 0 127 0" result="hardAlpha"/>
<feOffset dy="2"/>
<feGaussianBlur stdDeviation="1.5"/>
<feComposite in2="hardAlpha" operator="out"/>
<feColorMatrix type="matrix" values="0 0 0 0 0 0 0 0 0 0 0 0 0 0 0 0 0 0 0.16 0"/>
<feBlend mode="normal" in2="BackgroundImageFix" result="effect1_dropShadow_176_3148"/>
<feBlend mode="normal" in="SourceGraphic" in2="effect1_dropShadow_176_3148" result="shape"/>
</filter>
<filter id="filter1_d_176_3148" x="48.1699" y="21.6519" width="62.6758" height="75.4734" filterUnits="userSpaceOnUse" color-interpolation-filters="sRGB">
<feFlood flood-opacity="0" result="BackgroundImageFix"/>
<feColorMatrix in="SourceAlpha" type="matrix" values="0 0 0 0 0 0 0 0 0 0 0 0 0 0 0 0 0 0 127 0" result="hardAlpha"/>
<feOffset dy="2"/>
<feGaussianBlur stdDeviation="1.5"/>
<feComposite in2="hardAlpha" operator="out"/>
<feColorMatrix type="matrix" values="0 0 0 0 0 0 0 0 0 0 0 0 0 0 0 0 0 0 0.16 0"/>
<feBlend mode="normal" in2="BackgroundImageFix" result="effect1_dropShadow_176_3148"/>
<feBlend mode="normal" in="SourceGraphic" in2="effect1_dropShadow_176_3148" result="shape"/>
</filter>
<filter id="filter2_d_176_3148" x="24.0908" y="14.5439" width="61" height="83" filterUnits="userSpaceOnUse" color-interpolation-filters="sRGB">
<feFlood flood-opacity="0" result="BackgroundImageFix"/>
<feColorMatrix in="SourceAlpha" type="matrix" values="0 0 0 0 0 0 0 0 0 0 0 0 0 0 0 0 0 0 127 0" result="hardAlpha"/>
<feOffset dy="2"/>
<feGaussianBlur stdDeviation="1.5"/>
<feComposite in2="hardAlpha" operator="out"/>
<feColorMatrix type="matrix" values="0 0 0 0 0 0 0 0 0 0 0 0 0 0 0 0 0 0 0.16 0"/>
<feBlend mode="normal" in2="BackgroundImageFix" result="effect1_dropShadow_176_3148"/>
<feBlend mode="normal" in="SourceGraphic" in2="effect1_dropShadow_176_3148" result="shape"/>
</filter>
<filter id="filter3_d_176_3148" x="29.0908" y="18.5437" width="54" height="37.5" filterUnits="userSpaceOnUse" color-interpolation-filters="sRGB">
<feFlood flood-opacity="0" result="BackgroundImageFix"/>
<feColorMatrix in="SourceAlpha" type="matrix" values="0 0 0 0 0 0 0 0 0 0 0 0 0 0 0 0 0 0 127 0" result="hardAlpha"/>
<feOffset dy="2"/>
<feGaussianBlur stdDeviation="1.5"/>
<feComposite in2="hardAlpha" operator="out"/>
<feColorMatrix type="matrix" values="0 0 0 0 0 0 0 0 0 0 0 0 0 0 0 0 0 0 0.16 0"/>
<feBlend mode="normal" in2="BackgroundImageFix" result="effect1_dropShadow_176_3148"/>
<feBlend mode="normal" in="SourceGraphic" in2="effect1_dropShadow_176_3148" result="shape"/>
</filter>
<filter id="filter4_d_176_3148" x="24.0908" y="14.5439" width="61" height="83" filterUnits="userSpaceOnUse" color-interpolation-filters="sRGB">
<feFlood flood-opacity="0" result="BackgroundImageFix"/>
<feColorMatrix in="SourceAlpha" type="matrix" values="0 0 0 0 0 0 0 0 0 0 0 0 0 0 0 0 0 0 127 0" result="hardAlpha"/>
<feOffset dy="2"/>
<feGaussianBlur stdDeviation="1.5"/>
<feComposite in2="hardAlpha" operator="out"/>
<feColorMatrix type="matrix" values="0 0 0 0 0 0 0 0 0 0 0 0 0 0 0 0 0 0 0.16 0"/>
<feBlend mode="normal" in2="BackgroundImageFix" result="effect1_dropShadow_176_3148"/>
<feBlend mode="normal" in="SourceGraphic" in2="effect1_dropShadow_176_3148" result="shape"/>
</filter>
</defs>
</svg>
