<svg width="110" height="110" viewBox="0 0 110 110" fill="none" xmlns="http://www.w3.org/2000/svg">
<g filter="url(#filter0_d_177_3162)">
<path d="M29.5 88.6C27.2457 88.6 25.0837 87.715 23.4896 86.1397C21.8955 84.5644 21 82.4278 21 80.2V38.2C21 35.9722 21.8955 33.8356 23.4896 32.2603C25.0837 30.685 27.2457 29.8 29.5 29.8H80.5C82.7543 29.8 84.9163 30.685 86.5104 32.2603C88.1045 33.8356 89 35.9722 89 38.2V80.2C89 82.4278 88.1045 84.5644 86.5104 86.1397C84.9163 87.715 82.7543 88.6 80.5 88.6M29.5 88.6C29.5 93.2392 33.3056 97 38 97C42.6944 97 46.5 93.2392 46.5 88.6M29.5 88.6C29.5 83.9608 33.3056 80.2 38 80.2M80.5 88.6C80.5 93.2392 76.6944 97 72 97C67.3056 97 63.5 93.2392 63.5 88.6M80.5 88.6C80.5 83.9608 76.6944 80.2 72 80.2M38 80.2V21.4C38 19.1722 38.8955 17.0356 40.4896 15.4603C42.0837 13.885 44.2457 13 46.5 13H63.5C65.7543 13 67.9163 13.885 69.5104 15.4603C71.1045 17.0356 72 19.1722 72 21.4V80.2M38 80.2C42.6944 80.2 46.5 83.9608 46.5 88.6M72 80.2C67.3056 80.2 63.5 83.9608 63.5 88.6M46.5 88.6H63.5" stroke="white" stroke-width="4" stroke-linecap="round" stroke-linejoin="round" shape-rendering="crispEdges"/>
</g>
<g filter="url(#filter1_d_177_3162)">
<path d="M103.053 22.7236C103.053 22.9923 102.946 23.25 102.756 23.44C102.566 23.6301 102.309 23.7368 102.04 23.7368H99.0005V26.7763C99.0005 27.045 98.8937 27.3027 98.7037 27.4927C98.5137 27.6827 98.256 27.7894 97.9873 27.7894C97.7186 27.7894 97.4609 27.6827 97.2709 27.4927C97.0809 27.3027 96.9741 27.045 96.9741 26.7763V23.7368H93.9347C93.666 23.7368 93.4083 23.6301 93.2183 23.44C93.0283 23.25 92.9215 22.9923 92.9215 22.7236C92.9215 22.4549 93.0283 22.1972 93.2183 22.0072C93.4083 21.8172 93.666 21.7105 93.9347 21.7105H96.9741V18.671C96.9741 18.4023 97.0809 18.1446 97.2709 17.9546C97.4609 17.7646 97.7186 17.6578 97.9873 17.6578C98.256 17.6578 98.5137 17.7646 98.7037 17.9546C98.8937 18.1446 99.0005 18.4023 99.0005 18.671V21.7105H102.04C102.309 21.7105 102.566 21.8172 102.756 22.0072C102.946 22.1972 103.053 22.4549 103.053 22.7236ZM92.9215 10.5657C92.9215 10.8344 92.8148 11.0921 92.6248 11.2821C92.4348 11.4722 92.1771 11.5789 91.9084 11.5789H86.8426V16.6447C86.8426 16.9134 86.7358 17.1711 86.5458 17.3611C86.3558 17.5511 86.0981 17.6578 85.8294 17.6578C85.5607 17.6578 85.303 17.5511 85.113 17.3611C84.923 17.1711 84.8163 16.9134 84.8163 16.6447V11.5789H79.7505C79.4818 11.5789 79.2241 11.4722 79.0341 11.2821C78.844 11.0921 78.7373 10.8344 78.7373 10.5657C78.7373 10.297 78.844 10.0393 79.0341 9.84933C79.2241 9.65932 79.4818 9.55258 79.7505 9.55258H84.8163V4.48679C84.8163 4.21808 84.923 3.96038 85.113 3.77038C85.303 3.58038 85.5607 3.47363 85.8294 3.47363C86.0981 3.47363 86.3558 3.58038 86.5458 3.77038C86.7358 3.96038 86.8426 4.21808 86.8426 4.48679V9.55258H91.9084C92.1771 9.55258 92.4348 9.65932 92.6248 9.84933C92.8148 10.0393 92.9215 10.297 92.9215 10.5657Z" fill="white"/>
</g>
<defs>
<filter id="filter0_d_177_3162" x="16" y="10" width="78" height="94" filterUnits="userSpaceOnUse" color-interpolation-filters="sRGB">
<feFlood flood-opacity="0" result="BackgroundImageFix"/>
<feColorMatrix in="SourceAlpha" type="matrix" values="0 0 0 0 0 0 0 0 0 0 0 0 0 0 0 0 0 0 127 0" result="hardAlpha"/>
<feOffset dy="2"/>
<feGaussianBlur stdDeviation="1.5"/>
<feComposite in2="hardAlpha" operator="out"/>
<feColorMatrix type="matrix" values="0 0 0 0 0 0 0 0 0 0 0 0 0 0 0 0 0 0 0.16 0"/>
<feBlend mode="normal" in2="BackgroundImageFix" result="effect1_dropShadow_177_3162"/>
<feBlend mode="normal" in="SourceGraphic" in2="effect1_dropShadow_177_3162" result="shape"/>
</filter>
<filter id="filter1_d_177_3162" x="75.7373" y="2.47363" width="30.3154" height="30.3157" filterUnits="userSpaceOnUse" color-interpolation-filters="sRGB">
<feFlood flood-opacity="0" result="BackgroundImageFix"/>
<feColorMatrix in="SourceAlpha" type="matrix" values="0 0 0 0 0 0 0 0 0 0 0 0 0 0 0 0 0 0 127 0" result="hardAlpha"/>
<feOffset dy="2"/>
<feGaussianBlur stdDeviation="1.5"/>
<feComposite in2="hardAlpha" operator="out"/>
<feColorMatrix type="matrix" values="0 0 0 0 0 0 0 0 0 0 0 0 0 0 0 0 0 0 0.16 0"/>
<feBlend mode="normal" in2="BackgroundImageFix" result="effect1_dropShadow_177_3162"/>
<feBlend mode="normal" in="SourceGraphic" in2="effect1_dropShadow_177_3162" result="shape"/>
</filter>
</defs>
</svg>
