<svg width="110" height="110" viewBox="0 0 110 110" fill="none" xmlns="http://www.w3.org/2000/svg">
<g clip-path="url(#clip0_166_2445)">
<g filter="url(#filter0_d_166_2445)">
<path d="M86.807 67.3375L86.7543 85.3985C86.749 87.2414 85.3354 89.3873 83.4048 89.9427C64.8851 95.2242 45.5531 95.2495 27.0281 90.0791C24.8127 89.458 23.3252 87.5242 23.3199 85.3682L23.2566 67.4081L1.54042 61.3895C1.01294 61.2431 0.163703 60.3342 0.0212845 59.8545C-0.147508 59.2739 0.722829 57.9308 1.38745 57.749L33.6427 48.7867C28.6474 38.5772 31.7279 27.3579 40.4577 20.8343C49.0661 14.3966 61.3668 14.5178 69.8698 21.0565C78.5626 27.7366 81.2422 38.9963 76.4316 48.822L108.639 57.744C109.183 57.8955 109.953 58.981 109.995 59.4809C110.037 59.9808 109.378 61.1068 108.861 61.2532L98.2164 64.2675C98.1636 68.2514 98.1109 72.2958 98.3482 76.012C100.516 77.9256 101.74 80.6674 99.3715 83.0607C97.7891 84.6613 94.3183 84.8733 92.5407 82.682C90.8739 80.6219 91.4858 77.7792 94.0387 76.0322L94.1073 65.4541L86.807 67.3476V67.3375ZM51.3131 20.2536C40.1306 22.2733 33.5688 32.4121 35.5838 42.3641C37.6568 52.5786 48.0744 59.2335 58.6187 57.335C69.3106 55.4062 76.2839 45.7269 74.5168 35.679C72.7076 25.3988 62.5589 18.2289 51.3078 20.2587L51.3131 20.2536ZM77.476 57.7591C78.1459 57.7793 78.9846 59.3597 78.8158 59.9454C78.647 60.5311 77.5393 61.4349 76.7006 61.4349H33.3525C32.3345 61.4349 31.1424 60.208 31.2163 59.5163C31.2796 58.9154 32.2554 57.6985 33.0202 57.6884L41.1592 57.5471L35.7209 52.2151L9.55279 59.5718L55.016 72.2655L100.485 59.5819L74.3006 52.2151L68.8939 57.5016L77.4707 57.7591H77.476ZM82.7296 68.5493L55.0213 76.2039L27.2707 68.5493L27.2971 86.1861C45.474 91.407 64.1308 91.4575 82.6241 86.2467L82.7296 68.5493Z" fill="white"/>
</g>
<g filter="url(#filter1_d_166_2445)">
<path d="M54.2146 27.3481H55.7126V29.2415C57.0735 29.3324 58.1654 29.7262 58.9566 30.3725C59.885 31.1097 60.4546 32.3367 60.6815 34.0231H58.0968C57.9597 33.0537 57.6221 32.3821 57.0735 31.9883C56.7359 31.7358 56.2823 31.5742 55.7126 31.5036V36.5881C57.506 37.2597 58.4819 37.6282 58.619 37.7191C60.1856 38.6179 60.9768 39.9155 60.9768 41.602C60.9768 43.2884 60.365 44.4649 59.1412 45.298C58.234 45.8988 57.0999 46.2472 55.7126 46.3381V48.3729H54.2146V46.3381C52.6744 46.222 51.4928 45.7827 50.6752 45.0001C49.7205 44.0761 49.1772 42.6673 49.04 40.7739H51.6721C51.7618 41.9756 52.0572 42.8542 52.5794 43.3591C52.9645 43.7277 53.5078 43.9599 54.2146 44.0508V38.6431L51.6036 37.6737C50.0159 36.7951 49.2458 35.5025 49.2458 33.7908C49.2458 32.266 49.8154 31.1097 50.9706 30.3019C51.8304 29.6757 52.9012 29.3324 54.2146 29.2365V27.343V27.3481ZM54.2146 31.4834C53.6238 31.5541 53.1491 31.7156 52.8062 31.9479C52.1943 32.3165 51.899 32.9426 51.899 33.7959C51.899 34.6492 52.6691 35.4116 54.2146 36.0125V31.4834ZM55.7126 44.0508C56.3456 43.9599 56.9153 43.7731 57.3689 43.4752C58.0019 43.0612 58.3236 42.4603 58.3236 41.6979C58.3236 40.6578 57.5271 39.8499 55.9658 39.2945C55.8761 39.249 55.8076 39.2238 55.7179 39.2036V44.0559L55.7126 44.0508Z" fill="white"/>
</g>
</g>
<defs>
<filter id="filter0_d_166_2445" x="-3" y="15.0784" width="115.997" height="83.8523" filterUnits="userSpaceOnUse" color-interpolation-filters="sRGB">
<feFlood flood-opacity="0" result="BackgroundImageFix"/>
<feColorMatrix in="SourceAlpha" type="matrix" values="0 0 0 0 0 0 0 0 0 0 0 0 0 0 0 0 0 0 127 0" result="hardAlpha"/>
<feOffset dy="2"/>
<feGaussianBlur stdDeviation="1.5"/>
<feComposite in2="hardAlpha" operator="out"/>
<feColorMatrix type="matrix" values="0 0 0 0 0 0 0 0 0 0 0 0 0 0 0 0 0 0 0.16 0"/>
<feBlend mode="normal" in2="BackgroundImageFix" result="effect1_dropShadow_166_2445"/>
<feBlend mode="normal" in="SourceGraphic" in2="effect1_dropShadow_166_2445" result="shape"/>
</filter>
<filter id="filter1_d_166_2445" x="46.04" y="26.343" width="17.9365" height="27.03" filterUnits="userSpaceOnUse" color-interpolation-filters="sRGB">
<feFlood flood-opacity="0" result="BackgroundImageFix"/>
<feColorMatrix in="SourceAlpha" type="matrix" values="0 0 0 0 0 0 0 0 0 0 0 0 0 0 0 0 0 0 127 0" result="hardAlpha"/>
<feOffset dy="2"/>
<feGaussianBlur stdDeviation="1.5"/>
<feComposite in2="hardAlpha" operator="out"/>
<feColorMatrix type="matrix" values="0 0 0 0 0 0 0 0 0 0 0 0 0 0 0 0 0 0 0.16 0"/>
<feBlend mode="normal" in2="BackgroundImageFix" result="effect1_dropShadow_166_2445"/>
<feBlend mode="normal" in="SourceGraphic" in2="effect1_dropShadow_166_2445" result="shape"/>
</filter>
<clipPath id="clip0_166_2445">
<rect width="110" height="84" fill="white" transform="translate(0 13)"/>
</clipPath>
</defs>
</svg>
